M48
; DRILL file {KiCad 8.0.8} date 2025-02-11T18:03:01+0100
; FORMAT={-:-/ absolute / metric / decimal}
; #@! TF.CreationDate,2025-02-11T18:03:01+01:00
; #@! TF.GenerationSoftware,Kicad,Pcbnew,8.0.8
; #@! TF.FileFunction,Plated,1,4,PTH
FMAT,2
METRIC
; #@! TA.AperFunction,Plated,PTH,ViaDrill
T1C0.300
; #@! TA.AperFunction,Plated,PTH,ComponentDrill
T2C1.000
; #@! TA.AperFunction,Plated,PTH,ComponentDrill
T3C1.075
%
G90
G05
T1
X111.002Y-76.43
X111.502Y-67.31
X113.502Y-76.43
X129.327Y-87.82
X129.327Y-88.82
X129.327Y-89.82
X133.777Y-87.82
X133.777Y-88.82
X133.777Y-89.82
X156.162Y-67.59
X158.662Y-74.93
X171.77Y-74.93
X173.73Y-67.59
T2
X116.622Y-103.82
X120.122Y-108.82
X123.622Y-103.82
X127.122Y-108.82
X130.302Y-66.04
X130.302Y-68.58
X130.302Y-71.12
X130.302Y-73.66
X130.302Y-76.2
X130.302Y-78.74
X130.302Y-81.28
X130.302Y-83.82
X132.842Y-66.04
X132.842Y-68.58
X132.842Y-71.12
X132.842Y-73.66
X132.842Y-76.2
X132.842Y-78.74
X132.842Y-81.28
X132.842Y-83.82
X137.424Y-103.82
X140.924Y-108.82
X144.424Y-103.82
X147.924Y-108.82
X150.622Y-66.04
X150.622Y-68.58
X150.622Y-71.12
X150.622Y-73.66
X150.622Y-76.2
X150.622Y-78.74
X150.622Y-81.28
X150.622Y-83.82
X153.162Y-66.04
X153.162Y-68.58
X153.162Y-71.12
X153.162Y-73.66
X153.162Y-76.2
X153.162Y-78.74
X153.162Y-81.28
X153.162Y-83.82
X157.782Y-103.82
X161.282Y-108.82
X164.782Y-103.82
X168.282Y-108.82
T3
X115.182Y-83.82
X117.722Y-83.82
X120.262Y-83.82
X122.802Y-83.82
X160.662Y-83.82
X163.202Y-83.82
X165.742Y-83.82
X168.282Y-83.82
M30
