G04 #@! TF.GenerationSoftware,KiCad,Pcbnew,8.0.8*
G04 #@! TF.CreationDate,2025-02-11T18:02:45+01:00*
G04 #@! TF.ProjectId,PCB,5043422e-6b69-4636-9164-5f7063625858,rev?*
G04 #@! TF.SameCoordinates,Original*
G04 #@! TF.FileFunction,Paste,Top*
G04 #@! TF.FilePolarity,Positive*
%FSLAX46Y46*%
G04 Gerber Fmt 4.6, Leading zero omitted, Abs format (unit mm)*
G04 Created by KiCad (PCBNEW 8.0.8) date 2025-02-11 18:02:45*
%MOMM*%
%LPD*%
G01*
G04 APERTURE LIST*
G04 Aperture macros list*
%AMRoundRect*
0 Rectangle with rounded corners*
0 $1 Rounding radius*
0 $2 $3 $4 $5 $6 $7 $8 $9 X,Y pos of 4 corners*
0 Add a 4 corners polygon primitive as box body*
4,1,4,$2,$3,$4,$5,$6,$7,$8,$9,$2,$3,0*
0 Add four circle primitives for the rounded corners*
1,1,$1+$1,$2,$3*
1,1,$1+$1,$4,$5*
1,1,$1+$1,$6,$7*
1,1,$1+$1,$8,$9*
0 Add four rect primitives between the rounded corners*
20,1,$1+$1,$2,$3,$4,$5,0*
20,1,$1+$1,$4,$5,$6,$7,0*
20,1,$1+$1,$6,$7,$8,$9,0*
20,1,$1+$1,$8,$9,$2,$3,0*%
G04 Aperture macros list end*
%ADD10RoundRect,0.200000X-0.275000X0.200000X-0.275000X-0.200000X0.275000X-0.200000X0.275000X0.200000X0*%
%ADD11RoundRect,0.150000X0.875000X0.150000X-0.875000X0.150000X-0.875000X-0.150000X0.875000X-0.150000X0*%
%ADD12RoundRect,0.225000X0.225000X0.250000X-0.225000X0.250000X-0.225000X-0.250000X0.225000X-0.250000X0*%
%ADD13RoundRect,0.225000X0.250000X-0.225000X0.250000X0.225000X-0.250000X0.225000X-0.250000X-0.225000X0*%
%ADD14RoundRect,0.225000X-0.250000X0.225000X-0.250000X-0.225000X0.250000X-0.225000X0.250000X0.225000X0*%
%ADD15RoundRect,0.150000X-0.875000X-0.150000X0.875000X-0.150000X0.875000X0.150000X-0.875000X0.150000X0*%
G04 APERTURE END LIST*
D10*
X168282000Y-92170000D03*
X168282000Y-93820000D03*
X123622000Y-92170000D03*
X123622000Y-93820000D03*
D11*
X122802000Y-74930000D03*
X122802000Y-73660000D03*
X122802000Y-72390000D03*
X122802000Y-71120000D03*
X122802000Y-69850000D03*
X122802000Y-68580000D03*
X122802000Y-67310000D03*
X122802000Y-66040000D03*
X113502000Y-66040000D03*
X113502000Y-67310000D03*
X113502000Y-68580000D03*
X113502000Y-69850000D03*
X113502000Y-71120000D03*
X113502000Y-72390000D03*
X113502000Y-73660000D03*
X113502000Y-74930000D03*
D12*
X162707000Y-86820000D03*
X161157000Y-86820000D03*
X122307000Y-86820000D03*
X120757000Y-86820000D03*
D10*
X161282000Y-92170000D03*
X161282000Y-93820000D03*
X157782000Y-92170000D03*
X157782000Y-93820000D03*
X116622000Y-92170000D03*
X116622000Y-93820000D03*
X164782000Y-92170000D03*
X164782000Y-93820000D03*
D13*
X125302000Y-74930000D03*
X125302000Y-73380000D03*
D12*
X167787000Y-86820000D03*
X166237000Y-86820000D03*
D10*
X120122000Y-92170000D03*
X120122000Y-93820000D03*
D13*
X111002000Y-74930000D03*
X111002000Y-73380000D03*
D10*
X127122000Y-92170000D03*
X127122000Y-93820000D03*
D14*
X172462000Y-66040000D03*
X172462000Y-67590000D03*
X158162000Y-66040000D03*
X158162000Y-67590000D03*
D12*
X117227000Y-86820000D03*
X115677000Y-86820000D03*
D15*
X160662000Y-66040000D03*
X160662000Y-67310000D03*
X160662000Y-68580000D03*
X160662000Y-69850000D03*
X160662000Y-71120000D03*
X160662000Y-72390000D03*
X160662000Y-73660000D03*
X160662000Y-74930000D03*
X169962000Y-74930000D03*
X169962000Y-73660000D03*
X169962000Y-72390000D03*
X169962000Y-71120000D03*
X169962000Y-69850000D03*
X169962000Y-68580000D03*
X169962000Y-67310000D03*
X169962000Y-66040000D03*
M02*
