G04 #@! TF.GenerationSoftware,KiCad,Pcbnew,8.0.8*
G04 #@! TF.CreationDate,2025-02-11T18:02:45+01:00*
G04 #@! TF.ProjectId,PCB,5043422e-6b69-4636-9164-5f7063625858,rev?*
G04 #@! TF.SameCoordinates,Original*
G04 #@! TF.FileFunction,Copper,L1,Top*
G04 #@! TF.FilePolarity,Positive*
%FSLAX46Y46*%
G04 Gerber Fmt 4.6, Leading zero omitted, Abs format (unit mm)*
G04 Created by KiCad (PCBNEW 8.0.8) date 2025-02-11 18:02:45*
%MOMM*%
%LPD*%
G01*
G04 APERTURE LIST*
G04 Aperture macros list*
%AMRoundRect*
0 Rectangle with rounded corners*
0 $1 Rounding radius*
0 $2 $3 $4 $5 $6 $7 $8 $9 X,Y pos of 4 corners*
0 Add a 4 corners polygon primitive as box body*
4,1,4,$2,$3,$4,$5,$6,$7,$8,$9,$2,$3,0*
0 Add four circle primitives for the rounded corners*
1,1,$1+$1,$2,$3*
1,1,$1+$1,$4,$5*
1,1,$1+$1,$6,$7*
1,1,$1+$1,$8,$9*
0 Add four rect primitives between the rounded corners*
20,1,$1+$1,$2,$3,$4,$5,0*
20,1,$1+$1,$4,$5,$6,$7,0*
20,1,$1+$1,$6,$7,$8,$9,0*
20,1,$1+$1,$8,$9,$2,$3,0*%
%AMFreePoly0*
4,1,19,0.500000,-0.750000,0.000000,-0.750000,0.000000,-0.744911,-0.071157,-0.744911,-0.207708,-0.704816,-0.327430,-0.627875,-0.420627,-0.520320,-0.479746,-0.390866,-0.500000,-0.250000,-0.500000,0.250000,-0.479746,0.390866,-0.420627,0.520320,-0.327430,0.627875,-0.207708,0.704816,-0.071157,0.744911,0.000000,0.744911,0.000000,0.750000,0.500000,0.750000,0.500000,-0.750000,0.500000,-0.750000,
$1*%
%AMFreePoly1*
4,1,19,0.000000,0.744911,0.071157,0.744911,0.207708,0.704816,0.327430,0.627875,0.420627,0.520320,0.479746,0.390866,0.500000,0.250000,0.500000,-0.250000,0.479746,-0.390866,0.420627,-0.520320,0.327430,-0.627875,0.207708,-0.704816,0.071157,-0.744911,0.000000,-0.744911,0.000000,-0.750000,-0.500000,-0.750000,-0.500000,0.750000,0.000000,0.750000,0.000000,0.744911,0.000000,0.744911,
$1*%
G04 Aperture macros list end*
G04 #@! TA.AperFunction,ComponentPad*
%ADD10O,1.750000X2.250000*%
G04 #@! TD*
G04 #@! TA.AperFunction,SMDPad,CuDef*
%ADD11RoundRect,0.200000X-0.275000X0.200000X-0.275000X-0.200000X0.275000X-0.200000X0.275000X0.200000X0*%
G04 #@! TD*
G04 #@! TA.AperFunction,SMDPad,CuDef*
%ADD12RoundRect,0.150000X0.875000X0.150000X-0.875000X0.150000X-0.875000X-0.150000X0.875000X-0.150000X0*%
G04 #@! TD*
G04 #@! TA.AperFunction,ComponentPad*
%ADD13C,1.700000*%
G04 #@! TD*
G04 #@! TA.AperFunction,ComponentPad*
%ADD14O,1.700000X1.700000*%
G04 #@! TD*
G04 #@! TA.AperFunction,ComponentPad*
%ADD15C,1.508000*%
G04 #@! TD*
G04 #@! TA.AperFunction,SMDPad,CuDef*
%ADD16RoundRect,0.225000X0.225000X0.250000X-0.225000X0.250000X-0.225000X-0.250000X0.225000X-0.250000X0*%
G04 #@! TD*
G04 #@! TA.AperFunction,SMDPad,CuDef*
%ADD17RoundRect,0.225000X0.250000X-0.225000X0.250000X0.225000X-0.250000X0.225000X-0.250000X-0.225000X0*%
G04 #@! TD*
G04 #@! TA.AperFunction,SMDPad,CuDef*
%ADD18FreePoly0,180.000000*%
G04 #@! TD*
G04 #@! TA.AperFunction,SMDPad,CuDef*
%ADD19FreePoly1,180.000000*%
G04 #@! TD*
G04 #@! TA.AperFunction,SMDPad,CuDef*
%ADD20RoundRect,0.225000X-0.250000X0.225000X-0.250000X-0.225000X0.250000X-0.225000X0.250000X0.225000X0*%
G04 #@! TD*
G04 #@! TA.AperFunction,SMDPad,CuDef*
%ADD21RoundRect,0.150000X-0.875000X-0.150000X0.875000X-0.150000X0.875000X0.150000X-0.875000X0.150000X0*%
G04 #@! TD*
G04 #@! TA.AperFunction,ViaPad*
%ADD22C,0.600000*%
G04 #@! TD*
G04 #@! TA.AperFunction,Conductor*
%ADD23C,0.500000*%
G04 #@! TD*
G04 #@! TA.AperFunction,Conductor*
%ADD24C,0.200000*%
G04 #@! TD*
G04 #@! TA.AperFunction,Conductor*
%ADD25C,0.250000*%
G04 #@! TD*
G04 APERTURE END LIST*
D10*
X160662000Y-83820000D03*
X163202000Y-83820000D03*
X165742000Y-83820000D03*
X168282000Y-83820000D03*
D11*
X168282000Y-92170000D03*
X168282000Y-93820000D03*
X123622000Y-92170000D03*
X123622000Y-93820000D03*
D12*
X122802000Y-74930000D03*
X122802000Y-73660000D03*
X122802000Y-72390000D03*
X122802000Y-71120000D03*
X122802000Y-69850000D03*
X122802000Y-68580000D03*
X122802000Y-67310000D03*
X122802000Y-66040000D03*
X113502000Y-66040000D03*
X113502000Y-67310000D03*
X113502000Y-68580000D03*
X113502000Y-69850000D03*
X113502000Y-71120000D03*
X113502000Y-72390000D03*
X113502000Y-73660000D03*
X113502000Y-74930000D03*
D13*
X132842000Y-66040000D03*
D14*
X130302000Y-66040000D03*
X132842000Y-68580000D03*
X130302000Y-68580000D03*
X132842000Y-71120000D03*
X130302000Y-71120000D03*
X132842000Y-73660000D03*
X130302000Y-73660000D03*
X132842000Y-76200000D03*
X130302000Y-76200000D03*
X132842000Y-78740000D03*
X130302000Y-78740000D03*
X132842000Y-81280000D03*
X130302000Y-81280000D03*
X132842000Y-83820000D03*
X130302000Y-83820000D03*
D15*
X116622000Y-103820000D03*
X120122000Y-108820000D03*
X123622000Y-103820000D03*
X127122000Y-108820000D03*
D16*
X162707000Y-86820000D03*
X161157000Y-86820000D03*
X122307000Y-86820000D03*
X120757000Y-86820000D03*
D11*
X161282000Y-92170000D03*
X161282000Y-93820000D03*
X157782000Y-92170000D03*
X157782000Y-93820000D03*
D15*
X137424500Y-103820000D03*
X140924500Y-108820000D03*
X144424500Y-103820000D03*
X147924500Y-108820000D03*
D11*
X116622000Y-92170000D03*
X116622000Y-93820000D03*
X164782000Y-92170000D03*
X164782000Y-93820000D03*
D17*
X125302000Y-74930000D03*
X125302000Y-73380000D03*
D16*
X167787000Y-86820000D03*
X166237000Y-86820000D03*
D10*
X115182000Y-83820000D03*
X117722000Y-83820000D03*
X120262000Y-83820000D03*
X122802000Y-83820000D03*
D11*
X120122000Y-92170000D03*
X120122000Y-93820000D03*
D17*
X111002000Y-74930000D03*
X111002000Y-73380000D03*
D18*
X132202000Y-88820000D03*
D19*
X130902000Y-88820000D03*
D13*
X153162000Y-66040000D03*
D14*
X150622000Y-66040000D03*
X153162000Y-68580000D03*
X150622000Y-68580000D03*
X153162000Y-71120000D03*
X150622000Y-71120000D03*
X153162000Y-73660000D03*
X150622000Y-73660000D03*
X153162000Y-76200000D03*
X150622000Y-76200000D03*
X153162000Y-78740000D03*
X150622000Y-78740000D03*
X153162000Y-81280000D03*
X150622000Y-81280000D03*
X153162000Y-83820000D03*
X150622000Y-83820000D03*
D11*
X127122000Y-92170000D03*
X127122000Y-93820000D03*
D20*
X172462000Y-66040000D03*
X172462000Y-67590000D03*
D18*
X152522000Y-88820000D03*
D19*
X151222000Y-88820000D03*
D20*
X158162000Y-66040000D03*
X158162000Y-67590000D03*
D15*
X157782000Y-103820000D03*
X161282000Y-108820000D03*
X164782000Y-103820000D03*
X168282000Y-108820000D03*
D16*
X117227000Y-86820000D03*
X115677000Y-86820000D03*
D21*
X160662000Y-66040000D03*
X160662000Y-67310000D03*
X160662000Y-68580000D03*
X160662000Y-69850000D03*
X160662000Y-71120000D03*
X160662000Y-72390000D03*
X160662000Y-73660000D03*
X160662000Y-74930000D03*
X169962000Y-74930000D03*
X169962000Y-73660000D03*
X169962000Y-72390000D03*
X169962000Y-71120000D03*
X169962000Y-69850000D03*
X169962000Y-68580000D03*
X169962000Y-67310000D03*
X169962000Y-66040000D03*
D22*
X156162000Y-67590000D03*
X133777000Y-87820000D03*
X133777000Y-89820000D03*
X158662000Y-74930000D03*
X133777000Y-88820000D03*
X111502000Y-67310000D03*
X111002000Y-76430000D03*
X113502000Y-76430000D03*
X173730000Y-67590000D03*
X129327000Y-88820000D03*
X129327000Y-87820000D03*
X171770000Y-74930000D03*
X129327000Y-89820000D03*
D23*
X122802000Y-74930000D02*
X125302000Y-74930000D01*
X142908427Y-63270000D02*
X156091573Y-63270000D01*
X157505787Y-63855787D02*
X157576214Y-63926214D01*
X122307000Y-86820000D02*
X122307000Y-84315000D01*
X138380000Y-82861573D02*
X138380000Y-67798427D01*
X122802000Y-83820000D02*
X122802000Y-74930000D01*
X136495787Y-85574213D02*
X137794214Y-84275786D01*
X138965787Y-66384213D02*
X141494214Y-63855786D01*
X122802000Y-83820000D02*
X130302000Y-83820000D01*
X133470427Y-86160000D02*
X135081573Y-86160000D01*
X122307000Y-84315000D02*
X122802000Y-83820000D01*
X158162000Y-65340427D02*
X158162000Y-66040000D01*
X130302000Y-83820000D02*
X132056214Y-85574214D01*
X158162000Y-66040000D02*
X160662000Y-66040000D01*
X141494214Y-63855786D02*
G75*
G02*
X142908427Y-63270019I1414186J-1414214D01*
G01*
X157576214Y-63926214D02*
G75*
G02*
X158161981Y-65340427I-1414214J-1414186D01*
G01*
X136495787Y-85574213D02*
G75*
G02*
X135081573Y-86159981I-1414187J1414213D01*
G01*
X133470427Y-86160000D02*
G75*
G02*
X132056200Y-85574228I-27J2000000D01*
G01*
X157505787Y-63855787D02*
G75*
G03*
X156091573Y-63270019I-1414187J-1414213D01*
G01*
X138965787Y-66384213D02*
G75*
G03*
X138380019Y-67798427I1414213J-1414187D01*
G01*
X137794214Y-84275786D02*
G75*
G03*
X138379981Y-82861573I-1414214J1414186D01*
G01*
X159330000Y-67310000D02*
X160662000Y-67310000D01*
X158162000Y-67590000D02*
X159050000Y-67590000D01*
X160662000Y-74930000D02*
X165742000Y-74930000D01*
D24*
X120262000Y-73660000D02*
X120262000Y-83820000D01*
D23*
X160662000Y-67310000D02*
X165240000Y-67310000D01*
X122802000Y-73660000D02*
X120262000Y-73660000D01*
X133777000Y-87820000D02*
X133777000Y-89820000D01*
X166237000Y-84315000D02*
X165742000Y-83820000D01*
X159050000Y-67590000D02*
X159330000Y-67310000D01*
X120757000Y-84315000D02*
X120262000Y-83820000D01*
X166237000Y-86820000D02*
X166237000Y-84315000D01*
X165240000Y-67310000D02*
X165742000Y-67812000D01*
X132277000Y-88820000D02*
X133777000Y-88820000D01*
X120757000Y-86820000D02*
X120757000Y-84315000D01*
X158162000Y-67590000D02*
X156162000Y-67590000D01*
X122802000Y-66040000D02*
X120710000Y-66040000D01*
X120262000Y-66488000D02*
X120710000Y-66040000D01*
X122802000Y-73660000D02*
X125022000Y-73660000D01*
X165742000Y-67812000D02*
X165742000Y-74930000D01*
X125022000Y-73660000D02*
X125302000Y-73380000D01*
X120262000Y-83820000D02*
X120262000Y-66488000D01*
X160662000Y-74930000D02*
X158662000Y-74930000D01*
X165742000Y-74930000D02*
X165742000Y-83820000D01*
D24*
X168282000Y-73990000D02*
X168282000Y-73660000D01*
X168612000Y-73660000D02*
X168282000Y-73990000D01*
D23*
X168282000Y-83820000D02*
X168282000Y-66428000D01*
D24*
X168880000Y-73660000D02*
X168282000Y-73660000D01*
X169962000Y-73660000D02*
X168880000Y-73660000D01*
D23*
X169962000Y-66040000D02*
X172462000Y-66040000D01*
X113502000Y-74930000D02*
X113502000Y-76430000D01*
D24*
X168282000Y-73330000D02*
X168282000Y-73660000D01*
D23*
X168282000Y-66428000D02*
X168670000Y-66040000D01*
X167787000Y-84315000D02*
X168282000Y-83820000D01*
X111002000Y-74930000D02*
X111002000Y-76430000D01*
X142204213Y-89405787D02*
X141510286Y-90099714D01*
D24*
X168880000Y-73660000D02*
X168492000Y-73660000D01*
D23*
X117227000Y-84315000D02*
X117722000Y-83820000D01*
X140924500Y-108820000D02*
X140924500Y-91513927D01*
D24*
X168612000Y-73660000D02*
X168282000Y-73330000D01*
D23*
X167787000Y-86820000D02*
X167787000Y-84315000D01*
D24*
X168282000Y-83820000D02*
X168282000Y-73990000D01*
D23*
X113502000Y-67310000D02*
X111502000Y-67310000D01*
X143618427Y-88820000D02*
X151142097Y-88820000D01*
D24*
X169962000Y-73660000D02*
X168612000Y-73660000D01*
D23*
X169962000Y-73660000D02*
X168282000Y-73660000D01*
X117227000Y-86820000D02*
X117227000Y-84315000D01*
X169962000Y-66040000D02*
X168670000Y-66040000D01*
X111002000Y-74930000D02*
X113502000Y-74930000D01*
D24*
X168282000Y-66428000D02*
X168282000Y-73330000D01*
D23*
X143618427Y-88820000D02*
G75*
G03*
X142204199Y-89405773I-27J-2000000D01*
G01*
X140924500Y-91513927D02*
G75*
G02*
X141510272Y-90099700I2000000J27D01*
G01*
D24*
X172462000Y-67590000D02*
X173730000Y-67590000D01*
D23*
X161157000Y-86820000D02*
X161157000Y-84315000D01*
D24*
X113502000Y-73660000D02*
X114842000Y-73660000D01*
D23*
X113502000Y-73660000D02*
X115172000Y-73660000D01*
X111870000Y-73380000D02*
X111002000Y-73380000D01*
X169962000Y-67310000D02*
X171490000Y-67310000D01*
X114890000Y-66040000D02*
X113502000Y-66040000D01*
X161157000Y-84315000D02*
X160662000Y-83820000D01*
X171490000Y-67310000D02*
X171770000Y-67590000D01*
D24*
X113502000Y-73660000D02*
X114852000Y-73660000D01*
D23*
X115677000Y-84315000D02*
X115182000Y-83820000D01*
X129327000Y-87820000D02*
X129327000Y-89820000D01*
X169962000Y-74930000D02*
X171770000Y-74930000D01*
X171770000Y-67590000D02*
X173730000Y-67590000D01*
D24*
X172462000Y-67590000D02*
X171770000Y-67590000D01*
D23*
X115677000Y-86820000D02*
X115677000Y-84315000D01*
D25*
X130827000Y-88820000D02*
X129327000Y-88820000D01*
D23*
X113502000Y-73660000D02*
X112150000Y-73660000D01*
D24*
X115182000Y-74000000D02*
X115182000Y-83820000D01*
D23*
X112150000Y-73660000D02*
X111870000Y-73380000D01*
X115182000Y-83820000D02*
X115182000Y-66332000D01*
X129327000Y-88820000D02*
X130822097Y-88820000D01*
X115182000Y-66332000D02*
X114890000Y-66040000D01*
X158748427Y-80790000D02*
X161695786Y-80790000D01*
X162707000Y-86820000D02*
X162707000Y-84315000D01*
X145010287Y-93199713D02*
X145874214Y-92335786D01*
X162707000Y-84315000D02*
X163202000Y-83820000D01*
X156100000Y-89501573D02*
X156100000Y-83438427D01*
X155265787Y-91164213D02*
X155514214Y-90915786D01*
X156685787Y-82024213D02*
X157334214Y-81375786D01*
X163202000Y-82296214D02*
X163202000Y-83820000D01*
X144424500Y-103820000D02*
X144424500Y-94613927D01*
X162402893Y-81082893D02*
X162909107Y-81589107D01*
X147288427Y-91750000D02*
X153851573Y-91750000D01*
X161695786Y-80790000D02*
G75*
G02*
X162402900Y-81082886I14J-1000000D01*
G01*
X145874214Y-92335786D02*
G75*
G02*
X147288427Y-91750019I1414186J-1414214D01*
G01*
X145010287Y-93199713D02*
G75*
G03*
X144424519Y-94613927I1414213J-1414187D01*
G01*
X155514214Y-90915786D02*
G75*
G03*
X156099981Y-89501573I-1414214J1414186D01*
G01*
X156685787Y-82024213D02*
G75*
G03*
X156100019Y-83438427I1414213J-1414187D01*
G01*
X163202000Y-82296214D02*
G75*
G03*
X162909114Y-81589100I-1000000J14D01*
G01*
X158748427Y-80790000D02*
G75*
G03*
X157334200Y-81375772I-27J-2000000D01*
G01*
X155265787Y-91164213D02*
G75*
G02*
X153851573Y-91749981I-1414187J1414213D01*
G01*
D24*
X126982893Y-64817107D02*
X127767107Y-64032893D01*
X132842000Y-65086214D02*
X132842000Y-66040000D01*
X122802000Y-68580000D02*
X125435786Y-68580000D01*
X128474214Y-63740000D02*
X131495786Y-63740000D01*
X126690000Y-67325786D02*
X126690000Y-65524214D01*
X132202893Y-64032893D02*
X132549107Y-64379107D01*
X126142893Y-68287107D02*
X126397107Y-68032893D01*
X127767107Y-64032893D02*
G75*
G02*
X128474214Y-63740010I707093J-707107D01*
G01*
X132202893Y-64032893D02*
G75*
G03*
X131495786Y-63740010I-707093J-707107D01*
G01*
X126690000Y-67325786D02*
G75*
G02*
X126397114Y-68032900I-1000000J-14D01*
G01*
X125435786Y-68580000D02*
G75*
G03*
X126142900Y-68287114I14J1000000D01*
G01*
X132549107Y-64379107D02*
G75*
G02*
X132841990Y-65086214I-707107J-707093D01*
G01*
X126982893Y-64817107D02*
G75*
G03*
X126690010Y-65524214I707107J-707093D01*
G01*
X122802000Y-69850000D02*
X126655786Y-69850000D01*
X127362893Y-69557107D02*
X129347107Y-67572893D01*
X130054214Y-67280000D02*
X131127786Y-67280000D01*
X131834893Y-67572893D02*
X132842000Y-68580000D01*
X131834893Y-67572893D02*
G75*
G03*
X131127786Y-67280010I-707093J-707107D01*
G01*
X130054214Y-67280000D02*
G75*
G03*
X129347100Y-67572886I-14J-1000000D01*
G01*
X126655786Y-69850000D02*
G75*
G03*
X127362900Y-69557114I14J1000000D01*
G01*
X131864893Y-72682893D02*
X132842000Y-73660000D01*
X122802000Y-72390000D02*
X131157786Y-72390000D01*
X131864893Y-72682893D02*
G75*
G03*
X131157786Y-72390010I-707093J-707107D01*
G01*
X131864893Y-70142893D02*
X132842000Y-71120000D01*
X122802000Y-71120000D02*
X127805786Y-71120000D01*
X128512893Y-70827107D02*
X129197107Y-70142893D01*
X129904214Y-69850000D02*
X131157786Y-69850000D01*
X129197107Y-70142893D02*
G75*
G02*
X129904214Y-69850010I707093J-707107D01*
G01*
X128512893Y-70827107D02*
G75*
G02*
X127805786Y-71119990I-707093J707107D01*
G01*
X131864893Y-70142893D02*
G75*
G03*
X131157786Y-69850010I-707093J-707107D01*
G01*
X151639107Y-70102893D02*
X150622000Y-71120000D01*
X153465786Y-69810000D02*
X152346214Y-69810000D01*
X154897107Y-70827107D02*
X154172893Y-70102893D01*
X160662000Y-71120000D02*
X155604214Y-71120000D01*
X153465786Y-69810000D02*
G75*
G02*
X154172900Y-70102886I14J-1000000D01*
G01*
X152346214Y-69810000D02*
G75*
G03*
X151639100Y-70102886I-14J-1000000D01*
G01*
X154897107Y-70827107D02*
G75*
G03*
X155604214Y-71119990I707093J707107D01*
G01*
D23*
X153015553Y-85984447D02*
X152743446Y-86256554D01*
X153162000Y-83820000D02*
X153162000Y-85630893D01*
X152597000Y-86610107D02*
X152597000Y-88820000D01*
X153015553Y-85984447D02*
G75*
G03*
X153161995Y-85630893I-353553J353547D01*
G01*
X152743446Y-86256554D02*
G75*
G03*
X152597005Y-86610107I353554J-353546D01*
G01*
D24*
X153545786Y-67290000D02*
X152326214Y-67290000D01*
X160662000Y-69850000D02*
X156934214Y-69850000D01*
X156227107Y-69557107D02*
X154252893Y-67582893D01*
X151619107Y-67582893D02*
X150622000Y-68580000D01*
X153545786Y-67290000D02*
G75*
G02*
X154252900Y-67582886I14J-1000000D01*
G01*
X156934214Y-69850000D02*
G75*
G02*
X156227100Y-69557114I-14J1000000D01*
G01*
X151619107Y-67582893D02*
G75*
G02*
X152326214Y-67290010I707093J-707107D01*
G01*
X151599107Y-72682893D02*
X150622000Y-73660000D01*
X160662000Y-72390000D02*
X152306214Y-72390000D01*
X151599107Y-72682893D02*
G75*
G02*
X152306214Y-72390010I707093J-707107D01*
G01*
X160662000Y-68580000D02*
X156229900Y-68580000D01*
X153545786Y-64630000D02*
X152446214Y-64630000D01*
X155110000Y-67460100D02*
X155110000Y-66194214D01*
X155522793Y-68287107D02*
X155402893Y-68167207D01*
X151739107Y-64922893D02*
X150622000Y-66040000D01*
X154817107Y-65487107D02*
X154252893Y-64922893D01*
X155110000Y-67460100D02*
G75*
G03*
X155402893Y-68167207I1000000J0D01*
G01*
X154252893Y-64922893D02*
G75*
G03*
X153545786Y-64630010I-707093J-707107D01*
G01*
X155110000Y-66194214D02*
G75*
G03*
X154817114Y-65487100I-1000000J14D01*
G01*
X151739107Y-64922893D02*
G75*
G02*
X152446214Y-64630010I707093J-707107D01*
G01*
X156229900Y-68580000D02*
G75*
G02*
X155522793Y-68287107I0J1000000D01*
G01*
X157782000Y-93820000D02*
X157782000Y-103820000D01*
X168282000Y-93820000D02*
X168282000Y-108820000D01*
X161282000Y-93820000D02*
X161282000Y-108820000D01*
X164782000Y-93820000D02*
X164782000Y-103820000D01*
X120122000Y-93820000D02*
X120122000Y-108820000D01*
X123622000Y-93820000D02*
X123622000Y-103820000D01*
X127122000Y-93820000D02*
X127122000Y-108820000D01*
X116622000Y-93820000D02*
X116622000Y-103820000D01*
X111475485Y-88300000D02*
X124801573Y-88300000D01*
X107725787Y-85378729D02*
X110061272Y-87714214D01*
X107140000Y-73474214D02*
X107140000Y-83964515D01*
X126215787Y-88885787D02*
X126536214Y-89206214D01*
X127122000Y-90620427D02*
X127122000Y-92170000D01*
X113502000Y-72390000D02*
X108224214Y-72390000D01*
X107517107Y-72682893D02*
X107432893Y-72767107D01*
X126215787Y-88885787D02*
G75*
G03*
X124801573Y-88300019I-1414187J-1414213D01*
G01*
X107432893Y-72767107D02*
G75*
G03*
X107140010Y-73474214I707107J-707093D01*
G01*
X108224214Y-72390000D02*
G75*
G03*
X107517100Y-72682886I-14J-1000000D01*
G01*
X126536214Y-89206214D02*
G75*
G02*
X127121981Y-90620427I-1414214J-1414186D01*
G01*
X110061272Y-87714214D02*
G75*
G03*
X111475485Y-88300011I1414228J1414214D01*
G01*
X107140000Y-83964515D02*
G75*
G03*
X107725794Y-85378722I2000000J15D01*
G01*
X106740000Y-72324214D02*
X106740000Y-84130201D01*
X123622000Y-90810427D02*
X123622000Y-92170000D01*
X107325787Y-85544415D02*
X109895586Y-88114214D01*
X111309799Y-88700000D02*
X121511573Y-88700000D01*
X113502000Y-71120000D02*
X107944214Y-71120000D01*
X107237107Y-71412893D02*
X107032893Y-71617107D01*
X122925787Y-89285787D02*
X123036214Y-89396214D01*
X106740000Y-84130201D02*
G75*
G03*
X107325787Y-85544415I2000000J1D01*
G01*
X107032893Y-71617107D02*
G75*
G03*
X106740010Y-72324214I707107J-707093D01*
G01*
X107944214Y-71120000D02*
G75*
G03*
X107237100Y-71412886I-14J-1000000D01*
G01*
X109895586Y-88114214D02*
G75*
G03*
X111309799Y-88700001I1414214J1414214D01*
G01*
X123036214Y-89396214D02*
G75*
G02*
X123621981Y-90810427I-1414214J-1414186D01*
G01*
X121511573Y-88700000D02*
G75*
G02*
X122925801Y-89285773I27J-2000000D01*
G01*
X107017107Y-70142893D02*
X106632893Y-70527107D01*
X111144113Y-89100000D02*
X118041573Y-89100000D01*
X106340000Y-71234214D02*
X106340000Y-84295887D01*
X120122000Y-91180427D02*
X120122000Y-92170000D01*
X113502000Y-69850000D02*
X107724214Y-69850000D01*
X106925787Y-85710101D02*
X109729900Y-88514214D01*
X119455787Y-89685787D02*
X119536214Y-89766214D01*
X106632893Y-70527107D02*
G75*
G03*
X106340010Y-71234214I707107J-707093D01*
G01*
X119455787Y-89685787D02*
G75*
G03*
X118041573Y-89100019I-1414187J-1414213D01*
G01*
X109729900Y-88514214D02*
G75*
G03*
X111144113Y-89099991I1414200J1414214D01*
G01*
X106340000Y-84295887D02*
G75*
G03*
X106925780Y-85710108I2000000J-13D01*
G01*
X107724214Y-69850000D02*
G75*
G03*
X107017100Y-70142886I-14J-1000000D01*
G01*
X120122000Y-91180427D02*
G75*
G03*
X119536228Y-89766200I-2000000J27D01*
G01*
X106232893Y-69367107D02*
X106727107Y-68872893D01*
X105940000Y-84461573D02*
X105940000Y-70074214D01*
X116036213Y-90316213D02*
X115805786Y-90085786D01*
X116622000Y-92170000D02*
X116622000Y-91730427D01*
X109564213Y-88914213D02*
X106525786Y-85875786D01*
X114391573Y-89500000D02*
X110978427Y-89500000D01*
X107434214Y-68580000D02*
X113502000Y-68580000D01*
X105940000Y-70074214D02*
G75*
G02*
X106232886Y-69367100I1000000J14D01*
G01*
X116036213Y-90316213D02*
G75*
G02*
X116621981Y-91730427I-1414213J-1414187D01*
G01*
X106525786Y-85875786D02*
G75*
G02*
X105940019Y-84461573I1414214J1414186D01*
G01*
X106727107Y-68872893D02*
G75*
G02*
X107434214Y-68580010I707093J-707107D01*
G01*
X110978427Y-89500000D02*
G75*
G02*
X109564199Y-88914227I-27J2000000D01*
G01*
X115805786Y-90085786D02*
G75*
G03*
X114391573Y-89500019I-1414186J-1414214D01*
G01*
X174321573Y-68580000D02*
X169962000Y-68580000D01*
X176104213Y-69534213D02*
X175735786Y-69165786D01*
X174762845Y-88914213D02*
X176104214Y-87572844D01*
X168867787Y-90122213D02*
X168904214Y-90085786D01*
X170318427Y-89500000D02*
X173348631Y-89500000D01*
X168282000Y-92170000D02*
X168282000Y-91536427D01*
X176690000Y-86158631D02*
X176690000Y-70948427D01*
X176104214Y-87572844D02*
G75*
G03*
X176690022Y-86158631I-1414214J1414244D01*
G01*
X173348631Y-89500000D02*
G75*
G03*
X174762830Y-88914198I-31J2000000D01*
G01*
X175735786Y-69165786D02*
G75*
G03*
X174321573Y-68580019I-1414186J-1414214D01*
G01*
X170318427Y-89500000D02*
G75*
G03*
X168904200Y-90085772I-27J-2000000D01*
G01*
X168282000Y-91536427D02*
G75*
G02*
X168867773Y-90122199I2000000J27D01*
G01*
X176104213Y-69534213D02*
G75*
G02*
X176689981Y-70948427I-1414213J-1414187D01*
G01*
X173991573Y-69850000D02*
X169962000Y-69850000D01*
X176290000Y-85992945D02*
X176290000Y-72148427D01*
X174597159Y-88514213D02*
X175704214Y-87407158D01*
X166948427Y-89100000D02*
X173182945Y-89100000D01*
X175704213Y-70734213D02*
X175405786Y-70435786D01*
X165367787Y-89852213D02*
X165534214Y-89685786D01*
X164782000Y-92170000D02*
X164782000Y-91266427D01*
X176290000Y-85992945D02*
G75*
G02*
X175704192Y-87407136I-2000000J45D01*
G01*
X164782000Y-91266427D02*
G75*
G02*
X165367773Y-89852199I2000000J27D01*
G01*
X175704213Y-70734213D02*
G75*
G02*
X176289981Y-72148427I-1414213J-1414187D01*
G01*
X173182945Y-89100000D02*
G75*
G03*
X174597137Y-88514191I-45J2000000D01*
G01*
X165534214Y-89685786D02*
G75*
G02*
X166948427Y-89100019I1414186J-1414214D01*
G01*
X173991573Y-69850000D02*
G75*
G02*
X175405800Y-70435772I27J-2000000D01*
G01*
X173017259Y-88700000D02*
X163428427Y-88700000D01*
X161282000Y-90846427D02*
X161282000Y-92170000D01*
X162014213Y-89285787D02*
X161867786Y-89432214D01*
X175165787Y-71705787D02*
X175304214Y-71844214D01*
X175890000Y-73258427D02*
X175890000Y-85827259D01*
X169962000Y-71120000D02*
X173751573Y-71120000D01*
X175304213Y-87241473D02*
X174431472Y-88114214D01*
X161867786Y-89432214D02*
G75*
G03*
X161282019Y-90846427I1414214J-1414186D01*
G01*
X175890000Y-85827259D02*
G75*
G02*
X175304234Y-87241494I-2000000J-41D01*
G01*
X173017259Y-88700000D02*
G75*
G03*
X174431493Y-88114235I41J2000000D01*
G01*
X162014213Y-89285787D02*
G75*
G02*
X163428427Y-88700019I1414187J-1414213D01*
G01*
X175304214Y-71844214D02*
G75*
G02*
X175889981Y-73258427I-1414214J-1414186D01*
G01*
X173751573Y-71120000D02*
G75*
G02*
X175165801Y-71705773I27J-2000000D01*
G01*
X174904213Y-87075787D02*
X174265786Y-87714214D01*
X175490000Y-74478427D02*
X175490000Y-85661573D01*
X158564213Y-88885787D02*
X158367786Y-89082214D01*
X169962000Y-72390000D02*
X173401573Y-72390000D01*
X174815787Y-72975787D02*
X174904214Y-73064214D01*
X172851573Y-88300000D02*
X159978427Y-88300000D01*
X157782000Y-90496427D02*
X157782000Y-92170000D01*
X175490000Y-74478427D02*
G75*
G03*
X174904228Y-73064200I-2000000J27D01*
G01*
X173401573Y-72390000D02*
G75*
G02*
X174815801Y-72975773I27J-2000000D01*
G01*
X174265786Y-87714214D02*
G75*
G02*
X172851573Y-88299981I-1414186J1414214D01*
G01*
X158367786Y-89082214D02*
G75*
G03*
X157782019Y-90496427I1414214J-1414186D01*
G01*
X174904213Y-87075787D02*
G75*
G03*
X175489981Y-85661573I-1414213J1414187D01*
G01*
X158564213Y-88885787D02*
G75*
G02*
X159978427Y-88300019I1414187J-1414213D01*
G01*
G04 #@! TA.AperFunction,Conductor*
G36*
X114517190Y-73455765D02*
G01*
X114520040Y-73458425D01*
X114520522Y-73459055D01*
X114520915Y-73459603D01*
X114525709Y-73466703D01*
X114526012Y-73467176D01*
X114530870Y-73475214D01*
X114531122Y-73475651D01*
X114536048Y-73484657D01*
X114536250Y-73485044D01*
X114541205Y-73494964D01*
X114541369Y-73495306D01*
X114546369Y-73506186D01*
X114546503Y-73506489D01*
X114551507Y-73518244D01*
X114551619Y-73518516D01*
X114556671Y-73531261D01*
X114556764Y-73531504D01*
X114561813Y-73545120D01*
X114561886Y-73545323D01*
X114566349Y-73558132D01*
X114567000Y-73561980D01*
X114567000Y-73758018D01*
X114566348Y-73761868D01*
X114561885Y-73774675D01*
X114561807Y-73774893D01*
X114556764Y-73788494D01*
X114556671Y-73788737D01*
X114551619Y-73801482D01*
X114551507Y-73801754D01*
X114546503Y-73813509D01*
X114546369Y-73813812D01*
X114541369Y-73824692D01*
X114541205Y-73825034D01*
X114536250Y-73834954D01*
X114536048Y-73835341D01*
X114531122Y-73844347D01*
X114530870Y-73844784D01*
X114526012Y-73852822D01*
X114525695Y-73853318D01*
X114520926Y-73860379D01*
X114520530Y-73860930D01*
X114520043Y-73861568D01*
X114512299Y-73866065D01*
X114508395Y-73865931D01*
X114487094Y-73861568D01*
X113558958Y-73671461D01*
X113551542Y-73666445D01*
X113549845Y-73657652D01*
X113554862Y-73650235D01*
X113558958Y-73648538D01*
X114508398Y-73454068D01*
X114517190Y-73455765D01*
G37*
G04 #@! TD.AperFunction*
G04 #@! TA.AperFunction,Conductor*
G36*
X170912000Y-74638375D02*
G01*
X170987000Y-74646000D01*
X171062000Y-74652875D01*
X171137000Y-74659000D01*
X171212000Y-74664375D01*
X171287000Y-74668999D01*
X171362000Y-74672874D01*
X171437000Y-74675999D01*
X171512000Y-74678374D01*
X171575554Y-74679751D01*
X171583750Y-74683356D01*
X171587000Y-74691448D01*
X171587000Y-75168550D01*
X171583573Y-75176823D01*
X171575554Y-75180247D01*
X171512009Y-75181624D01*
X171437028Y-75183999D01*
X171437016Y-75183999D01*
X171437000Y-75184000D01*
X171406995Y-75185250D01*
X171361946Y-75187127D01*
X171287058Y-75190997D01*
X171287000Y-75191000D01*
X171212000Y-75195625D01*
X171206231Y-75196038D01*
X171136989Y-75200999D01*
X171062005Y-75207123D01*
X170987011Y-75213997D01*
X170912026Y-75221621D01*
X170839606Y-75229708D01*
X170834517Y-75229149D01*
X169993321Y-74941069D01*
X169986605Y-74935146D01*
X169986043Y-74926209D01*
X169991966Y-74919493D01*
X169993321Y-74918931D01*
X170834518Y-74630849D01*
X170839606Y-74630291D01*
X170912000Y-74638375D01*
G37*
G04 #@! TD.AperFunction*
G04 #@! TA.AperFunction,Conductor*
G36*
X112629482Y-67010850D02*
G01*
X113470678Y-67298931D01*
X113477394Y-67304854D01*
X113477956Y-67313791D01*
X113472033Y-67320507D01*
X113470678Y-67321069D01*
X112629482Y-67609149D01*
X112624393Y-67609708D01*
X112551973Y-67601621D01*
X112476988Y-67593997D01*
X112401994Y-67587123D01*
X112327010Y-67580999D01*
X112264062Y-67576489D01*
X112252000Y-67575625D01*
X112177000Y-67571000D01*
X112176942Y-67570997D01*
X112102053Y-67567127D01*
X112064512Y-67565563D01*
X112027000Y-67564000D01*
X112026979Y-67563999D01*
X112026971Y-67563999D01*
X111951990Y-67561624D01*
X111888446Y-67560247D01*
X111880249Y-67556642D01*
X111877000Y-67548550D01*
X111877000Y-67071448D01*
X111880427Y-67063175D01*
X111888444Y-67059751D01*
X111952000Y-67058374D01*
X112027000Y-67055999D01*
X112102000Y-67052874D01*
X112177000Y-67048999D01*
X112252000Y-67044375D01*
X112327000Y-67039000D01*
X112402000Y-67032875D01*
X112477000Y-67026000D01*
X112552000Y-67018375D01*
X112624393Y-67010291D01*
X112629482Y-67010850D01*
G37*
G04 #@! TD.AperFunction*
G04 #@! TA.AperFunction,Conductor*
G36*
X114517190Y-73455765D02*
G01*
X114520040Y-73458425D01*
X114520522Y-73459055D01*
X114520915Y-73459603D01*
X114525709Y-73466703D01*
X114526012Y-73467176D01*
X114530870Y-73475214D01*
X114531122Y-73475651D01*
X114536048Y-73484657D01*
X114536250Y-73485044D01*
X114541205Y-73494964D01*
X114541369Y-73495306D01*
X114546369Y-73506186D01*
X114546503Y-73506489D01*
X114551507Y-73518244D01*
X114551619Y-73518516D01*
X114556671Y-73531261D01*
X114556764Y-73531504D01*
X114561813Y-73545120D01*
X114561886Y-73545323D01*
X114566349Y-73558132D01*
X114567000Y-73561980D01*
X114567000Y-73758018D01*
X114566348Y-73761868D01*
X114561885Y-73774675D01*
X114561807Y-73774893D01*
X114556764Y-73788494D01*
X114556671Y-73788737D01*
X114551619Y-73801482D01*
X114551507Y-73801754D01*
X114546503Y-73813509D01*
X114546369Y-73813812D01*
X114541369Y-73824692D01*
X114541205Y-73825034D01*
X114536250Y-73834954D01*
X114536048Y-73835341D01*
X114531122Y-73844347D01*
X114530870Y-73844784D01*
X114526012Y-73852822D01*
X114525695Y-73853318D01*
X114520926Y-73860379D01*
X114520530Y-73860930D01*
X114520043Y-73861568D01*
X114512299Y-73866065D01*
X114508395Y-73865931D01*
X114487094Y-73861568D01*
X113558958Y-73671461D01*
X113551542Y-73666445D01*
X113549845Y-73657652D01*
X113554862Y-73650235D01*
X113558958Y-73648538D01*
X114508398Y-73454068D01*
X114517190Y-73455765D01*
G37*
G04 #@! TD.AperFunction*
G04 #@! TA.AperFunction,Conductor*
G36*
X123752000Y-74638375D02*
G01*
X123827000Y-74646000D01*
X123901999Y-74652875D01*
X123977000Y-74659000D01*
X124052000Y-74664375D01*
X124127000Y-74668999D01*
X124202000Y-74672874D01*
X124277000Y-74675999D01*
X124352000Y-74678374D01*
X124415554Y-74679751D01*
X124423750Y-74683356D01*
X124427000Y-74691448D01*
X124427000Y-75168550D01*
X124423573Y-75176823D01*
X124415554Y-75180247D01*
X124352009Y-75181624D01*
X124277028Y-75183999D01*
X124277016Y-75183999D01*
X124277000Y-75184000D01*
X124246994Y-75185250D01*
X124201945Y-75187127D01*
X124127058Y-75190997D01*
X124127000Y-75191000D01*
X124052000Y-75195625D01*
X124046231Y-75196038D01*
X123976989Y-75200999D01*
X123902005Y-75207123D01*
X123827011Y-75213997D01*
X123752026Y-75221621D01*
X123679606Y-75229708D01*
X123674517Y-75229149D01*
X122833321Y-74941069D01*
X122826605Y-74935146D01*
X122826043Y-74926209D01*
X122831966Y-74919493D01*
X122833321Y-74918931D01*
X123674518Y-74630849D01*
X123679606Y-74630291D01*
X123752000Y-74638375D01*
G37*
G04 #@! TD.AperFunction*
G04 #@! TA.AperFunction,Conductor*
G36*
X168946630Y-73486674D02*
G01*
X169917443Y-73651603D01*
X169925025Y-73656367D01*
X169927018Y-73665098D01*
X169922254Y-73672680D01*
X169919283Y-73674204D01*
X169090466Y-73958809D01*
X169083473Y-73958999D01*
X169045191Y-73948140D01*
X169027125Y-73943016D01*
X169027119Y-73943014D01*
X169027110Y-73943012D01*
X168967251Y-73929032D01*
X168967239Y-73929029D01*
X168907385Y-73918050D01*
X168907375Y-73918048D01*
X168847499Y-73910064D01*
X168787629Y-73905082D01*
X168777310Y-73904740D01*
X168727754Y-73903099D01*
X168727750Y-73903099D01*
X168727719Y-73903098D01*
X168667884Y-73904114D01*
X168608019Y-73908131D01*
X168608017Y-73908131D01*
X168608005Y-73908132D01*
X168575285Y-73911966D01*
X168548135Y-73915147D01*
X168494198Y-73924170D01*
X168485473Y-73922155D01*
X168483995Y-73920903D01*
X168361075Y-73797983D01*
X168357648Y-73789710D01*
X168361075Y-73781437D01*
X168366256Y-73778425D01*
X168406331Y-73767454D01*
X168465828Y-73748165D01*
X168525325Y-73725876D01*
X168584821Y-73700587D01*
X168584838Y-73700579D01*
X168644314Y-73672300D01*
X168674611Y-73656367D01*
X168703815Y-73641009D01*
X168763311Y-73606720D01*
X168822808Y-73569431D01*
X168882305Y-73529142D01*
X168937817Y-73488752D01*
X168946522Y-73486657D01*
X168946630Y-73486674D01*
G37*
G04 #@! TD.AperFunction*
G04 #@! TA.AperFunction,Conductor*
G36*
X156284376Y-67291398D02*
G01*
X156284681Y-67291405D01*
X156288385Y-67291544D01*
X156385299Y-67295196D01*
X156385532Y-67295208D01*
X156469849Y-67300790D01*
X156470051Y-67300806D01*
X156543634Y-67307594D01*
X156543818Y-67307612D01*
X156611999Y-67315000D01*
X156680299Y-67322400D01*
X156754024Y-67329200D01*
X156838600Y-67334800D01*
X156939450Y-67338600D01*
X157050436Y-67339867D01*
X157058667Y-67343388D01*
X157062000Y-67351566D01*
X157062000Y-67828433D01*
X157058573Y-67836706D01*
X157050434Y-67840132D01*
X157010405Y-67840589D01*
X156939450Y-67841400D01*
X156840843Y-67845115D01*
X156838573Y-67845201D01*
X156754059Y-67850797D01*
X156754032Y-67850799D01*
X156754024Y-67850800D01*
X156680299Y-67857600D01*
X156680278Y-67857602D01*
X156680270Y-67857603D01*
X156611999Y-67865000D01*
X156543819Y-67872386D01*
X156543634Y-67872405D01*
X156470089Y-67879189D01*
X156469787Y-67879212D01*
X156385591Y-67884787D01*
X156385258Y-67884805D01*
X156284681Y-67888594D01*
X156284375Y-67888601D01*
X156173794Y-67889865D01*
X156165482Y-67886533D01*
X156161961Y-67878300D01*
X156161000Y-67590000D01*
X156161960Y-67301792D01*
X156165414Y-67293532D01*
X156173697Y-67290133D01*
X156284376Y-67291398D01*
G37*
G04 #@! TD.AperFunction*
G04 #@! TA.AperFunction,Conductor*
G36*
X159834257Y-72133776D02*
G01*
X160626845Y-72378822D01*
X160633737Y-72384540D01*
X160634567Y-72393456D01*
X160628849Y-72400348D01*
X160626845Y-72401178D01*
X159733912Y-72677247D01*
X159725503Y-72676669D01*
X159660328Y-72646218D01*
X159591089Y-72616870D01*
X159591087Y-72616869D01*
X159591077Y-72616865D01*
X159521817Y-72590507D01*
X159521799Y-72590500D01*
X159452569Y-72567152D01*
X159383295Y-72546789D01*
X159314030Y-72529429D01*
X159244791Y-72515076D01*
X159175522Y-72503716D01*
X159106248Y-72495356D01*
X159047798Y-72490835D01*
X159039813Y-72486780D01*
X159037000Y-72479170D01*
X159037000Y-72300829D01*
X159040427Y-72292556D01*
X159047796Y-72289164D01*
X159092660Y-72285693D01*
X159106248Y-72284642D01*
X159106251Y-72284641D01*
X159106259Y-72284641D01*
X159175519Y-72276283D01*
X159244779Y-72264925D01*
X159286334Y-72256310D01*
X159314030Y-72250569D01*
X159383295Y-72233210D01*
X159392546Y-72230490D01*
X159452558Y-72212850D01*
X159521817Y-72189492D01*
X159591077Y-72163134D01*
X159660337Y-72133776D01*
X159725504Y-72103329D01*
X159733912Y-72102752D01*
X159834257Y-72133776D01*
G37*
G04 #@! TD.AperFunction*
G04 #@! TA.AperFunction,Conductor*
G36*
X111008833Y-74933918D02*
G01*
X111445727Y-75248371D01*
X111450440Y-75255985D01*
X111450309Y-75260427D01*
X111431990Y-75342137D01*
X111411991Y-75434345D01*
X111392005Y-75529484D01*
X111392006Y-75529485D01*
X111391999Y-75529520D01*
X111371999Y-75627731D01*
X111352000Y-75728943D01*
X111351994Y-75728974D01*
X111332005Y-75833124D01*
X111332000Y-75833154D01*
X111312000Y-75940365D01*
X111311995Y-75940394D01*
X111292004Y-76050549D01*
X111292000Y-76050577D01*
X111272000Y-76163788D01*
X111271996Y-76163813D01*
X111271995Y-76163812D01*
X111253672Y-76270284D01*
X111248892Y-76277856D01*
X111242142Y-76280000D01*
X110761858Y-76280000D01*
X110753585Y-76276573D01*
X110750328Y-76270284D01*
X110732003Y-76163812D01*
X110732003Y-76163813D01*
X110731999Y-76163788D01*
X110711999Y-76050577D01*
X110691999Y-75940365D01*
X110671999Y-75833154D01*
X110652000Y-75728943D01*
X110632000Y-75627731D01*
X110612000Y-75529520D01*
X110611993Y-75529485D01*
X110611993Y-75529484D01*
X110592008Y-75434345D01*
X110572009Y-75342137D01*
X110571065Y-75337930D01*
X110553690Y-75260425D01*
X110555224Y-75251604D01*
X110558269Y-75248373D01*
X110995165Y-74933918D01*
X111003882Y-74931867D01*
X111008833Y-74933918D01*
G37*
G04 #@! TD.AperFunction*
G04 #@! TA.AperFunction,Conductor*
G36*
X120129746Y-93825843D02*
G01*
X120515455Y-94166611D01*
X120519386Y-94174656D01*
X120518317Y-94180312D01*
X120492000Y-94236903D01*
X120462002Y-94305907D01*
X120431982Y-94379465D01*
X120402014Y-94457395D01*
X120382015Y-94512399D01*
X120372000Y-94539946D01*
X120342000Y-94626957D01*
X120312000Y-94718467D01*
X120282001Y-94814477D01*
X120281978Y-94814550D01*
X120252019Y-94914923D01*
X120224424Y-95011514D01*
X120218856Y-95018528D01*
X120213174Y-95020000D01*
X120030826Y-95020000D01*
X120022553Y-95016573D01*
X120019576Y-95011514D01*
X119991981Y-94914923D01*
X119962000Y-94814477D01*
X119953662Y-94787795D01*
X119931999Y-94718467D01*
X119902000Y-94626957D01*
X119872000Y-94539946D01*
X119842000Y-94457435D01*
X119841985Y-94457395D01*
X119812010Y-94379449D01*
X119781997Y-94305907D01*
X119780760Y-94303062D01*
X119752000Y-94236903D01*
X119725681Y-94180310D01*
X119725301Y-94171365D01*
X119728541Y-94166613D01*
X120114253Y-93825843D01*
X120122722Y-93822934D01*
X120129746Y-93825843D01*
G37*
G04 #@! TD.AperFunction*
G04 #@! TA.AperFunction,Conductor*
G36*
X113510258Y-74937285D02*
G01*
X113798152Y-75226139D01*
X113801565Y-75234417D01*
X113801520Y-75235427D01*
X113798948Y-75264549D01*
X113796999Y-75286625D01*
X113791999Y-75344000D01*
X113786999Y-75402125D01*
X113784258Y-75434391D01*
X113781998Y-75461005D01*
X113776999Y-75520618D01*
X113777000Y-75520619D01*
X113771999Y-75580993D01*
X113772000Y-75580994D01*
X113766999Y-75642118D01*
X113767000Y-75642119D01*
X113762000Y-75703993D01*
X113762000Y-75704000D01*
X113759588Y-75734206D01*
X113757000Y-75766618D01*
X113757000Y-75766625D01*
X113752850Y-75819221D01*
X113748784Y-75827198D01*
X113741187Y-75830000D01*
X113262813Y-75830000D01*
X113254540Y-75826573D01*
X113251149Y-75819220D01*
X113246999Y-75766625D01*
X113241999Y-75704000D01*
X113236999Y-75642125D01*
X113236999Y-75642119D01*
X113236999Y-75642118D01*
X113231999Y-75580993D01*
X113231999Y-75580992D01*
X113227001Y-75520631D01*
X113222001Y-75461006D01*
X113219740Y-75434391D01*
X113217000Y-75402125D01*
X113212000Y-75344000D01*
X113207000Y-75286625D01*
X113202479Y-75235426D01*
X113205165Y-75226885D01*
X113205833Y-75226153D01*
X113493714Y-74937313D01*
X113501981Y-74933873D01*
X113510258Y-74937285D01*
G37*
G04 #@! TD.AperFunction*
G04 #@! TA.AperFunction,Conductor*
G36*
X168381192Y-80965240D02*
G01*
X168384252Y-80970609D01*
X168457818Y-81257873D01*
X168533637Y-81542309D01*
X168577051Y-81698523D01*
X168609463Y-81815147D01*
X168685267Y-82076285D01*
X168761093Y-82325867D01*
X168836912Y-82563802D01*
X168885480Y-82708774D01*
X168912737Y-82790135D01*
X168988539Y-83004771D01*
X169064373Y-83207873D01*
X169136208Y-83389251D01*
X169136068Y-83398205D01*
X169130490Y-83404060D01*
X168287160Y-83818464D01*
X168278224Y-83819037D01*
X168276840Y-83818464D01*
X167433509Y-83404060D01*
X167427595Y-83397335D01*
X167427791Y-83389251D01*
X167499631Y-83207860D01*
X167575450Y-83004799D01*
X167651269Y-82790113D01*
X167727087Y-82563802D01*
X167802906Y-82325867D01*
X167878725Y-82076306D01*
X167954543Y-81815120D01*
X168030362Y-81542309D01*
X168106181Y-81257873D01*
X168179747Y-80970609D01*
X168185119Y-80963446D01*
X168191081Y-80961813D01*
X168372919Y-80961813D01*
X168381192Y-80965240D01*
G37*
G04 #@! TD.AperFunction*
G04 #@! TA.AperFunction,Conductor*
G36*
X159834257Y-69593776D02*
G01*
X160626845Y-69838822D01*
X160633737Y-69844540D01*
X160634567Y-69853456D01*
X160628849Y-69860348D01*
X160626845Y-69861178D01*
X159733912Y-70137247D01*
X159725503Y-70136669D01*
X159660328Y-70106218D01*
X159591089Y-70076870D01*
X159591087Y-70076869D01*
X159591077Y-70076865D01*
X159521817Y-70050507D01*
X159521799Y-70050500D01*
X159452569Y-70027152D01*
X159383295Y-70006789D01*
X159314030Y-69989429D01*
X159244791Y-69975076D01*
X159175522Y-69963716D01*
X159106248Y-69955356D01*
X159047798Y-69950835D01*
X159039813Y-69946780D01*
X159037000Y-69939170D01*
X159037000Y-69760829D01*
X159040427Y-69752556D01*
X159047796Y-69749164D01*
X159092660Y-69745693D01*
X159106248Y-69744642D01*
X159106251Y-69744641D01*
X159106259Y-69744641D01*
X159175519Y-69736283D01*
X159244779Y-69724925D01*
X159286334Y-69716310D01*
X159314030Y-69710569D01*
X159383295Y-69693210D01*
X159392546Y-69690490D01*
X159452558Y-69672850D01*
X159521817Y-69649492D01*
X159591077Y-69623134D01*
X159660337Y-69593776D01*
X159725504Y-69563329D01*
X159733912Y-69562752D01*
X159834257Y-69593776D01*
G37*
G04 #@! TD.AperFunction*
G04 #@! TA.AperFunction,Conductor*
G36*
X171633889Y-67641072D02*
G01*
X171635111Y-67641181D01*
X171643852Y-67642439D01*
X171680815Y-67647755D01*
X171681689Y-67647915D01*
X171691880Y-67650181D01*
X171699211Y-67655322D01*
X171700760Y-67664142D01*
X171696856Y-67670568D01*
X171689622Y-67676633D01*
X171688184Y-67677663D01*
X171667878Y-67690000D01*
X171644243Y-67704358D01*
X171641759Y-67705493D01*
X171602342Y-67718204D01*
X171597197Y-67718665D01*
X171568056Y-67714760D01*
X171560757Y-67710814D01*
X171541683Y-67688741D01*
X171538848Y-67681615D01*
X171538147Y-67665971D01*
X171541200Y-67657556D01*
X171542729Y-67656155D01*
X171554849Y-67646909D01*
X171560040Y-67644670D01*
X171590107Y-67639733D01*
X171592410Y-67639586D01*
X171633889Y-67641072D01*
G37*
G04 #@! TD.AperFunction*
G04 #@! TA.AperFunction,Conductor*
G36*
X171784955Y-67494341D02*
G01*
X171795876Y-67497512D01*
X171802865Y-67503110D01*
X171803765Y-67505208D01*
X171808496Y-67520111D01*
X171808423Y-67527412D01*
X171798300Y-67557233D01*
X171796949Y-67559973D01*
X171791428Y-67568234D01*
X171783981Y-67573208D01*
X171775199Y-67571461D01*
X171770225Y-67564014D01*
X171770000Y-67561733D01*
X171770000Y-67505579D01*
X171773427Y-67497306D01*
X171781700Y-67493879D01*
X171784955Y-67494341D01*
G37*
G04 #@! TD.AperFunction*
G04 #@! TA.AperFunction,Conductor*
G36*
X125051918Y-74483599D02*
G01*
X125056568Y-74488190D01*
X125299821Y-74924301D01*
X125300858Y-74933195D01*
X125299821Y-74935699D01*
X125056568Y-75371809D01*
X125049545Y-75377365D01*
X125043011Y-75377323D01*
X124939498Y-75346497D01*
X124827002Y-75315998D01*
X124714515Y-75288502D01*
X124601996Y-75263998D01*
X124489508Y-75242501D01*
X124377013Y-75224002D01*
X124377007Y-75224001D01*
X124377000Y-75224000D01*
X124264500Y-75208500D01*
X124264464Y-75208496D01*
X124152033Y-75196002D01*
X124039501Y-75186500D01*
X123938025Y-75180637D01*
X123929963Y-75176738D01*
X123927000Y-75168956D01*
X123927000Y-74691043D01*
X123930427Y-74682770D01*
X123938022Y-74679363D01*
X124039500Y-74673499D01*
X124152000Y-74663999D01*
X124152008Y-74663998D01*
X124152033Y-74663996D01*
X124197005Y-74658998D01*
X124264499Y-74651499D01*
X124377000Y-74635999D01*
X124377014Y-74635996D01*
X124377019Y-74635996D01*
X124391582Y-74633601D01*
X124489500Y-74617500D01*
X124602000Y-74596000D01*
X124714500Y-74571500D01*
X124731821Y-74567265D01*
X124827002Y-74544000D01*
X124939498Y-74513501D01*
X124976583Y-74502457D01*
X125043012Y-74482676D01*
X125051918Y-74483599D01*
G37*
G04 #@! TD.AperFunction*
G04 #@! TA.AperFunction,Conductor*
G36*
X173619705Y-67323630D02*
G01*
X173729115Y-67585489D01*
X173729142Y-67594444D01*
X173729115Y-67594511D01*
X173619705Y-67856369D01*
X173613353Y-67862681D01*
X173604399Y-67862654D01*
X173550472Y-67840128D01*
X173513721Y-67824777D01*
X173513718Y-67824775D01*
X173429356Y-67789582D01*
X173357697Y-67760980D01*
X173357687Y-67760976D01*
X173357681Y-67760974D01*
X173338067Y-67753970D01*
X173294084Y-67738265D01*
X173234094Y-67720827D01*
X173234068Y-67720820D01*
X173173173Y-67708005D01*
X173173159Y-67708003D01*
X173106828Y-67699159D01*
X173030492Y-67693637D01*
X172939770Y-67690802D01*
X172841614Y-67690084D01*
X172833367Y-67686596D01*
X172830000Y-67678384D01*
X172830000Y-67501615D01*
X172833427Y-67493342D01*
X172841613Y-67489915D01*
X172939745Y-67489197D01*
X172971514Y-67488204D01*
X173030492Y-67486361D01*
X173030501Y-67486360D01*
X173030511Y-67486360D01*
X173106813Y-67480841D01*
X173106828Y-67480839D01*
X173106829Y-67480839D01*
X173115107Y-67479735D01*
X173173166Y-67471995D01*
X173206976Y-67464879D01*
X173234068Y-67459178D01*
X173234075Y-67459176D01*
X173234085Y-67459174D01*
X173294085Y-67441733D01*
X173357681Y-67419024D01*
X173404202Y-67400455D01*
X173429356Y-67390416D01*
X173429368Y-67390410D01*
X173429388Y-67390403D01*
X173513721Y-67355222D01*
X173604400Y-67317344D01*
X173613354Y-67317318D01*
X173619705Y-67323630D01*
G37*
G04 #@! TD.AperFunction*
G04 #@! TA.AperFunction,Conductor*
G36*
X121929482Y-65740850D02*
G01*
X122770678Y-66028931D01*
X122777394Y-66034854D01*
X122777956Y-66043791D01*
X122772033Y-66050507D01*
X122770678Y-66051069D01*
X121929482Y-66339149D01*
X121924393Y-66339708D01*
X121851973Y-66331621D01*
X121776988Y-66323997D01*
X121701993Y-66317123D01*
X121627010Y-66310999D01*
X121564062Y-66306489D01*
X121552000Y-66305625D01*
X121477000Y-66301000D01*
X121476942Y-66300997D01*
X121402053Y-66297127D01*
X121364512Y-66295563D01*
X121327000Y-66294000D01*
X121326979Y-66293999D01*
X121326971Y-66293999D01*
X121251990Y-66291624D01*
X121188446Y-66290247D01*
X121180249Y-66286642D01*
X121177000Y-66278550D01*
X121177000Y-65801448D01*
X121180427Y-65793175D01*
X121188444Y-65789751D01*
X121252000Y-65788374D01*
X121327000Y-65785999D01*
X121401999Y-65782874D01*
X121477000Y-65778999D01*
X121552000Y-65774375D01*
X121627000Y-65769000D01*
X121702000Y-65762875D01*
X121777000Y-65756000D01*
X121852000Y-65748375D01*
X121924393Y-65740291D01*
X121929482Y-65740850D01*
G37*
G04 #@! TD.AperFunction*
G04 #@! TA.AperFunction,Conductor*
G36*
X123738495Y-69563329D02*
G01*
X123771005Y-69578518D01*
X123803670Y-69593780D01*
X123842052Y-69610049D01*
X123872922Y-69623134D01*
X123942182Y-69649492D01*
X123942192Y-69649495D01*
X123942199Y-69649498D01*
X124011429Y-69672846D01*
X124011441Y-69672850D01*
X124048434Y-69683724D01*
X124080703Y-69693210D01*
X124149968Y-69710569D01*
X124194474Y-69719795D01*
X124219220Y-69724925D01*
X124288480Y-69736283D01*
X124357740Y-69744641D01*
X124357744Y-69744641D01*
X124357750Y-69744642D01*
X124375870Y-69746043D01*
X124416203Y-69749164D01*
X124424187Y-69753219D01*
X124427000Y-69760829D01*
X124427000Y-69939170D01*
X124423573Y-69947443D01*
X124416202Y-69950835D01*
X124357750Y-69955356D01*
X124288476Y-69963716D01*
X124219207Y-69975076D01*
X124149968Y-69989429D01*
X124080703Y-70006789D01*
X124011429Y-70027152D01*
X123942199Y-70050500D01*
X123872909Y-70076870D01*
X123803670Y-70106218D01*
X123738496Y-70136669D01*
X123730087Y-70137247D01*
X123055153Y-69928577D01*
X122837153Y-69861177D01*
X122830262Y-69855460D01*
X122829432Y-69846544D01*
X122835150Y-69839652D01*
X122837152Y-69838822D01*
X123730088Y-69562752D01*
X123738495Y-69563329D01*
G37*
G04 #@! TD.AperFunction*
G04 #@! TA.AperFunction,Conductor*
G36*
X111434613Y-73025014D02*
G01*
X111517253Y-73079962D01*
X111552225Y-73102048D01*
X111607199Y-73136768D01*
X111697146Y-73190575D01*
X111751790Y-73221440D01*
X111787096Y-73241383D01*
X111877010Y-73289173D01*
X111877038Y-73289187D01*
X111877040Y-73289188D01*
X111966987Y-73333995D01*
X112056934Y-73375801D01*
X112146881Y-73414608D01*
X112146902Y-73414617D01*
X112236805Y-73450406D01*
X112236828Y-73450415D01*
X112309536Y-73476934D01*
X112316133Y-73482988D01*
X112316518Y-73491934D01*
X112313799Y-73496198D01*
X111977336Y-73832661D01*
X111969063Y-73836088D01*
X111967457Y-73835977D01*
X111870917Y-73822600D01*
X111870904Y-73822598D01*
X111870900Y-73822598D01*
X111768578Y-73811420D01*
X111731455Y-73808453D01*
X111666247Y-73803242D01*
X111563924Y-73798064D01*
X111461636Y-73795888D01*
X111461618Y-73795888D01*
X111461612Y-73795888D01*
X111382394Y-73796524D01*
X111359282Y-73796710D01*
X111256957Y-73800532D01*
X111154633Y-73807355D01*
X111052332Y-73817175D01*
X110964764Y-73828149D01*
X110956129Y-73825778D01*
X110951700Y-73817995D01*
X110951684Y-73815217D01*
X110953884Y-73795888D01*
X111000767Y-73383912D01*
X111004848Y-73376295D01*
X111420595Y-73025811D01*
X111429128Y-73023099D01*
X111434613Y-73025014D01*
G37*
G04 #@! TD.AperFunction*
G04 #@! TA.AperFunction,Conductor*
G36*
X123718823Y-101561427D02*
G01*
X123722247Y-101569447D01*
X123728052Y-101838017D01*
X123728052Y-101838025D01*
X123746176Y-102067652D01*
X123746178Y-102067673D01*
X123776305Y-102258850D01*
X123776310Y-102258874D01*
X123818390Y-102423688D01*
X123872368Y-102574144D01*
X123872371Y-102574152D01*
X123938185Y-102722262D01*
X124015758Y-102879999D01*
X124015759Y-102879999D01*
X124105026Y-103059369D01*
X124105125Y-103059573D01*
X124205968Y-103272456D01*
X124206123Y-103272799D01*
X124313862Y-103520551D01*
X124314019Y-103529505D01*
X124307799Y-103535946D01*
X124307624Y-103536021D01*
X123626491Y-103819133D01*
X123617536Y-103819144D01*
X123617509Y-103819133D01*
X122936375Y-103536021D01*
X122930051Y-103529681D01*
X122930062Y-103520726D01*
X122930095Y-103520646D01*
X123037888Y-103272769D01*
X123038019Y-103272480D01*
X123138883Y-103059550D01*
X123138972Y-103059369D01*
X123228240Y-102879999D01*
X123305816Y-102722257D01*
X123371628Y-102574153D01*
X123425605Y-102423695D01*
X123467690Y-102258866D01*
X123497823Y-102067652D01*
X123515946Y-101838035D01*
X123521753Y-101569447D01*
X123525358Y-101561250D01*
X123533450Y-101558000D01*
X123710550Y-101558000D01*
X123718823Y-101561427D01*
G37*
G04 #@! TD.AperFunction*
G04 #@! TA.AperFunction,Conductor*
G36*
X168289746Y-93825843D02*
G01*
X168675455Y-94166611D01*
X168679386Y-94174656D01*
X168678317Y-94180312D01*
X168652000Y-94236903D01*
X168622002Y-94305907D01*
X168591989Y-94379449D01*
X168562007Y-94457414D01*
X168531997Y-94539955D01*
X168502003Y-94626947D01*
X168472008Y-94718442D01*
X168441978Y-94814550D01*
X168412019Y-94914923D01*
X168384424Y-95011514D01*
X168378856Y-95018528D01*
X168373174Y-95020000D01*
X168190826Y-95020000D01*
X168182553Y-95016573D01*
X168179576Y-95011514D01*
X168151981Y-94914923D01*
X168122022Y-94814550D01*
X168122000Y-94814478D01*
X168092000Y-94718467D01*
X168062000Y-94626957D01*
X168032000Y-94539946D01*
X168002000Y-94457435D01*
X168001992Y-94457414D01*
X167972010Y-94379449D01*
X167941997Y-94305907D01*
X167940760Y-94303062D01*
X167912000Y-94236903D01*
X167885681Y-94180310D01*
X167885301Y-94171365D01*
X167888541Y-94166613D01*
X168274253Y-93825843D01*
X168282722Y-93822934D01*
X168289746Y-93825843D01*
G37*
G04 #@! TD.AperFunction*
G04 #@! TA.AperFunction,Conductor*
G36*
X112674257Y-70863776D02*
G01*
X113466845Y-71108822D01*
X113473737Y-71114540D01*
X113474567Y-71123456D01*
X113468849Y-71130348D01*
X113466845Y-71131178D01*
X112573912Y-71407247D01*
X112565503Y-71406669D01*
X112500328Y-71376218D01*
X112431089Y-71346870D01*
X112431087Y-71346869D01*
X112431077Y-71346865D01*
X112361817Y-71320507D01*
X112361799Y-71320500D01*
X112292569Y-71297152D01*
X112223295Y-71276789D01*
X112154030Y-71259429D01*
X112084791Y-71245076D01*
X112015522Y-71233716D01*
X111946248Y-71225356D01*
X111887798Y-71220835D01*
X111879813Y-71216780D01*
X111877000Y-71209170D01*
X111877000Y-71030829D01*
X111880427Y-71022556D01*
X111887796Y-71019164D01*
X111932660Y-71015693D01*
X111946248Y-71014642D01*
X111946251Y-71014641D01*
X111946259Y-71014641D01*
X112015519Y-71006283D01*
X112084779Y-70994925D01*
X112126334Y-70986310D01*
X112154030Y-70980569D01*
X112223295Y-70963210D01*
X112232546Y-70960490D01*
X112292558Y-70942850D01*
X112361817Y-70919492D01*
X112431077Y-70893134D01*
X112500337Y-70863776D01*
X112565504Y-70833329D01*
X112573912Y-70832752D01*
X112674257Y-70863776D01*
G37*
G04 #@! TD.AperFunction*
G04 #@! TA.AperFunction,Conductor*
G36*
X134023706Y-88923427D02*
G01*
X134027132Y-88931566D01*
X134028400Y-89042549D01*
X134032200Y-89143399D01*
X134032201Y-89143425D01*
X134037796Y-89227938D01*
X134044603Y-89301727D01*
X134052000Y-89369999D01*
X134059387Y-89438184D01*
X134059406Y-89438370D01*
X134066188Y-89511906D01*
X134066211Y-89512207D01*
X134071787Y-89596407D01*
X134071805Y-89596740D01*
X134075594Y-89697317D01*
X134075601Y-89697623D01*
X134076865Y-89808205D01*
X134073533Y-89816517D01*
X134065300Y-89820038D01*
X134065205Y-89820039D01*
X133777039Y-89820999D01*
X133776961Y-89820999D01*
X133488794Y-89820039D01*
X133480532Y-89816585D01*
X133477133Y-89808301D01*
X133478398Y-89697620D01*
X133478405Y-89697317D01*
X133482196Y-89596695D01*
X133482208Y-89596470D01*
X133487791Y-89512141D01*
X133487805Y-89511951D01*
X133494594Y-89438353D01*
X133494613Y-89438178D01*
X133502000Y-89369999D01*
X133509400Y-89301699D01*
X133516199Y-89227974D01*
X133521800Y-89143399D01*
X133525600Y-89042549D01*
X133526868Y-88931566D01*
X133530389Y-88923333D01*
X133538567Y-88920000D01*
X134015433Y-88920000D01*
X134023706Y-88923427D01*
G37*
G04 #@! TD.AperFunction*
G04 #@! TA.AperFunction,Conductor*
G36*
X159789482Y-65740850D02*
G01*
X160630678Y-66028931D01*
X160637394Y-66034854D01*
X160637956Y-66043791D01*
X160632033Y-66050507D01*
X160630678Y-66051069D01*
X159789482Y-66339149D01*
X159784393Y-66339708D01*
X159711973Y-66331621D01*
X159636988Y-66323997D01*
X159561994Y-66317123D01*
X159487010Y-66310999D01*
X159424062Y-66306489D01*
X159412000Y-66305625D01*
X159337000Y-66301000D01*
X159336942Y-66300997D01*
X159262053Y-66297127D01*
X159224512Y-66295563D01*
X159187000Y-66294000D01*
X159186979Y-66293999D01*
X159186971Y-66293999D01*
X159111990Y-66291624D01*
X159048446Y-66290247D01*
X159040249Y-66286642D01*
X159037000Y-66278550D01*
X159037000Y-65801448D01*
X159040427Y-65793175D01*
X159048444Y-65789751D01*
X159112000Y-65788374D01*
X159187000Y-65785999D01*
X159262000Y-65782874D01*
X159337000Y-65778999D01*
X159412000Y-65774375D01*
X159487000Y-65769000D01*
X159562000Y-65762875D01*
X159637000Y-65756000D01*
X159712000Y-65748375D01*
X159784393Y-65740291D01*
X159789482Y-65740850D01*
G37*
G04 #@! TD.AperFunction*
G04 #@! TA.AperFunction,Conductor*
G36*
X116718823Y-101561427D02*
G01*
X116722247Y-101569447D01*
X116728052Y-101838017D01*
X116728052Y-101838025D01*
X116746176Y-102067652D01*
X116746178Y-102067673D01*
X116776305Y-102258850D01*
X116776310Y-102258874D01*
X116818390Y-102423688D01*
X116872368Y-102574144D01*
X116872371Y-102574152D01*
X116938185Y-102722262D01*
X117015758Y-102879999D01*
X117015759Y-102879999D01*
X117105026Y-103059369D01*
X117105125Y-103059573D01*
X117205968Y-103272456D01*
X117206123Y-103272799D01*
X117313862Y-103520551D01*
X117314019Y-103529505D01*
X117307799Y-103535946D01*
X117307624Y-103536021D01*
X116626491Y-103819133D01*
X116617536Y-103819144D01*
X116617509Y-103819133D01*
X115936375Y-103536021D01*
X115930051Y-103529681D01*
X115930062Y-103520726D01*
X115930095Y-103520646D01*
X116037888Y-103272769D01*
X116038019Y-103272480D01*
X116138883Y-103059550D01*
X116138972Y-103059369D01*
X116228240Y-102879999D01*
X116305816Y-102722257D01*
X116371628Y-102574153D01*
X116425605Y-102423695D01*
X116467690Y-102258866D01*
X116497823Y-102067652D01*
X116515946Y-101838035D01*
X116521753Y-101569447D01*
X116525358Y-101561250D01*
X116533450Y-101558000D01*
X116710550Y-101558000D01*
X116718823Y-101561427D01*
G37*
G04 #@! TD.AperFunction*
G04 #@! TA.AperFunction,Conductor*
G36*
X170898495Y-70833329D02*
G01*
X170931005Y-70848518D01*
X170963670Y-70863780D01*
X171002052Y-70880049D01*
X171032922Y-70893134D01*
X171102182Y-70919492D01*
X171102192Y-70919495D01*
X171102199Y-70919498D01*
X171171429Y-70942846D01*
X171171441Y-70942850D01*
X171208434Y-70953724D01*
X171240703Y-70963210D01*
X171309968Y-70980569D01*
X171354474Y-70989795D01*
X171379220Y-70994925D01*
X171448480Y-71006283D01*
X171517740Y-71014641D01*
X171517744Y-71014641D01*
X171517750Y-71014642D01*
X171535870Y-71016043D01*
X171576203Y-71019164D01*
X171584187Y-71023219D01*
X171587000Y-71030829D01*
X171587000Y-71209170D01*
X171583573Y-71217443D01*
X171576202Y-71220835D01*
X171517750Y-71225356D01*
X171448476Y-71233716D01*
X171379207Y-71245076D01*
X171309968Y-71259429D01*
X171240703Y-71276789D01*
X171171429Y-71297152D01*
X171102199Y-71320500D01*
X171032909Y-71346870D01*
X170963670Y-71376218D01*
X170898496Y-71406669D01*
X170890087Y-71407247D01*
X170215153Y-71198577D01*
X169997153Y-71131177D01*
X169990262Y-71125460D01*
X169989432Y-71116544D01*
X169995150Y-71109652D01*
X169997152Y-71108822D01*
X170890088Y-70832752D01*
X170898495Y-70833329D01*
G37*
G04 #@! TD.AperFunction*
G04 #@! TA.AperFunction,Conductor*
G36*
X122555284Y-85448427D02*
G01*
X122558566Y-85454866D01*
X122576996Y-85570978D01*
X122577000Y-85571000D01*
X122597000Y-85694000D01*
X122617000Y-85814000D01*
X122637000Y-85931000D01*
X122657000Y-86045000D01*
X122676999Y-86156000D01*
X122677004Y-86156028D01*
X122677003Y-86156028D01*
X122696993Y-86263971D01*
X122716993Y-86368969D01*
X122736992Y-86470967D01*
X122755308Y-86561626D01*
X122753588Y-86570414D01*
X122749539Y-86574161D01*
X122312699Y-86817821D01*
X122303805Y-86818858D01*
X122301301Y-86817821D01*
X121864460Y-86574161D01*
X121858904Y-86567138D01*
X121858691Y-86561628D01*
X121877000Y-86471000D01*
X121877007Y-86470967D01*
X121897006Y-86368969D01*
X121917006Y-86263971D01*
X121936995Y-86156028D01*
X121937985Y-86150530D01*
X121957000Y-86045000D01*
X121976999Y-85931000D01*
X121996999Y-85814000D01*
X122016999Y-85694000D01*
X122036999Y-85571000D01*
X122037003Y-85570978D01*
X122055434Y-85454866D01*
X122060115Y-85447232D01*
X122066989Y-85445000D01*
X122547011Y-85445000D01*
X122555284Y-85448427D01*
G37*
G04 #@! TD.AperFunction*
G04 #@! TA.AperFunction,Conductor*
G36*
X123738495Y-70833329D02*
G01*
X123771005Y-70848518D01*
X123803670Y-70863780D01*
X123842052Y-70880049D01*
X123872922Y-70893134D01*
X123942182Y-70919492D01*
X123942192Y-70919495D01*
X123942199Y-70919498D01*
X124011429Y-70942846D01*
X124011441Y-70942850D01*
X124048434Y-70953724D01*
X124080703Y-70963210D01*
X124149968Y-70980569D01*
X124194474Y-70989795D01*
X124219220Y-70994925D01*
X124288480Y-71006283D01*
X124357740Y-71014641D01*
X124357744Y-71014641D01*
X124357750Y-71014642D01*
X124375870Y-71016043D01*
X124416203Y-71019164D01*
X124424187Y-71023219D01*
X124427000Y-71030829D01*
X124427000Y-71209170D01*
X124423573Y-71217443D01*
X124416202Y-71220835D01*
X124357750Y-71225356D01*
X124288476Y-71233716D01*
X124219207Y-71245076D01*
X124149968Y-71259429D01*
X124080703Y-71276789D01*
X124011429Y-71297152D01*
X123942199Y-71320500D01*
X123872909Y-71346870D01*
X123803670Y-71376218D01*
X123738496Y-71406669D01*
X123730087Y-71407247D01*
X123055153Y-71198577D01*
X122837153Y-71131177D01*
X122830262Y-71125460D01*
X122829432Y-71116544D01*
X122835150Y-71109652D01*
X122837152Y-71108822D01*
X123730088Y-70832752D01*
X123738495Y-70833329D01*
G37*
G04 #@! TD.AperFunction*
G04 #@! TA.AperFunction,Conductor*
G36*
X120481982Y-73751072D02*
G01*
X120488291Y-73757428D01*
X120488258Y-73766382D01*
X120488176Y-73766574D01*
X120469633Y-73808752D01*
X120469430Y-73809188D01*
X120448198Y-73852551D01*
X120448046Y-73852851D01*
X120428838Y-73889383D01*
X120428817Y-73889423D01*
X120411732Y-73921614D01*
X120396986Y-73951772D01*
X120396980Y-73951786D01*
X120384683Y-73982405D01*
X120384680Y-73982415D01*
X120374919Y-74016051D01*
X120367814Y-74055184D01*
X120367813Y-74055194D01*
X120363470Y-74102350D01*
X120362291Y-74148598D01*
X120358654Y-74156781D01*
X120350595Y-74160000D01*
X120173405Y-74160000D01*
X120165132Y-74156573D01*
X120161709Y-74148599D01*
X120160528Y-74102350D01*
X120160528Y-74102340D01*
X120156186Y-74055195D01*
X120149080Y-74016055D01*
X120139319Y-73982416D01*
X120127010Y-73951769D01*
X120112262Y-73921607D01*
X120095182Y-73889423D01*
X120075948Y-73852843D01*
X120075800Y-73852551D01*
X120054555Y-73809160D01*
X120054377Y-73808778D01*
X120035822Y-73766573D01*
X120035631Y-73757621D01*
X120041825Y-73751154D01*
X120041962Y-73751095D01*
X120257484Y-73660889D01*
X120266437Y-73660857D01*
X120481982Y-73751072D01*
G37*
G04 #@! TD.AperFunction*
G04 #@! TA.AperFunction,Conductor*
G36*
X127221447Y-90973427D02*
G01*
X127224424Y-90978486D01*
X127252010Y-91075044D01*
X127281978Y-91175450D01*
X127281996Y-91175507D01*
X127282000Y-91175521D01*
X127311999Y-91271531D01*
X127342000Y-91363042D01*
X127372000Y-91450053D01*
X127395389Y-91514380D01*
X127402014Y-91532602D01*
X127431983Y-91610533D01*
X127462002Y-91684090D01*
X127492000Y-91753094D01*
X127518317Y-91809686D01*
X127518698Y-91818633D01*
X127515455Y-91823388D01*
X127129747Y-92164155D01*
X127121278Y-92167065D01*
X127114253Y-92164155D01*
X126892441Y-91968188D01*
X126728543Y-91823387D01*
X126724613Y-91815342D01*
X126725681Y-91809689D01*
X126752000Y-91753095D01*
X126782000Y-91684084D01*
X126811999Y-91610574D01*
X126842000Y-91532563D01*
X126872000Y-91450053D01*
X126902000Y-91363042D01*
X126932000Y-91271531D01*
X126962000Y-91175521D01*
X126962010Y-91175485D01*
X126962022Y-91175449D01*
X126973241Y-91137857D01*
X126992000Y-91075010D01*
X127019576Y-90978486D01*
X127025144Y-90971472D01*
X127030826Y-90970000D01*
X127213174Y-90970000D01*
X127221447Y-90973427D01*
G37*
G04 #@! TD.AperFunction*
G04 #@! TA.AperFunction,Conductor*
G36*
X165990800Y-80965240D02*
G01*
X165993971Y-80971079D01*
X166052809Y-81247709D01*
X166113642Y-81524335D01*
X166174466Y-81791540D01*
X166235262Y-82049258D01*
X166296080Y-82297690D01*
X166356922Y-82536844D01*
X166417732Y-82766495D01*
X166478546Y-82986790D01*
X166539367Y-83197734D01*
X166597319Y-83389792D01*
X166596428Y-83398703D01*
X166591278Y-83403673D01*
X165747160Y-83818464D01*
X165738224Y-83819037D01*
X165736840Y-83818464D01*
X164892721Y-83403673D01*
X164886807Y-83396948D01*
X164886680Y-83389794D01*
X164944631Y-83197735D01*
X165005450Y-82986799D01*
X165066269Y-82766488D01*
X165127087Y-82536802D01*
X165187906Y-82297742D01*
X165248725Y-82049306D01*
X165248737Y-82049258D01*
X165309532Y-81791540D01*
X165309543Y-81791495D01*
X165370362Y-81524309D01*
X165431181Y-81247748D01*
X165431190Y-81247709D01*
X165490029Y-80971079D01*
X165495102Y-80963700D01*
X165501473Y-80961813D01*
X165982527Y-80961813D01*
X165990800Y-80965240D01*
G37*
G04 #@! TD.AperFunction*
G04 #@! TA.AperFunction,Conductor*
G36*
X123738495Y-68293329D02*
G01*
X123771005Y-68308518D01*
X123803670Y-68323780D01*
X123842052Y-68340049D01*
X123872922Y-68353134D01*
X123942182Y-68379492D01*
X123942192Y-68379495D01*
X123942199Y-68379498D01*
X124011429Y-68402846D01*
X124011441Y-68402850D01*
X124048434Y-68413724D01*
X124080703Y-68423210D01*
X124149968Y-68440569D01*
X124194474Y-68449795D01*
X124219220Y-68454925D01*
X124288480Y-68466283D01*
X124357740Y-68474641D01*
X124357744Y-68474641D01*
X124357750Y-68474642D01*
X124375870Y-68476043D01*
X124416203Y-68479164D01*
X124424187Y-68483219D01*
X124427000Y-68490829D01*
X124427000Y-68669170D01*
X124423573Y-68677443D01*
X124416202Y-68680835D01*
X124357750Y-68685356D01*
X124288476Y-68693716D01*
X124219207Y-68705076D01*
X124149968Y-68719429D01*
X124080703Y-68736789D01*
X124011429Y-68757152D01*
X123942199Y-68780500D01*
X123872909Y-68806870D01*
X123803670Y-68836218D01*
X123738496Y-68866669D01*
X123730087Y-68867247D01*
X123055153Y-68658577D01*
X122837153Y-68591177D01*
X122830262Y-68585460D01*
X122829432Y-68576544D01*
X122835150Y-68569652D01*
X122837152Y-68568822D01*
X123730088Y-68292752D01*
X123738495Y-68293329D01*
G37*
G04 #@! TD.AperFunction*
G04 #@! TA.AperFunction,Conductor*
G36*
X168501982Y-66519072D02*
G01*
X168508291Y-66525428D01*
X168508258Y-66534382D01*
X168508176Y-66534574D01*
X168489633Y-66576752D01*
X168489430Y-66577188D01*
X168468198Y-66620551D01*
X168468046Y-66620851D01*
X168448838Y-66657383D01*
X168448817Y-66657423D01*
X168431732Y-66689614D01*
X168416986Y-66719772D01*
X168416980Y-66719786D01*
X168404683Y-66750405D01*
X168404680Y-66750415D01*
X168394919Y-66784051D01*
X168387814Y-66823184D01*
X168387813Y-66823194D01*
X168383470Y-66870350D01*
X168382291Y-66916598D01*
X168378654Y-66924781D01*
X168370595Y-66928000D01*
X168193405Y-66928000D01*
X168185132Y-66924573D01*
X168181709Y-66916599D01*
X168180528Y-66870350D01*
X168180528Y-66870340D01*
X168176186Y-66823195D01*
X168169080Y-66784055D01*
X168159319Y-66750416D01*
X168147010Y-66719769D01*
X168132262Y-66689607D01*
X168115182Y-66657423D01*
X168095948Y-66620843D01*
X168095800Y-66620551D01*
X168074555Y-66577160D01*
X168074377Y-66576778D01*
X168055822Y-66534573D01*
X168055631Y-66525621D01*
X168061825Y-66519154D01*
X168061962Y-66519095D01*
X168277484Y-66428889D01*
X168286437Y-66428857D01*
X168501982Y-66519072D01*
G37*
G04 #@! TD.AperFunction*
G04 #@! TA.AperFunction,Conductor*
G36*
X131085356Y-83499227D02*
G01*
X131091681Y-83505566D01*
X131091715Y-83505648D01*
X131200945Y-83775927D01*
X131200997Y-83776058D01*
X131292865Y-84011501D01*
X131371201Y-84210806D01*
X131444202Y-84383464D01*
X131520088Y-84539033D01*
X131520092Y-84539039D01*
X131520093Y-84539042D01*
X131607081Y-84687068D01*
X131696779Y-84813665D01*
X131713408Y-84837134D01*
X131760805Y-84894363D01*
X131847270Y-84998765D01*
X131847279Y-84998775D01*
X131847285Y-84998782D01*
X131893002Y-85048040D01*
X132016942Y-85181580D01*
X132222415Y-85386901D01*
X132225845Y-85395173D01*
X132222529Y-85403338D01*
X131889922Y-85745064D01*
X131881696Y-85748602D01*
X131873462Y-85745369D01*
X131873142Y-85745064D01*
X131662578Y-85544211D01*
X131496606Y-85395173D01*
X131476330Y-85376965D01*
X131476323Y-85376959D01*
X131476313Y-85376950D01*
X131313069Y-85243732D01*
X131162881Y-85136720D01*
X131162863Y-85136708D01*
X131015737Y-85048045D01*
X131015732Y-85048042D01*
X131015728Y-85048040D01*
X130861673Y-84969873D01*
X130861671Y-84969872D01*
X130861663Y-84969868D01*
X130690729Y-84894363D01*
X130492914Y-84813665D01*
X130258266Y-84719937D01*
X130258194Y-84719908D01*
X130177541Y-84687068D01*
X129987607Y-84609731D01*
X129981238Y-84603438D01*
X129981184Y-84594484D01*
X130299429Y-83823793D01*
X130305752Y-83817457D01*
X131076403Y-83499218D01*
X131085356Y-83499227D01*
G37*
G04 #@! TD.AperFunction*
G04 #@! TA.AperFunction,Conductor*
G36*
X168378823Y-106561427D02*
G01*
X168382247Y-106569447D01*
X168388052Y-106838017D01*
X168388052Y-106838025D01*
X168406176Y-107067652D01*
X168406178Y-107067673D01*
X168436305Y-107258850D01*
X168436310Y-107258874D01*
X168478390Y-107423688D01*
X168532368Y-107574144D01*
X168532371Y-107574152D01*
X168598185Y-107722262D01*
X168675758Y-107879999D01*
X168675759Y-107879999D01*
X168765026Y-108059369D01*
X168765125Y-108059573D01*
X168865968Y-108272456D01*
X168866123Y-108272799D01*
X168973862Y-108520551D01*
X168974019Y-108529505D01*
X168967799Y-108535946D01*
X168967624Y-108536021D01*
X168286491Y-108819133D01*
X168277536Y-108819144D01*
X168277509Y-108819133D01*
X167596375Y-108536021D01*
X167590051Y-108529681D01*
X167590062Y-108520726D01*
X167590095Y-108520646D01*
X167697888Y-108272769D01*
X167698019Y-108272480D01*
X167798883Y-108059550D01*
X167798972Y-108059369D01*
X167888240Y-107879999D01*
X167965816Y-107722257D01*
X168031628Y-107574153D01*
X168085605Y-107423695D01*
X168127690Y-107258866D01*
X168157823Y-107067652D01*
X168175946Y-106838035D01*
X168181753Y-106569447D01*
X168185358Y-106561250D01*
X168193450Y-106558000D01*
X168370550Y-106558000D01*
X168378823Y-106561427D01*
G37*
G04 #@! TD.AperFunction*
G04 #@! TA.AperFunction,Conductor*
G36*
X161381447Y-90973427D02*
G01*
X161384424Y-90978486D01*
X161412010Y-91075044D01*
X161441978Y-91175449D01*
X161441989Y-91175485D01*
X161442000Y-91175521D01*
X161472000Y-91271531D01*
X161502000Y-91363042D01*
X161532000Y-91450053D01*
X161555389Y-91514380D01*
X161562014Y-91532602D01*
X161591983Y-91610533D01*
X161622002Y-91684090D01*
X161652000Y-91753094D01*
X161678317Y-91809686D01*
X161678698Y-91818633D01*
X161675455Y-91823388D01*
X161289747Y-92164155D01*
X161281278Y-92167065D01*
X161274253Y-92164155D01*
X161052441Y-91968188D01*
X160888543Y-91823387D01*
X160884613Y-91815342D01*
X160885681Y-91809689D01*
X160912000Y-91753095D01*
X160942000Y-91684084D01*
X160972000Y-91610574D01*
X161002000Y-91532563D01*
X161032000Y-91450053D01*
X161062000Y-91363042D01*
X161092000Y-91271531D01*
X161122000Y-91175521D01*
X161122010Y-91175485D01*
X161122022Y-91175449D01*
X161133241Y-91137857D01*
X161152000Y-91075010D01*
X161179576Y-90978486D01*
X161185144Y-90971472D01*
X161190826Y-90970000D01*
X161373174Y-90970000D01*
X161381447Y-90973427D01*
G37*
G04 #@! TD.AperFunction*
G04 #@! TA.AperFunction,Conductor*
G36*
X169868087Y-66025913D02*
G01*
X169953252Y-66037956D01*
X169960964Y-66042508D01*
X169963292Y-66048824D01*
X169980455Y-66328274D01*
X169977542Y-66336741D01*
X169969494Y-66340669D01*
X169969446Y-66340672D01*
X169922845Y-66343342D01*
X169844189Y-66347849D01*
X169844158Y-66347850D01*
X169844157Y-66347851D01*
X169707233Y-66356445D01*
X169707202Y-66356448D01*
X169623100Y-66362187D01*
X169570185Y-66365799D01*
X169570184Y-66365798D01*
X169433209Y-66375898D01*
X169296275Y-66386743D01*
X169159288Y-66398341D01*
X169159289Y-66398342D01*
X169110053Y-66402780D01*
X169022270Y-66410695D01*
X169022239Y-66410698D01*
X168885315Y-66423790D01*
X168885284Y-66423794D01*
X168748297Y-66437643D01*
X168748265Y-66437646D01*
X168616870Y-66451650D01*
X168608280Y-66449119D01*
X168607357Y-66448289D01*
X168272347Y-66113279D01*
X168268920Y-66105006D01*
X168272347Y-66096733D01*
X168277765Y-66093660D01*
X168325681Y-66081620D01*
X168393605Y-66063801D01*
X168461529Y-66045232D01*
X168529454Y-66025913D01*
X168597378Y-66005844D01*
X168597392Y-66005839D01*
X168597435Y-66005827D01*
X168623103Y-65997959D01*
X168665302Y-65985025D01*
X168733227Y-65963456D01*
X168733240Y-65963452D01*
X168753726Y-65956719D01*
X168801151Y-65941137D01*
X168869075Y-65918068D01*
X168934314Y-65895191D01*
X168939816Y-65894648D01*
X169868087Y-66025913D01*
G37*
G04 #@! TD.AperFunction*
G04 #@! TA.AperFunction,Conductor*
G36*
X170898495Y-69563329D02*
G01*
X170931005Y-69578518D01*
X170963670Y-69593780D01*
X171002052Y-69610049D01*
X171032922Y-69623134D01*
X171102182Y-69649492D01*
X171102192Y-69649495D01*
X171102199Y-69649498D01*
X171171429Y-69672846D01*
X171171441Y-69672850D01*
X171208434Y-69683724D01*
X171240703Y-69693210D01*
X171309968Y-69710569D01*
X171354474Y-69719795D01*
X171379220Y-69724925D01*
X171448480Y-69736283D01*
X171517740Y-69744641D01*
X171517744Y-69744641D01*
X171517750Y-69744642D01*
X171535870Y-69746043D01*
X171576203Y-69749164D01*
X171584187Y-69753219D01*
X171587000Y-69760829D01*
X171587000Y-69939170D01*
X171583573Y-69947443D01*
X171576202Y-69950835D01*
X171517750Y-69955356D01*
X171448476Y-69963716D01*
X171379207Y-69975076D01*
X171309968Y-69989429D01*
X171240703Y-70006789D01*
X171171429Y-70027152D01*
X171102199Y-70050500D01*
X171032909Y-70076870D01*
X170963670Y-70106218D01*
X170898496Y-70136669D01*
X170890087Y-70137247D01*
X170215153Y-69928577D01*
X169997153Y-69861177D01*
X169990262Y-69855460D01*
X169989432Y-69846544D01*
X169995150Y-69839652D01*
X169997152Y-69838822D01*
X170890088Y-69562752D01*
X170898495Y-69563329D01*
G37*
G04 #@! TD.AperFunction*
G04 #@! TA.AperFunction,Conductor*
G36*
X114521298Y-65848379D02*
G01*
X114581327Y-65866577D01*
X114590135Y-65869248D01*
X114661716Y-65890199D01*
X114661748Y-65890208D01*
X114733241Y-65910385D01*
X114733290Y-65910398D01*
X114733296Y-65910400D01*
X114804877Y-65929851D01*
X114804931Y-65929865D01*
X114876402Y-65948538D01*
X114876458Y-65948552D01*
X114948038Y-65966503D01*
X115019619Y-65983704D01*
X115091199Y-66000155D01*
X115091256Y-66000168D01*
X115162743Y-66015848D01*
X115162754Y-66015850D01*
X115162780Y-66015856D01*
X115213178Y-66026383D01*
X115220576Y-66031429D01*
X115222239Y-66040228D01*
X115219059Y-66046109D01*
X114884510Y-66380658D01*
X114876237Y-66384085D01*
X114875580Y-66384067D01*
X114741893Y-66376549D01*
X114741861Y-66376547D01*
X114602971Y-66369487D01*
X114464094Y-66363178D01*
X114464063Y-66363177D01*
X114325149Y-66357616D01*
X114325117Y-66357614D01*
X114200724Y-66353306D01*
X114186234Y-66352805D01*
X114173976Y-66352446D01*
X114047350Y-66348744D01*
X114047319Y-66348744D01*
X113908405Y-66345433D01*
X113908373Y-66345432D01*
X113769488Y-66342871D01*
X113630607Y-66341061D01*
X113630575Y-66341061D01*
X113557810Y-66340505D01*
X113503649Y-66340091D01*
X113495402Y-66336601D01*
X113492038Y-66328302D01*
X113492042Y-66328093D01*
X113500992Y-66048674D01*
X113504682Y-66040517D01*
X113510515Y-66037554D01*
X114515737Y-65848078D01*
X114521298Y-65848379D01*
G37*
G04 #@! TD.AperFunction*
G04 #@! TA.AperFunction,Conductor*
G36*
X120268669Y-83820913D02*
G01*
X121127954Y-84067405D01*
X121134961Y-84072979D01*
X121136403Y-84079392D01*
X121123999Y-84274695D01*
X121111000Y-84488717D01*
X121111001Y-84488718D01*
X121098000Y-84712145D01*
X121098000Y-84712160D01*
X121097997Y-84712211D01*
X121084999Y-84944976D01*
X121071999Y-85187153D01*
X121058999Y-85438683D01*
X121058999Y-85438695D01*
X121045999Y-85699624D01*
X121045999Y-85699634D01*
X121045998Y-85699633D01*
X121032998Y-85969916D01*
X121032999Y-85969917D01*
X121019998Y-86249597D01*
X121019999Y-86249598D01*
X121007502Y-86527486D01*
X121003707Y-86535596D01*
X120995814Y-86538660D01*
X120514888Y-86538660D01*
X120506615Y-86535233D01*
X120504042Y-86531347D01*
X120409764Y-86298262D01*
X120409758Y-86298249D01*
X120409746Y-86298218D01*
X120312492Y-86067152D01*
X120215239Y-85845461D01*
X120191063Y-85792683D01*
X120117990Y-85633154D01*
X120020746Y-85430233D01*
X120020743Y-85430228D01*
X120020732Y-85430204D01*
X119923478Y-85236638D01*
X119897344Y-85187142D01*
X119826224Y-85052446D01*
X119728968Y-84877626D01*
X119631730Y-84712211D01*
X119631698Y-84712160D01*
X119539345Y-84563958D01*
X119537879Y-84555125D01*
X119540947Y-84549555D01*
X120257124Y-83823940D01*
X120265372Y-83820460D01*
X120268669Y-83820913D01*
G37*
G04 #@! TD.AperFunction*
G04 #@! TA.AperFunction,Conductor*
G36*
X159156132Y-67136285D02*
G01*
X159157323Y-67137325D01*
X159493715Y-67473717D01*
X159497142Y-67481990D01*
X159493715Y-67490263D01*
X159489387Y-67493005D01*
X159414727Y-67519741D01*
X159322646Y-67555718D01*
X159230624Y-67594671D01*
X159138564Y-67636640D01*
X159046499Y-67681611D01*
X158954459Y-67729569D01*
X158862383Y-67780549D01*
X158770363Y-67834494D01*
X158678274Y-67891482D01*
X158593547Y-67946677D01*
X158584745Y-67948322D01*
X158579589Y-67945794D01*
X158164833Y-67593712D01*
X158160777Y-67586091D01*
X158153366Y-67519741D01*
X158112597Y-67154719D01*
X158115085Y-67146116D01*
X158122926Y-67141792D01*
X158125649Y-67141807D01*
X158198405Y-67150758D01*
X158215178Y-67152822D01*
X158319394Y-67162643D01*
X158319398Y-67162643D01*
X158319406Y-67162644D01*
X158423633Y-67169467D01*
X158527860Y-67173289D01*
X158632087Y-67174112D01*
X158688455Y-67172934D01*
X158736283Y-67171935D01*
X158736295Y-67171934D01*
X158736314Y-67171934D01*
X158840541Y-67166756D01*
X158944768Y-67158579D01*
X159048995Y-67147401D01*
X159147475Y-67134005D01*
X159156132Y-67136285D01*
G37*
G04 #@! TD.AperFunction*
G04 #@! TA.AperFunction,Conductor*
G36*
X115281192Y-80965240D02*
G01*
X115284252Y-80970609D01*
X115357818Y-81257873D01*
X115433637Y-81542309D01*
X115477051Y-81698523D01*
X115509463Y-81815147D01*
X115585267Y-82076285D01*
X115661093Y-82325867D01*
X115736912Y-82563802D01*
X115785480Y-82708774D01*
X115812737Y-82790135D01*
X115888539Y-83004771D01*
X115964373Y-83207873D01*
X116036208Y-83389251D01*
X116036068Y-83398205D01*
X116030490Y-83404060D01*
X115187160Y-83818464D01*
X115178224Y-83819037D01*
X115176840Y-83818464D01*
X114333509Y-83404060D01*
X114327595Y-83397335D01*
X114327791Y-83389251D01*
X114399631Y-83207860D01*
X114475450Y-83004799D01*
X114551269Y-82790113D01*
X114627087Y-82563802D01*
X114702906Y-82325867D01*
X114778725Y-82076306D01*
X114854543Y-81815120D01*
X114930362Y-81542309D01*
X115006181Y-81257873D01*
X115079747Y-80970609D01*
X115085119Y-80963446D01*
X115091081Y-80961813D01*
X115272919Y-80961813D01*
X115281192Y-80965240D01*
G37*
G04 #@! TD.AperFunction*
G04 #@! TA.AperFunction,Conductor*
G36*
X160668669Y-83820913D02*
G01*
X161527954Y-84067405D01*
X161534961Y-84072979D01*
X161536403Y-84079392D01*
X161523999Y-84274695D01*
X161511000Y-84488717D01*
X161511001Y-84488718D01*
X161498000Y-84712145D01*
X161498000Y-84712160D01*
X161497997Y-84712211D01*
X161484999Y-84944976D01*
X161471999Y-85187153D01*
X161458999Y-85438683D01*
X161458999Y-85438695D01*
X161445999Y-85699624D01*
X161445999Y-85699634D01*
X161445998Y-85699633D01*
X161432998Y-85969916D01*
X161432999Y-85969917D01*
X161419998Y-86249597D01*
X161419999Y-86249598D01*
X161407502Y-86527486D01*
X161403707Y-86535596D01*
X161395814Y-86538660D01*
X160914888Y-86538660D01*
X160906615Y-86535233D01*
X160904042Y-86531347D01*
X160809764Y-86298262D01*
X160809758Y-86298249D01*
X160809746Y-86298218D01*
X160712492Y-86067152D01*
X160615239Y-85845461D01*
X160591063Y-85792683D01*
X160517990Y-85633154D01*
X160420746Y-85430233D01*
X160420743Y-85430228D01*
X160420732Y-85430204D01*
X160323478Y-85236638D01*
X160297344Y-85187142D01*
X160226224Y-85052446D01*
X160128968Y-84877626D01*
X160031730Y-84712211D01*
X160031698Y-84712160D01*
X159939345Y-84563958D01*
X159937879Y-84555125D01*
X159940947Y-84549555D01*
X160657124Y-83823940D01*
X160665372Y-83820460D01*
X160668669Y-83820913D01*
G37*
G04 #@! TD.AperFunction*
G04 #@! TA.AperFunction,Conductor*
G36*
X112674257Y-68323776D02*
G01*
X113466845Y-68568822D01*
X113473737Y-68574540D01*
X113474567Y-68583456D01*
X113468849Y-68590348D01*
X113466845Y-68591178D01*
X112573912Y-68867247D01*
X112565503Y-68866669D01*
X112500328Y-68836218D01*
X112431089Y-68806870D01*
X112431087Y-68806869D01*
X112431077Y-68806865D01*
X112361817Y-68780507D01*
X112361799Y-68780500D01*
X112292569Y-68757152D01*
X112223295Y-68736789D01*
X112154030Y-68719429D01*
X112084791Y-68705076D01*
X112015522Y-68693716D01*
X111946248Y-68685356D01*
X111887798Y-68680835D01*
X111879813Y-68676780D01*
X111877000Y-68669170D01*
X111877000Y-68490829D01*
X111880427Y-68482556D01*
X111887796Y-68479164D01*
X111932660Y-68475693D01*
X111946248Y-68474642D01*
X111946251Y-68474641D01*
X111946259Y-68474641D01*
X112015519Y-68466283D01*
X112084779Y-68454925D01*
X112126334Y-68446310D01*
X112154030Y-68440569D01*
X112223295Y-68423210D01*
X112232546Y-68420490D01*
X112292558Y-68402850D01*
X112361817Y-68379492D01*
X112431077Y-68353134D01*
X112500337Y-68323776D01*
X112565504Y-68293329D01*
X112573912Y-68292752D01*
X112674257Y-68323776D01*
G37*
G04 #@! TD.AperFunction*
G04 #@! TA.AperFunction,Conductor*
G36*
X166485284Y-85448427D02*
G01*
X166488566Y-85454866D01*
X166506996Y-85570978D01*
X166507000Y-85571000D01*
X166527000Y-85694000D01*
X166547000Y-85814000D01*
X166567000Y-85931000D01*
X166587000Y-86045000D01*
X166606999Y-86156000D01*
X166607004Y-86156028D01*
X166607003Y-86156028D01*
X166626993Y-86263971D01*
X166646993Y-86368969D01*
X166666992Y-86470967D01*
X166685308Y-86561626D01*
X166683588Y-86570414D01*
X166679539Y-86574161D01*
X166242699Y-86817821D01*
X166233805Y-86818858D01*
X166231301Y-86817821D01*
X165794460Y-86574161D01*
X165788904Y-86567138D01*
X165788691Y-86561628D01*
X165807000Y-86471000D01*
X165807007Y-86470967D01*
X165827006Y-86368969D01*
X165847006Y-86263971D01*
X165866995Y-86156028D01*
X165867985Y-86150530D01*
X165887000Y-86045000D01*
X165906999Y-85931000D01*
X165926999Y-85814000D01*
X165946999Y-85694000D01*
X165966999Y-85571000D01*
X165967003Y-85570978D01*
X165985434Y-85454866D01*
X165990115Y-85447232D01*
X165996989Y-85445000D01*
X166477011Y-85445000D01*
X166485284Y-85448427D01*
G37*
G04 #@! TD.AperFunction*
G04 #@! TA.AperFunction,Conductor*
G36*
X169089482Y-73360850D02*
G01*
X169930678Y-73648931D01*
X169937394Y-73654854D01*
X169937956Y-73663791D01*
X169932033Y-73670507D01*
X169930678Y-73671069D01*
X169089482Y-73959149D01*
X169084393Y-73959708D01*
X169011973Y-73951621D01*
X168936988Y-73943997D01*
X168861994Y-73937123D01*
X168787010Y-73930999D01*
X168724062Y-73926489D01*
X168712000Y-73925625D01*
X168637000Y-73921000D01*
X168636942Y-73920997D01*
X168562053Y-73917127D01*
X168524512Y-73915563D01*
X168487000Y-73914000D01*
X168486979Y-73913999D01*
X168486971Y-73913999D01*
X168411990Y-73911624D01*
X168348446Y-73910247D01*
X168340249Y-73906642D01*
X168337000Y-73898550D01*
X168337000Y-73421448D01*
X168340427Y-73413175D01*
X168348444Y-73409751D01*
X168412000Y-73408374D01*
X168487000Y-73405999D01*
X168562000Y-73402874D01*
X168637000Y-73398999D01*
X168712000Y-73394375D01*
X168787000Y-73389000D01*
X168862000Y-73382875D01*
X168937000Y-73376000D01*
X169012000Y-73368375D01*
X169084393Y-73360291D01*
X169089482Y-73360850D01*
G37*
G04 #@! TD.AperFunction*
G04 #@! TA.AperFunction,Conductor*
G36*
X163204221Y-83821926D02*
G01*
X163206875Y-83823940D01*
X163923050Y-84549552D01*
X163926423Y-84557848D01*
X163924653Y-84563959D01*
X163832268Y-84712211D01*
X163735030Y-84877626D01*
X163637774Y-85052446D01*
X163540537Y-85236606D01*
X163443253Y-85430233D01*
X163346008Y-85633154D01*
X163248757Y-85845466D01*
X163151526Y-86067106D01*
X163054234Y-86298262D01*
X162959958Y-86531347D01*
X162953679Y-86537732D01*
X162949112Y-86538660D01*
X162468185Y-86538660D01*
X162459912Y-86535233D01*
X162456497Y-86527486D01*
X162444000Y-86249598D01*
X162444000Y-86249597D01*
X162431000Y-85969917D01*
X162431000Y-85969916D01*
X162418000Y-85699633D01*
X162418000Y-85699624D01*
X162405000Y-85438695D01*
X162394558Y-85236638D01*
X162392001Y-85187153D01*
X162379000Y-84944976D01*
X162366002Y-84712211D01*
X162365999Y-84712160D01*
X162352999Y-84488732D01*
X162351903Y-84470685D01*
X162340001Y-84274695D01*
X162327596Y-84079392D01*
X162330491Y-84070918D01*
X162336042Y-84067405D01*
X163195326Y-83820914D01*
X163204221Y-83821926D01*
G37*
G04 #@! TD.AperFunction*
G04 #@! TA.AperFunction,Conductor*
G36*
X168501982Y-73751072D02*
G01*
X168508291Y-73757428D01*
X168508258Y-73766382D01*
X168508176Y-73766574D01*
X168489633Y-73808752D01*
X168489430Y-73809188D01*
X168468198Y-73852551D01*
X168468046Y-73852851D01*
X168448838Y-73889383D01*
X168448817Y-73889423D01*
X168431732Y-73921614D01*
X168416986Y-73951772D01*
X168416980Y-73951786D01*
X168404683Y-73982405D01*
X168404680Y-73982415D01*
X168394919Y-74016051D01*
X168387814Y-74055184D01*
X168387813Y-74055194D01*
X168383470Y-74102350D01*
X168382291Y-74148598D01*
X168378654Y-74156781D01*
X168370595Y-74160000D01*
X168193405Y-74160000D01*
X168185132Y-74156573D01*
X168181709Y-74148599D01*
X168180528Y-74102350D01*
X168180528Y-74102340D01*
X168176186Y-74055195D01*
X168169080Y-74016055D01*
X168159319Y-73982416D01*
X168147010Y-73951769D01*
X168132262Y-73921607D01*
X168115182Y-73889423D01*
X168095948Y-73852843D01*
X168095800Y-73852551D01*
X168074555Y-73809160D01*
X168074377Y-73808778D01*
X168055822Y-73766573D01*
X168055631Y-73757621D01*
X168061825Y-73751154D01*
X168061962Y-73751095D01*
X168277484Y-73660889D01*
X168286437Y-73660857D01*
X168501982Y-73751072D01*
G37*
G04 #@! TD.AperFunction*
G04 #@! TA.AperFunction,Conductor*
G36*
X134023963Y-88523427D02*
G01*
X134027383Y-88531303D01*
X134028398Y-88561222D01*
X134028399Y-88561236D01*
X134032200Y-88594997D01*
X134032200Y-88594998D01*
X134037797Y-88623113D01*
X134044601Y-88647501D01*
X134052000Y-88670000D01*
X134059313Y-88692237D01*
X134059469Y-88692749D01*
X134066079Y-88716450D01*
X134066284Y-88717308D01*
X134071703Y-88744517D01*
X134071855Y-88745493D01*
X134075549Y-88778307D01*
X134075615Y-88779219D01*
X134076590Y-88807943D01*
X134073446Y-88816328D01*
X134065294Y-88820033D01*
X134064936Y-88820040D01*
X133777039Y-88820999D01*
X133776961Y-88820999D01*
X133489063Y-88820040D01*
X133480801Y-88816586D01*
X133477402Y-88808301D01*
X133477409Y-88807943D01*
X133478384Y-88779219D01*
X133478450Y-88778307D01*
X133482145Y-88745490D01*
X133482297Y-88744515D01*
X133487717Y-88717289D01*
X133487910Y-88716480D01*
X133494540Y-88692714D01*
X133494677Y-88692265D01*
X133502000Y-88670000D01*
X133509400Y-88647497D01*
X133516199Y-88623121D01*
X133521800Y-88594995D01*
X133525600Y-88561246D01*
X133525601Y-88561222D01*
X133526617Y-88531303D01*
X133530322Y-88523151D01*
X133538310Y-88520000D01*
X134015690Y-88520000D01*
X134023963Y-88523427D01*
G37*
G04 #@! TD.AperFunction*
G04 #@! TA.AperFunction,Conductor*
G36*
X123629746Y-93825843D02*
G01*
X124015455Y-94166611D01*
X124019386Y-94174656D01*
X124018317Y-94180312D01*
X123992000Y-94236903D01*
X123962002Y-94305907D01*
X123931982Y-94379465D01*
X123902014Y-94457395D01*
X123882015Y-94512399D01*
X123872000Y-94539946D01*
X123842000Y-94626957D01*
X123812000Y-94718467D01*
X123782001Y-94814477D01*
X123781978Y-94814550D01*
X123752019Y-94914923D01*
X123724424Y-95011514D01*
X123718856Y-95018528D01*
X123713174Y-95020000D01*
X123530826Y-95020000D01*
X123522553Y-95016573D01*
X123519576Y-95011514D01*
X123491981Y-94914923D01*
X123462000Y-94814477D01*
X123453662Y-94787795D01*
X123431999Y-94718467D01*
X123402000Y-94626957D01*
X123372000Y-94539946D01*
X123342000Y-94457435D01*
X123341985Y-94457395D01*
X123312010Y-94379449D01*
X123281997Y-94305907D01*
X123280760Y-94303062D01*
X123252000Y-94236903D01*
X123225681Y-94180310D01*
X123225301Y-94171365D01*
X123228541Y-94166613D01*
X123614253Y-93825843D01*
X123622722Y-93822934D01*
X123629746Y-93825843D01*
G37*
G04 #@! TD.AperFunction*
G04 #@! TA.AperFunction,Conductor*
G36*
X161612000Y-67018375D02*
G01*
X161687000Y-67026000D01*
X161762000Y-67032875D01*
X161837000Y-67039000D01*
X161912000Y-67044375D01*
X161987000Y-67048999D01*
X162062000Y-67052874D01*
X162137000Y-67055999D01*
X162212000Y-67058374D01*
X162275554Y-67059751D01*
X162283750Y-67063356D01*
X162287000Y-67071448D01*
X162287000Y-67548550D01*
X162283573Y-67556823D01*
X162275554Y-67560247D01*
X162212009Y-67561624D01*
X162137028Y-67563999D01*
X162137016Y-67563999D01*
X162137000Y-67564000D01*
X162106995Y-67565250D01*
X162061946Y-67567127D01*
X161987058Y-67570997D01*
X161987000Y-67571000D01*
X161912000Y-67575625D01*
X161906231Y-67576038D01*
X161836989Y-67580999D01*
X161762005Y-67587123D01*
X161687011Y-67593997D01*
X161612026Y-67601621D01*
X161539606Y-67609708D01*
X161534517Y-67609149D01*
X160693321Y-67321069D01*
X160686605Y-67315146D01*
X160686043Y-67306209D01*
X160691966Y-67299493D01*
X160693321Y-67298931D01*
X161534518Y-67010849D01*
X161539606Y-67010291D01*
X161612000Y-67018375D01*
G37*
G04 #@! TD.AperFunction*
G04 #@! TA.AperFunction,Conductor*
G36*
X123738495Y-72103329D02*
G01*
X123771005Y-72118518D01*
X123803670Y-72133780D01*
X123842052Y-72150049D01*
X123872922Y-72163134D01*
X123942182Y-72189492D01*
X123942192Y-72189495D01*
X123942199Y-72189498D01*
X124011429Y-72212846D01*
X124011441Y-72212850D01*
X124048434Y-72223724D01*
X124080703Y-72233210D01*
X124149968Y-72250569D01*
X124194474Y-72259795D01*
X124219220Y-72264925D01*
X124288480Y-72276283D01*
X124357740Y-72284641D01*
X124357744Y-72284641D01*
X124357750Y-72284642D01*
X124375870Y-72286043D01*
X124416203Y-72289164D01*
X124424187Y-72293219D01*
X124427000Y-72300829D01*
X124427000Y-72479170D01*
X124423573Y-72487443D01*
X124416202Y-72490835D01*
X124357750Y-72495356D01*
X124288476Y-72503716D01*
X124219207Y-72515076D01*
X124149968Y-72529429D01*
X124080703Y-72546789D01*
X124011429Y-72567152D01*
X123942199Y-72590500D01*
X123872909Y-72616870D01*
X123803670Y-72646218D01*
X123738496Y-72676669D01*
X123730087Y-72677247D01*
X123055153Y-72468577D01*
X122837153Y-72401177D01*
X122830262Y-72395460D01*
X122829432Y-72386544D01*
X122835150Y-72379652D01*
X122837152Y-72378822D01*
X123730088Y-72102752D01*
X123738495Y-72103329D01*
G37*
G04 #@! TD.AperFunction*
G04 #@! TA.AperFunction,Conductor*
G36*
X134065206Y-87819960D02*
G01*
X134073467Y-87823414D01*
X134076866Y-87831699D01*
X134076865Y-87831794D01*
X134075601Y-87942375D01*
X134075594Y-87942681D01*
X134071805Y-88043258D01*
X134071787Y-88043591D01*
X134066211Y-88127790D01*
X134066188Y-88128091D01*
X134059406Y-88201627D01*
X134059387Y-88201813D01*
X134052000Y-88269999D01*
X134044603Y-88338270D01*
X134037796Y-88412059D01*
X134032201Y-88496573D01*
X134032200Y-88496600D01*
X134028400Y-88597450D01*
X134028400Y-88597470D01*
X134027132Y-88708434D01*
X134023611Y-88716667D01*
X134015433Y-88720000D01*
X133538567Y-88720000D01*
X133530294Y-88716573D01*
X133526868Y-88708434D01*
X133526747Y-88697894D01*
X133525600Y-88597450D01*
X133521800Y-88496600D01*
X133516199Y-88412024D01*
X133509400Y-88338299D01*
X133502000Y-88269999D01*
X133494612Y-88201813D01*
X133494594Y-88201634D01*
X133494593Y-88201627D01*
X133487806Y-88128051D01*
X133487790Y-88127849D01*
X133482208Y-88043532D01*
X133482196Y-88043299D01*
X133478405Y-87942681D01*
X133478398Y-87942375D01*
X133477134Y-87831792D01*
X133480466Y-87823482D01*
X133488698Y-87819961D01*
X133777000Y-87819000D01*
X134065206Y-87819960D01*
G37*
G04 #@! TD.AperFunction*
G04 #@! TA.AperFunction,Conductor*
G36*
X172880403Y-67161902D02*
G01*
X172880774Y-67161931D01*
X172962894Y-67169683D01*
X172963273Y-67169725D01*
X173045391Y-67180464D01*
X173045735Y-67180515D01*
X173127902Y-67194249D01*
X173128226Y-67194309D01*
X173210397Y-67211031D01*
X173210715Y-67211102D01*
X173292868Y-67230808D01*
X173293185Y-67230889D01*
X173375365Y-67253592D01*
X173375711Y-67253694D01*
X173457846Y-67279370D01*
X173458173Y-67279478D01*
X173540381Y-67308167D01*
X173540672Y-67308274D01*
X173615507Y-67337112D01*
X173621995Y-67343284D01*
X173623000Y-67348029D01*
X173623000Y-67831970D01*
X173619573Y-67840243D01*
X173615507Y-67842887D01*
X173540706Y-67871711D01*
X173540354Y-67871841D01*
X173458190Y-67900514D01*
X173457826Y-67900634D01*
X173375727Y-67926299D01*
X173375351Y-67926410D01*
X173293217Y-67949100D01*
X173292831Y-67949199D01*
X173210755Y-67968887D01*
X173210359Y-67968975D01*
X173128267Y-67985681D01*
X173127863Y-67985756D01*
X173045767Y-67999478D01*
X173045355Y-67999539D01*
X172963292Y-68010270D01*
X172962875Y-68010317D01*
X172880799Y-68018065D01*
X172880377Y-68018097D01*
X172804259Y-68022515D01*
X172795801Y-68019574D01*
X172794329Y-68017997D01*
X172788369Y-68010298D01*
X172468543Y-67597161D01*
X172466190Y-67588522D01*
X172468544Y-67582838D01*
X172794330Y-67162000D01*
X172802103Y-67157558D01*
X172804256Y-67157484D01*
X172880403Y-67161902D01*
G37*
G04 #@! TD.AperFunction*
G04 #@! TA.AperFunction,Conductor*
G36*
X161289746Y-93825843D02*
G01*
X161675455Y-94166611D01*
X161679386Y-94174656D01*
X161678317Y-94180312D01*
X161652000Y-94236903D01*
X161622002Y-94305907D01*
X161591989Y-94379449D01*
X161562007Y-94457414D01*
X161531997Y-94539955D01*
X161502003Y-94626947D01*
X161472008Y-94718442D01*
X161441978Y-94814550D01*
X161412019Y-94914923D01*
X161384424Y-95011514D01*
X161378856Y-95018528D01*
X161373174Y-95020000D01*
X161190826Y-95020000D01*
X161182553Y-95016573D01*
X161179576Y-95011514D01*
X161151981Y-94914923D01*
X161122022Y-94814550D01*
X161122000Y-94814478D01*
X161092000Y-94718467D01*
X161062000Y-94626957D01*
X161032000Y-94539946D01*
X161002000Y-94457435D01*
X161001992Y-94457414D01*
X160972010Y-94379449D01*
X160941997Y-94305907D01*
X160940760Y-94303062D01*
X160912000Y-94236903D01*
X160885681Y-94180310D01*
X160885301Y-94171365D01*
X160888541Y-94166613D01*
X161274253Y-93825843D01*
X161282722Y-93822934D01*
X161289746Y-93825843D01*
G37*
G04 #@! TD.AperFunction*
G04 #@! TA.AperFunction,Conductor*
G36*
X158784376Y-74631398D02*
G01*
X158784681Y-74631405D01*
X158788385Y-74631544D01*
X158885299Y-74635196D01*
X158885532Y-74635208D01*
X158969879Y-74640793D01*
X158970032Y-74640805D01*
X159043671Y-74647596D01*
X159043750Y-74647604D01*
X159111999Y-74655000D01*
X159180299Y-74662400D01*
X159254024Y-74669200D01*
X159338600Y-74674800D01*
X159439450Y-74678600D01*
X159550436Y-74679867D01*
X159558667Y-74683388D01*
X159562000Y-74691566D01*
X159562000Y-75168433D01*
X159558573Y-75176706D01*
X159550434Y-75180132D01*
X159510405Y-75180589D01*
X159439450Y-75181400D01*
X159340843Y-75185115D01*
X159338573Y-75185201D01*
X159254055Y-75190797D01*
X159180276Y-75197601D01*
X159111999Y-75205000D01*
X159043819Y-75212386D01*
X159043634Y-75212405D01*
X158970089Y-75219189D01*
X158969787Y-75219212D01*
X158885591Y-75224787D01*
X158885258Y-75224805D01*
X158784681Y-75228594D01*
X158784375Y-75228601D01*
X158673794Y-75229865D01*
X158665482Y-75226533D01*
X158661961Y-75218300D01*
X158661000Y-74930000D01*
X158661960Y-74641792D01*
X158665414Y-74633532D01*
X158673697Y-74630133D01*
X158784376Y-74631398D01*
G37*
G04 #@! TD.AperFunction*
G04 #@! TA.AperFunction,Conductor*
G36*
X144671159Y-101561427D02*
G01*
X144674586Y-101569613D01*
X144676551Y-101833876D01*
X144681755Y-101998117D01*
X144683780Y-102061996D01*
X144691513Y-102167820D01*
X144697793Y-102253756D01*
X144720204Y-102420519D01*
X144752618Y-102573599D01*
X144752624Y-102573620D01*
X144796648Y-102724383D01*
X144853909Y-102884225D01*
X144925990Y-103064422D01*
X145014520Y-103276389D01*
X145116585Y-103520640D01*
X145116613Y-103529595D01*
X145110301Y-103535946D01*
X145110281Y-103535955D01*
X144428991Y-103819133D01*
X144420036Y-103819144D01*
X144420009Y-103819133D01*
X143738718Y-103535955D01*
X143732394Y-103529615D01*
X143732404Y-103520663D01*
X143796419Y-103367466D01*
X143834478Y-103276389D01*
X143862567Y-103209134D01*
X143923008Y-103064425D01*
X143995095Y-102884207D01*
X144052349Y-102724386D01*
X144096379Y-102573606D01*
X144128794Y-102420517D01*
X144151205Y-102253764D01*
X144165219Y-102061996D01*
X144172448Y-101833858D01*
X144174414Y-101569613D01*
X144177903Y-101561366D01*
X144186114Y-101558000D01*
X144662886Y-101558000D01*
X144671159Y-101561427D01*
G37*
G04 #@! TD.AperFunction*
G04 #@! TA.AperFunction,Conductor*
G36*
X170898495Y-72103329D02*
G01*
X170931005Y-72118518D01*
X170963670Y-72133780D01*
X171002052Y-72150049D01*
X171032922Y-72163134D01*
X171102182Y-72189492D01*
X171102192Y-72189495D01*
X171102199Y-72189498D01*
X171171429Y-72212846D01*
X171171441Y-72212850D01*
X171208434Y-72223724D01*
X171240703Y-72233210D01*
X171309968Y-72250569D01*
X171354474Y-72259795D01*
X171379220Y-72264925D01*
X171448480Y-72276283D01*
X171517740Y-72284641D01*
X171517744Y-72284641D01*
X171517750Y-72284642D01*
X171535870Y-72286043D01*
X171576203Y-72289164D01*
X171584187Y-72293219D01*
X171587000Y-72300829D01*
X171587000Y-72479170D01*
X171583573Y-72487443D01*
X171576202Y-72490835D01*
X171517750Y-72495356D01*
X171448476Y-72503716D01*
X171379207Y-72515076D01*
X171309968Y-72529429D01*
X171240703Y-72546789D01*
X171171429Y-72567152D01*
X171102199Y-72590500D01*
X171032909Y-72616870D01*
X170963670Y-72646218D01*
X170898496Y-72676669D01*
X170890087Y-72677247D01*
X170215153Y-72468577D01*
X169997153Y-72401177D01*
X169990262Y-72395460D01*
X169989432Y-72386544D01*
X169995150Y-72379652D01*
X169997152Y-72378822D01*
X170890088Y-72102752D01*
X170898495Y-72103329D01*
G37*
G04 #@! TD.AperFunction*
G04 #@! TA.AperFunction,Conductor*
G36*
X157789746Y-93825843D02*
G01*
X158175455Y-94166611D01*
X158179386Y-94174656D01*
X158178317Y-94180312D01*
X158152000Y-94236903D01*
X158122002Y-94305907D01*
X158091989Y-94379449D01*
X158062007Y-94457414D01*
X158031997Y-94539955D01*
X158002003Y-94626947D01*
X157972008Y-94718442D01*
X157941978Y-94814550D01*
X157912019Y-94914923D01*
X157884424Y-95011514D01*
X157878856Y-95018528D01*
X157873174Y-95020000D01*
X157690826Y-95020000D01*
X157682553Y-95016573D01*
X157679576Y-95011514D01*
X157651981Y-94914923D01*
X157622022Y-94814550D01*
X157622000Y-94814478D01*
X157592000Y-94718467D01*
X157562000Y-94626957D01*
X157532000Y-94539946D01*
X157502000Y-94457435D01*
X157501992Y-94457414D01*
X157472010Y-94379449D01*
X157441997Y-94305907D01*
X157440760Y-94303062D01*
X157412000Y-94236903D01*
X157385681Y-94180310D01*
X157385301Y-94171365D01*
X157388541Y-94166613D01*
X157774253Y-93825843D01*
X157782722Y-93822934D01*
X157789746Y-93825843D01*
G37*
G04 #@! TD.AperFunction*
G04 #@! TA.AperFunction,Conductor*
G36*
X168408584Y-91170023D02*
G01*
X168415688Y-91175474D01*
X168416679Y-91177694D01*
X168442664Y-91257327D01*
X168442675Y-91257358D01*
X168442676Y-91257362D01*
X168470613Y-91338479D01*
X168498570Y-91415152D01*
X168526516Y-91487295D01*
X168554481Y-91554987D01*
X168582429Y-91618139D01*
X168610379Y-91676793D01*
X168638333Y-91730957D01*
X168666283Y-91780615D01*
X168688904Y-91817163D01*
X168690344Y-91826002D01*
X168686463Y-91832294D01*
X168289672Y-92164328D01*
X168281129Y-92167009D01*
X168274181Y-92163908D01*
X167901609Y-91816175D01*
X167897899Y-91808025D01*
X167899880Y-91801098D01*
X167927041Y-91760676D01*
X167959762Y-91707479D01*
X167992483Y-91649782D01*
X168025203Y-91587585D01*
X168057924Y-91520889D01*
X168090645Y-91449692D01*
X168123365Y-91373995D01*
X168156086Y-91293798D01*
X168188807Y-91209101D01*
X168217845Y-91129943D01*
X168223911Y-91123357D01*
X168231855Y-91122672D01*
X168408584Y-91170023D01*
G37*
G04 #@! TD.AperFunction*
G04 #@! TA.AperFunction,Conductor*
G36*
X115188669Y-83820913D02*
G01*
X116047954Y-84067405D01*
X116054961Y-84072979D01*
X116056403Y-84079392D01*
X116043999Y-84274695D01*
X116031000Y-84488717D01*
X116031001Y-84488718D01*
X116018000Y-84712145D01*
X116018000Y-84712160D01*
X116017997Y-84712211D01*
X116004999Y-84944976D01*
X115991999Y-85187153D01*
X115978999Y-85438683D01*
X115978999Y-85438695D01*
X115965999Y-85699624D01*
X115965999Y-85699634D01*
X115965998Y-85699633D01*
X115952998Y-85969916D01*
X115952999Y-85969917D01*
X115939998Y-86249597D01*
X115939999Y-86249598D01*
X115927502Y-86527486D01*
X115923707Y-86535596D01*
X115915814Y-86538660D01*
X115434888Y-86538660D01*
X115426615Y-86535233D01*
X115424042Y-86531347D01*
X115329764Y-86298262D01*
X115329758Y-86298249D01*
X115329746Y-86298218D01*
X115232492Y-86067152D01*
X115135239Y-85845461D01*
X115111063Y-85792683D01*
X115037990Y-85633154D01*
X114940746Y-85430233D01*
X114940743Y-85430228D01*
X114940732Y-85430204D01*
X114843478Y-85236638D01*
X114817344Y-85187142D01*
X114746224Y-85052446D01*
X114648968Y-84877626D01*
X114551730Y-84712211D01*
X114551698Y-84712160D01*
X114459345Y-84563958D01*
X114457879Y-84555125D01*
X114460947Y-84549555D01*
X115177124Y-83823940D01*
X115185372Y-83820460D01*
X115188669Y-83820913D01*
G37*
G04 #@! TD.AperFunction*
G04 #@! TA.AperFunction,Conductor*
G36*
X127218823Y-106561427D02*
G01*
X127222247Y-106569447D01*
X127228052Y-106838017D01*
X127228052Y-106838025D01*
X127246176Y-107067652D01*
X127246178Y-107067673D01*
X127276305Y-107258850D01*
X127276310Y-107258874D01*
X127318390Y-107423688D01*
X127372368Y-107574144D01*
X127372371Y-107574152D01*
X127438185Y-107722262D01*
X127515758Y-107879999D01*
X127515759Y-107879999D01*
X127605026Y-108059369D01*
X127605125Y-108059573D01*
X127705968Y-108272456D01*
X127706123Y-108272799D01*
X127813862Y-108520551D01*
X127814019Y-108529505D01*
X127807799Y-108535946D01*
X127807624Y-108536021D01*
X127126491Y-108819133D01*
X127117536Y-108819144D01*
X127117509Y-108819133D01*
X126436375Y-108536021D01*
X126430051Y-108529681D01*
X126430062Y-108520726D01*
X126430095Y-108520646D01*
X126537888Y-108272769D01*
X126538019Y-108272480D01*
X126638883Y-108059550D01*
X126638972Y-108059369D01*
X126728240Y-107879999D01*
X126805816Y-107722257D01*
X126871628Y-107574153D01*
X126925605Y-107423695D01*
X126967690Y-107258866D01*
X126997823Y-107067652D01*
X127015946Y-106838035D01*
X127021753Y-106569447D01*
X127025358Y-106561250D01*
X127033450Y-106558000D01*
X127210550Y-106558000D01*
X127218823Y-106561427D01*
G37*
G04 #@! TD.AperFunction*
G04 #@! TA.AperFunction,Conductor*
G36*
X157878823Y-101561427D02*
G01*
X157882247Y-101569447D01*
X157888052Y-101838017D01*
X157888052Y-101838025D01*
X157906176Y-102067652D01*
X157906178Y-102067673D01*
X157936305Y-102258850D01*
X157936310Y-102258874D01*
X157978390Y-102423688D01*
X158032368Y-102574144D01*
X158032371Y-102574152D01*
X158098185Y-102722262D01*
X158175758Y-102879999D01*
X158175759Y-102879999D01*
X158265026Y-103059369D01*
X158265125Y-103059573D01*
X158365968Y-103272456D01*
X158366123Y-103272799D01*
X158473862Y-103520551D01*
X158474019Y-103529505D01*
X158467799Y-103535946D01*
X158467624Y-103536021D01*
X157786491Y-103819133D01*
X157777536Y-103819144D01*
X157777509Y-103819133D01*
X157096375Y-103536021D01*
X157090051Y-103529681D01*
X157090062Y-103520726D01*
X157090095Y-103520646D01*
X157197888Y-103272769D01*
X157198019Y-103272480D01*
X157298883Y-103059550D01*
X157298972Y-103059369D01*
X157388240Y-102879999D01*
X157465816Y-102722257D01*
X157531628Y-102574153D01*
X157585605Y-102423695D01*
X157627690Y-102258866D01*
X157657823Y-102067652D01*
X157675946Y-101838035D01*
X157681753Y-101569447D01*
X157685358Y-101561250D01*
X157693450Y-101558000D01*
X157870550Y-101558000D01*
X157878823Y-101561427D01*
G37*
G04 #@! TD.AperFunction*
G04 #@! TA.AperFunction,Conductor*
G36*
X159789482Y-74630850D02*
G01*
X160630678Y-74918931D01*
X160637394Y-74924854D01*
X160637956Y-74933791D01*
X160632033Y-74940507D01*
X160630678Y-74941069D01*
X159789482Y-75229149D01*
X159784393Y-75229708D01*
X159711973Y-75221621D01*
X159636988Y-75213997D01*
X159561994Y-75207123D01*
X159487010Y-75200999D01*
X159424062Y-75196489D01*
X159412000Y-75195625D01*
X159337000Y-75191000D01*
X159336942Y-75190997D01*
X159262053Y-75187127D01*
X159224512Y-75185563D01*
X159187000Y-75184000D01*
X159186979Y-75183999D01*
X159186971Y-75183999D01*
X159111990Y-75181624D01*
X159048446Y-75180247D01*
X159040249Y-75176642D01*
X159037000Y-75168550D01*
X159037000Y-74691448D01*
X159040427Y-74683175D01*
X159048444Y-74679751D01*
X159112000Y-74678374D01*
X159187000Y-74675999D01*
X159262000Y-74672874D01*
X159337000Y-74668999D01*
X159412000Y-74664375D01*
X159487000Y-74659000D01*
X159562000Y-74652875D01*
X159637000Y-74646000D01*
X159712000Y-74638375D01*
X159784393Y-74630291D01*
X159789482Y-74630850D01*
G37*
G04 #@! TD.AperFunction*
G04 #@! TA.AperFunction,Conductor*
G36*
X161378823Y-106561427D02*
G01*
X161382247Y-106569447D01*
X161388052Y-106838017D01*
X161388052Y-106838025D01*
X161406176Y-107067652D01*
X161406178Y-107067673D01*
X161436305Y-107258850D01*
X161436310Y-107258874D01*
X161478390Y-107423688D01*
X161532368Y-107574144D01*
X161532371Y-107574152D01*
X161598185Y-107722262D01*
X161675758Y-107879999D01*
X161675759Y-107879999D01*
X161765026Y-108059369D01*
X161765125Y-108059573D01*
X161865968Y-108272456D01*
X161866123Y-108272799D01*
X161973862Y-108520551D01*
X161974019Y-108529505D01*
X161967799Y-108535946D01*
X161967624Y-108536021D01*
X161286491Y-108819133D01*
X161277536Y-108819144D01*
X161277509Y-108819133D01*
X160596375Y-108536021D01*
X160590051Y-108529681D01*
X160590062Y-108520726D01*
X160590095Y-108520646D01*
X160697888Y-108272769D01*
X160698019Y-108272480D01*
X160798883Y-108059550D01*
X160798972Y-108059369D01*
X160888240Y-107879999D01*
X160965816Y-107722257D01*
X161031628Y-107574153D01*
X161085605Y-107423695D01*
X161127690Y-107258866D01*
X161157823Y-107067652D01*
X161175946Y-106838035D01*
X161181753Y-106569447D01*
X161185358Y-106561250D01*
X161193450Y-106558000D01*
X161370550Y-106558000D01*
X161378823Y-106561427D01*
G37*
G04 #@! TD.AperFunction*
G04 #@! TA.AperFunction,Conductor*
G36*
X129573706Y-88923427D02*
G01*
X129577132Y-88931566D01*
X129578400Y-89042549D01*
X129582200Y-89143399D01*
X129582201Y-89143425D01*
X129587796Y-89227938D01*
X129594603Y-89301727D01*
X129602000Y-89369999D01*
X129609386Y-89438178D01*
X129609405Y-89438363D01*
X129616189Y-89511908D01*
X129616212Y-89512210D01*
X129621787Y-89596407D01*
X129621805Y-89596740D01*
X129625594Y-89697317D01*
X129625601Y-89697623D01*
X129626865Y-89808205D01*
X129623533Y-89816517D01*
X129615300Y-89820038D01*
X129615205Y-89820039D01*
X129327039Y-89820999D01*
X129326961Y-89820999D01*
X129038794Y-89820039D01*
X129030532Y-89816585D01*
X129027133Y-89808301D01*
X129028398Y-89697620D01*
X129028405Y-89697317D01*
X129032196Y-89596695D01*
X129032208Y-89596470D01*
X129037791Y-89512141D01*
X129037805Y-89511951D01*
X129044594Y-89438353D01*
X129044613Y-89438178D01*
X129052000Y-89369999D01*
X129059400Y-89301699D01*
X129066200Y-89227974D01*
X129071800Y-89143399D01*
X129075600Y-89042549D01*
X129076868Y-88931566D01*
X129080389Y-88923333D01*
X129088567Y-88920000D01*
X129565433Y-88920000D01*
X129573706Y-88923427D01*
G37*
G04 #@! TD.AperFunction*
G04 #@! TA.AperFunction,Conductor*
G36*
X112674257Y-72133776D02*
G01*
X113466845Y-72378822D01*
X113473737Y-72384540D01*
X113474567Y-72393456D01*
X113468849Y-72400348D01*
X113466845Y-72401178D01*
X112573912Y-72677247D01*
X112565503Y-72676669D01*
X112500328Y-72646218D01*
X112431089Y-72616870D01*
X112431087Y-72616869D01*
X112431077Y-72616865D01*
X112361817Y-72590507D01*
X112361799Y-72590500D01*
X112292569Y-72567152D01*
X112223295Y-72546789D01*
X112154030Y-72529429D01*
X112084791Y-72515076D01*
X112015522Y-72503716D01*
X111946248Y-72495356D01*
X111887798Y-72490835D01*
X111879813Y-72486780D01*
X111877000Y-72479170D01*
X111877000Y-72300829D01*
X111880427Y-72292556D01*
X111887796Y-72289164D01*
X111932660Y-72285693D01*
X111946248Y-72284642D01*
X111946251Y-72284641D01*
X111946259Y-72284641D01*
X112015519Y-72276283D01*
X112084779Y-72264925D01*
X112126334Y-72256310D01*
X112154030Y-72250569D01*
X112223295Y-72233210D01*
X112232546Y-72230490D01*
X112292558Y-72212850D01*
X112361817Y-72189492D01*
X112431077Y-72163134D01*
X112500337Y-72133776D01*
X112565504Y-72103329D01*
X112573912Y-72102752D01*
X112674257Y-72133776D01*
G37*
G04 #@! TD.AperFunction*
G04 #@! TA.AperFunction,Conductor*
G36*
X173726517Y-67293466D02*
G01*
X173730038Y-67301699D01*
X173730039Y-67301794D01*
X173731000Y-67590000D01*
X173731000Y-67590078D01*
X173730039Y-67878205D01*
X173726585Y-67886467D01*
X173718300Y-67889866D01*
X173718205Y-67889865D01*
X173607623Y-67888601D01*
X173607317Y-67888594D01*
X173506740Y-67884805D01*
X173506407Y-67884787D01*
X173422210Y-67879212D01*
X173421908Y-67879189D01*
X173348363Y-67872405D01*
X173348178Y-67872386D01*
X173279999Y-67865000D01*
X173211727Y-67857603D01*
X173211724Y-67857602D01*
X173211699Y-67857600D01*
X173137974Y-67850800D01*
X173137961Y-67850799D01*
X173137938Y-67850797D01*
X173053425Y-67845201D01*
X173053399Y-67845200D01*
X172952549Y-67841400D01*
X172880563Y-67840577D01*
X172841566Y-67840132D01*
X172833333Y-67836611D01*
X172830000Y-67828433D01*
X172830000Y-67351566D01*
X172833427Y-67343293D01*
X172841563Y-67339867D01*
X172952549Y-67338600D01*
X173053399Y-67334800D01*
X173137974Y-67329199D01*
X173211699Y-67322400D01*
X173279999Y-67315000D01*
X173348197Y-67307611D01*
X173348353Y-67307594D01*
X173421951Y-67300806D01*
X173422141Y-67300792D01*
X173506471Y-67295208D01*
X173506695Y-67295196D01*
X173607317Y-67291404D01*
X173607620Y-67291398D01*
X173718206Y-67290134D01*
X173726517Y-67293466D01*
G37*
G04 #@! TD.AperFunction*
G04 #@! TA.AperFunction,Conductor*
G36*
X169134257Y-73403776D02*
G01*
X169926845Y-73648822D01*
X169933737Y-73654540D01*
X169934567Y-73663456D01*
X169928849Y-73670348D01*
X169926845Y-73671178D01*
X169033912Y-73947247D01*
X169025503Y-73946669D01*
X168960328Y-73916218D01*
X168891089Y-73886870D01*
X168891087Y-73886869D01*
X168891077Y-73886865D01*
X168821817Y-73860507D01*
X168821799Y-73860500D01*
X168752569Y-73837152D01*
X168683295Y-73816789D01*
X168614030Y-73799429D01*
X168544791Y-73785076D01*
X168475522Y-73773716D01*
X168406248Y-73765356D01*
X168347798Y-73760835D01*
X168339813Y-73756780D01*
X168337000Y-73749170D01*
X168337000Y-73570829D01*
X168340427Y-73562556D01*
X168347796Y-73559164D01*
X168392660Y-73555693D01*
X168406248Y-73554642D01*
X168406251Y-73554641D01*
X168406259Y-73554641D01*
X168475519Y-73546283D01*
X168544779Y-73534925D01*
X168586334Y-73526310D01*
X168614030Y-73520569D01*
X168683295Y-73503210D01*
X168692546Y-73500490D01*
X168752558Y-73482850D01*
X168821817Y-73459492D01*
X168891077Y-73433134D01*
X168960337Y-73403776D01*
X169025504Y-73373329D01*
X169033912Y-73372752D01*
X169134257Y-73403776D01*
G37*
G04 #@! TD.AperFunction*
G04 #@! TA.AperFunction,Conductor*
G36*
X171766517Y-74633466D02*
G01*
X171770038Y-74641699D01*
X171770039Y-74641794D01*
X171771000Y-74930000D01*
X171771000Y-74930078D01*
X171770039Y-75218205D01*
X171766585Y-75226467D01*
X171758300Y-75229866D01*
X171758205Y-75229865D01*
X171647623Y-75228601D01*
X171647317Y-75228594D01*
X171546740Y-75224805D01*
X171546407Y-75224787D01*
X171462210Y-75219212D01*
X171461908Y-75219189D01*
X171388363Y-75212404D01*
X171388178Y-75212385D01*
X171319999Y-75205000D01*
X171251727Y-75197603D01*
X171251724Y-75197602D01*
X171251699Y-75197600D01*
X171177974Y-75190800D01*
X171177961Y-75190799D01*
X171177938Y-75190797D01*
X171093425Y-75185201D01*
X171093399Y-75185200D01*
X170992549Y-75181400D01*
X170920563Y-75180577D01*
X170881566Y-75180132D01*
X170873333Y-75176611D01*
X170870000Y-75168433D01*
X170870000Y-74691566D01*
X170873427Y-74683293D01*
X170881563Y-74679867D01*
X170992549Y-74678600D01*
X171093399Y-74674800D01*
X171177974Y-74669200D01*
X171251699Y-74662399D01*
X171319999Y-74655000D01*
X171388197Y-74647611D01*
X171388353Y-74647594D01*
X171461951Y-74640806D01*
X171462141Y-74640792D01*
X171546471Y-74635208D01*
X171546695Y-74635196D01*
X171647317Y-74631404D01*
X171647620Y-74631398D01*
X171758206Y-74630134D01*
X171766517Y-74633466D01*
G37*
G04 #@! TD.AperFunction*
G04 #@! TA.AperFunction,Conductor*
G36*
X114452000Y-73368375D02*
G01*
X114527000Y-73376000D01*
X114601999Y-73382875D01*
X114677000Y-73389000D01*
X114752000Y-73394375D01*
X114827000Y-73398999D01*
X114902000Y-73402874D01*
X114977000Y-73405999D01*
X115052000Y-73408374D01*
X115115554Y-73409751D01*
X115123750Y-73413356D01*
X115127000Y-73421448D01*
X115127000Y-73898550D01*
X115123573Y-73906823D01*
X115115554Y-73910247D01*
X115052009Y-73911624D01*
X114977028Y-73913999D01*
X114977016Y-73913999D01*
X114977000Y-73914000D01*
X114946994Y-73915250D01*
X114901945Y-73917127D01*
X114827058Y-73920997D01*
X114827000Y-73921000D01*
X114752000Y-73925625D01*
X114746231Y-73926038D01*
X114676989Y-73930999D01*
X114602005Y-73937123D01*
X114527011Y-73943997D01*
X114452026Y-73951621D01*
X114379606Y-73959708D01*
X114374517Y-73959149D01*
X113533321Y-73671069D01*
X113526605Y-73665146D01*
X113526043Y-73656209D01*
X113531966Y-73649493D01*
X113533321Y-73648931D01*
X114374518Y-73360849D01*
X114379606Y-73360291D01*
X114452000Y-73368375D01*
G37*
G04 #@! TD.AperFunction*
G04 #@! TA.AperFunction,Conductor*
G36*
X120218823Y-106561427D02*
G01*
X120222247Y-106569447D01*
X120228052Y-106838017D01*
X120228052Y-106838025D01*
X120246176Y-107067652D01*
X120246178Y-107067673D01*
X120276305Y-107258850D01*
X120276310Y-107258874D01*
X120318390Y-107423688D01*
X120372368Y-107574144D01*
X120372371Y-107574152D01*
X120438185Y-107722262D01*
X120515758Y-107879999D01*
X120515759Y-107879999D01*
X120605026Y-108059369D01*
X120605125Y-108059573D01*
X120705968Y-108272456D01*
X120706123Y-108272799D01*
X120813862Y-108520551D01*
X120814019Y-108529505D01*
X120807799Y-108535946D01*
X120807624Y-108536021D01*
X120126491Y-108819133D01*
X120117536Y-108819144D01*
X120117509Y-108819133D01*
X119436375Y-108536021D01*
X119430051Y-108529681D01*
X119430062Y-108520726D01*
X119430095Y-108520646D01*
X119537888Y-108272769D01*
X119538019Y-108272480D01*
X119638883Y-108059550D01*
X119638972Y-108059369D01*
X119728240Y-107879999D01*
X119805816Y-107722257D01*
X119871628Y-107574153D01*
X119925605Y-107423695D01*
X119967690Y-107258866D01*
X119997823Y-107067652D01*
X120015946Y-106838035D01*
X120021753Y-106569447D01*
X120025358Y-106561250D01*
X120033450Y-106558000D01*
X120210550Y-106558000D01*
X120218823Y-106561427D01*
G37*
G04 #@! TD.AperFunction*
G04 #@! TA.AperFunction,Conductor*
G36*
X115925284Y-85448427D02*
G01*
X115928566Y-85454866D01*
X115946996Y-85570978D01*
X115947000Y-85571000D01*
X115967000Y-85694000D01*
X115987000Y-85814000D01*
X116007000Y-85931000D01*
X116027000Y-86045000D01*
X116046999Y-86156000D01*
X116047004Y-86156028D01*
X116047003Y-86156028D01*
X116066993Y-86263971D01*
X116086993Y-86368969D01*
X116106992Y-86470967D01*
X116125308Y-86561626D01*
X116123588Y-86570414D01*
X116119539Y-86574161D01*
X115682699Y-86817821D01*
X115673805Y-86818858D01*
X115671301Y-86817821D01*
X115234460Y-86574161D01*
X115228904Y-86567138D01*
X115228691Y-86561628D01*
X115247000Y-86471000D01*
X115247007Y-86470967D01*
X115267006Y-86368969D01*
X115287006Y-86263971D01*
X115306995Y-86156028D01*
X115307985Y-86150530D01*
X115327000Y-86045000D01*
X115346999Y-85931000D01*
X115366999Y-85814000D01*
X115386999Y-85694000D01*
X115406999Y-85571000D01*
X115407003Y-85570978D01*
X115425434Y-85454866D01*
X115430115Y-85447232D01*
X115436989Y-85445000D01*
X115917011Y-85445000D01*
X115925284Y-85448427D01*
G37*
G04 #@! TD.AperFunction*
G04 #@! TA.AperFunction,Conductor*
G36*
X161612000Y-74638375D02*
G01*
X161687000Y-74646000D01*
X161762000Y-74652875D01*
X161837000Y-74659000D01*
X161912000Y-74664375D01*
X161987000Y-74668999D01*
X162062000Y-74672874D01*
X162137000Y-74675999D01*
X162212000Y-74678374D01*
X162275554Y-74679751D01*
X162283750Y-74683356D01*
X162287000Y-74691448D01*
X162287000Y-75168550D01*
X162283573Y-75176823D01*
X162275554Y-75180247D01*
X162212009Y-75181624D01*
X162137028Y-75183999D01*
X162137016Y-75183999D01*
X162137000Y-75184000D01*
X162106995Y-75185250D01*
X162061946Y-75187127D01*
X161987058Y-75190997D01*
X161987000Y-75191000D01*
X161912000Y-75195625D01*
X161906231Y-75196038D01*
X161836989Y-75200999D01*
X161762005Y-75207123D01*
X161687011Y-75213997D01*
X161612026Y-75221621D01*
X161539606Y-75229708D01*
X161534517Y-75229149D01*
X160693321Y-74941069D01*
X160686605Y-74935146D01*
X160686043Y-74926209D01*
X160691966Y-74919493D01*
X160693321Y-74918931D01*
X161534518Y-74630849D01*
X161539606Y-74630291D01*
X161612000Y-74638375D01*
G37*
G04 #@! TD.AperFunction*
G04 #@! TA.AperFunction,Conductor*
G36*
X123752000Y-73368375D02*
G01*
X123827000Y-73376000D01*
X123901999Y-73382875D01*
X123977000Y-73389000D01*
X124052000Y-73394375D01*
X124127000Y-73398999D01*
X124202000Y-73402874D01*
X124277000Y-73405999D01*
X124352000Y-73408374D01*
X124415554Y-73409751D01*
X124423750Y-73413356D01*
X124427000Y-73421448D01*
X124427000Y-73898550D01*
X124423573Y-73906823D01*
X124415554Y-73910247D01*
X124352009Y-73911624D01*
X124277028Y-73913999D01*
X124277016Y-73913999D01*
X124277000Y-73914000D01*
X124246994Y-73915250D01*
X124201945Y-73917127D01*
X124127058Y-73920997D01*
X124127000Y-73921000D01*
X124052000Y-73925625D01*
X124046231Y-73926038D01*
X123976989Y-73930999D01*
X123902005Y-73937123D01*
X123827011Y-73943997D01*
X123752026Y-73951621D01*
X123679606Y-73959708D01*
X123674517Y-73959149D01*
X122833321Y-73671069D01*
X122826605Y-73665146D01*
X122826043Y-73656209D01*
X122831966Y-73649493D01*
X122833321Y-73648931D01*
X123674518Y-73360849D01*
X123679606Y-73360291D01*
X123752000Y-73368375D01*
G37*
G04 #@! TD.AperFunction*
G04 #@! TA.AperFunction,Conductor*
G36*
X116588228Y-90995328D02*
G01*
X116588304Y-90995514D01*
X116623721Y-91085344D01*
X116663474Y-91181670D01*
X116703241Y-91273534D01*
X116743027Y-91360939D01*
X116782788Y-91443788D01*
X116822554Y-91522150D01*
X116862332Y-91596036D01*
X116902089Y-91665384D01*
X116941872Y-91730274D01*
X116976541Y-91782899D01*
X116978231Y-91791693D01*
X116975276Y-91797371D01*
X116629363Y-92163533D01*
X116621191Y-92167193D01*
X116614089Y-92165041D01*
X116191647Y-91865418D01*
X116186882Y-91857837D01*
X116187406Y-91851915D01*
X116205874Y-91800596D01*
X116227350Y-91736416D01*
X116248827Y-91667736D01*
X116270303Y-91594556D01*
X116291780Y-91516876D01*
X116313257Y-91434696D01*
X116334733Y-91348016D01*
X116356210Y-91256836D01*
X116377686Y-91161156D01*
X116397875Y-91066979D01*
X116402960Y-91059610D01*
X116404834Y-91058627D01*
X116572944Y-90988996D01*
X116581897Y-90988996D01*
X116588228Y-90995328D01*
G37*
G04 #@! TD.AperFunction*
G04 #@! TA.AperFunction,Conductor*
G36*
X117475284Y-85448427D02*
G01*
X117478566Y-85454866D01*
X117496996Y-85570978D01*
X117497000Y-85571000D01*
X117517000Y-85694000D01*
X117537000Y-85814000D01*
X117557000Y-85931000D01*
X117577000Y-86045000D01*
X117596999Y-86156000D01*
X117597004Y-86156028D01*
X117597003Y-86156028D01*
X117616993Y-86263971D01*
X117636993Y-86368969D01*
X117656992Y-86470967D01*
X117675308Y-86561626D01*
X117673588Y-86570414D01*
X117669539Y-86574161D01*
X117232699Y-86817821D01*
X117223805Y-86818858D01*
X117221301Y-86817821D01*
X116784460Y-86574161D01*
X116778904Y-86567138D01*
X116778691Y-86561628D01*
X116797000Y-86471000D01*
X116797007Y-86470967D01*
X116817006Y-86368969D01*
X116837006Y-86263971D01*
X116856995Y-86156028D01*
X116857985Y-86150530D01*
X116877000Y-86045000D01*
X116896999Y-85931000D01*
X116916999Y-85814000D01*
X116936999Y-85694000D01*
X116956999Y-85571000D01*
X116957003Y-85570978D01*
X116975434Y-85454866D01*
X116980115Y-85447232D01*
X116986989Y-85445000D01*
X117467011Y-85445000D01*
X117475284Y-85448427D01*
G37*
G04 #@! TD.AperFunction*
G04 #@! TA.AperFunction,Conductor*
G36*
X171876382Y-67363741D02*
G01*
X171876556Y-67363815D01*
X171918778Y-67382377D01*
X171919160Y-67382555D01*
X171962551Y-67403800D01*
X171962843Y-67403948D01*
X171999384Y-67423161D01*
X171999414Y-67423197D01*
X171999423Y-67423182D01*
X172031607Y-67440262D01*
X172061769Y-67455010D01*
X172092416Y-67467319D01*
X172119842Y-67475277D01*
X172126051Y-67477079D01*
X172126052Y-67477079D01*
X172126055Y-67477080D01*
X172165195Y-67484186D01*
X172212340Y-67488528D01*
X172258600Y-67489708D01*
X172266781Y-67493345D01*
X172270000Y-67501404D01*
X172270000Y-67678594D01*
X172266573Y-67686867D01*
X172258599Y-67690290D01*
X172212350Y-67691470D01*
X172165194Y-67695813D01*
X172165184Y-67695814D01*
X172126051Y-67702919D01*
X172092415Y-67712680D01*
X172092405Y-67712683D01*
X172061786Y-67724980D01*
X172061772Y-67724986D01*
X172031614Y-67739732D01*
X171999463Y-67756796D01*
X171999423Y-67756817D01*
X171962851Y-67776046D01*
X171962551Y-67776198D01*
X171919188Y-67797430D01*
X171918752Y-67797633D01*
X171876574Y-67816176D01*
X171867621Y-67816368D01*
X171861154Y-67810174D01*
X171861072Y-67809982D01*
X171825498Y-67724988D01*
X171770889Y-67594515D01*
X171770857Y-67585563D01*
X171861072Y-67370016D01*
X171867428Y-67363708D01*
X171876382Y-67363741D01*
G37*
G04 #@! TD.AperFunction*
G04 #@! TA.AperFunction,Conductor*
G36*
X123050800Y-80965240D02*
G01*
X123053971Y-80971079D01*
X123112809Y-81247709D01*
X123173642Y-81524335D01*
X123234466Y-81791540D01*
X123295262Y-82049258D01*
X123356080Y-82297690D01*
X123416922Y-82536844D01*
X123477732Y-82766495D01*
X123538546Y-82986790D01*
X123599367Y-83197734D01*
X123657319Y-83389792D01*
X123656428Y-83398703D01*
X123651278Y-83403673D01*
X122807160Y-83818464D01*
X122798224Y-83819037D01*
X122796840Y-83818464D01*
X121952721Y-83403673D01*
X121946807Y-83396948D01*
X121946680Y-83389794D01*
X122004631Y-83197735D01*
X122065450Y-82986799D01*
X122126269Y-82766488D01*
X122187087Y-82536802D01*
X122247906Y-82297742D01*
X122308725Y-82049306D01*
X122308737Y-82049258D01*
X122369532Y-81791540D01*
X122369543Y-81791495D01*
X122430362Y-81524309D01*
X122491181Y-81247748D01*
X122491190Y-81247709D01*
X122550029Y-80971079D01*
X122555102Y-80963700D01*
X122561473Y-80961813D01*
X123042527Y-80961813D01*
X123050800Y-80965240D01*
G37*
G04 #@! TD.AperFunction*
G04 #@! TA.AperFunction,Conductor*
G36*
X159834257Y-70863776D02*
G01*
X160626845Y-71108822D01*
X160633737Y-71114540D01*
X160634567Y-71123456D01*
X160628849Y-71130348D01*
X160626845Y-71131178D01*
X159733912Y-71407247D01*
X159725503Y-71406669D01*
X159660328Y-71376218D01*
X159591089Y-71346870D01*
X159591087Y-71346869D01*
X159591077Y-71346865D01*
X159521817Y-71320507D01*
X159521799Y-71320500D01*
X159452569Y-71297152D01*
X159383295Y-71276789D01*
X159314030Y-71259429D01*
X159244791Y-71245076D01*
X159175522Y-71233716D01*
X159106248Y-71225356D01*
X159047798Y-71220835D01*
X159039813Y-71216780D01*
X159037000Y-71209170D01*
X159037000Y-71030829D01*
X159040427Y-71022556D01*
X159047796Y-71019164D01*
X159092660Y-71015693D01*
X159106248Y-71014642D01*
X159106251Y-71014641D01*
X159106259Y-71014641D01*
X159175519Y-71006283D01*
X159244779Y-70994925D01*
X159286334Y-70986310D01*
X159314030Y-70980569D01*
X159383295Y-70963210D01*
X159392546Y-70960490D01*
X159452558Y-70942850D01*
X159521817Y-70919492D01*
X159591077Y-70893134D01*
X159660337Y-70863776D01*
X159725504Y-70833329D01*
X159733912Y-70832752D01*
X159834257Y-70863776D01*
G37*
G04 #@! TD.AperFunction*
G04 #@! TA.AperFunction,Conductor*
G36*
X171018973Y-67069862D02*
G01*
X171098488Y-67087505D01*
X171098489Y-67087505D01*
X171178185Y-67104437D01*
X171257707Y-67120582D01*
X171257719Y-67120584D01*
X171257747Y-67120590D01*
X171337351Y-67136002D01*
X171337403Y-67136012D01*
X171337402Y-67136012D01*
X171416937Y-67150661D01*
X171496542Y-67164574D01*
X171543691Y-67172369D01*
X171576160Y-67177738D01*
X171647245Y-67188821D01*
X171655782Y-67190153D01*
X171712316Y-67198436D01*
X171720005Y-67203025D01*
X171722196Y-67211708D01*
X171718893Y-67218285D01*
X171385055Y-67552123D01*
X171377230Y-67555541D01*
X171327351Y-67557453D01*
X171327334Y-67557453D01*
X171327331Y-67557454D01*
X171322014Y-67557730D01*
X171272881Y-67560290D01*
X171272853Y-67560291D01*
X171272850Y-67560292D01*
X171218369Y-67563881D01*
X171218352Y-67563882D01*
X171218342Y-67563883D01*
X171163869Y-67568220D01*
X171109402Y-67573307D01*
X171054926Y-67579145D01*
X171000448Y-67585732D01*
X170945968Y-67593071D01*
X170891497Y-67601157D01*
X170839898Y-67609529D01*
X170834224Y-67609046D01*
X169997804Y-67321830D01*
X169991092Y-67315902D01*
X169990538Y-67306964D01*
X169996466Y-67300252D01*
X169998613Y-67299453D01*
X170936536Y-67052179D01*
X170942155Y-67052094D01*
X171018973Y-67069862D01*
G37*
G04 #@! TD.AperFunction*
G04 #@! TA.AperFunction,Conductor*
G36*
X111248706Y-75533427D02*
G01*
X111252132Y-75541566D01*
X111253400Y-75652549D01*
X111257200Y-75753399D01*
X111257201Y-75753425D01*
X111262797Y-75837938D01*
X111269603Y-75911727D01*
X111277000Y-75979999D01*
X111284386Y-76048178D01*
X111284405Y-76048363D01*
X111291189Y-76121908D01*
X111291212Y-76122210D01*
X111296787Y-76206407D01*
X111296805Y-76206740D01*
X111300594Y-76307317D01*
X111300601Y-76307623D01*
X111301865Y-76418205D01*
X111298533Y-76426517D01*
X111290300Y-76430038D01*
X111290205Y-76430039D01*
X111002039Y-76430999D01*
X111001961Y-76430999D01*
X110713794Y-76430039D01*
X110705532Y-76426585D01*
X110702133Y-76418301D01*
X110703398Y-76307620D01*
X110703405Y-76307317D01*
X110707196Y-76206695D01*
X110707208Y-76206471D01*
X110712792Y-76122141D01*
X110712806Y-76121951D01*
X110719594Y-76048353D01*
X110719613Y-76048178D01*
X110727000Y-75979999D01*
X110734400Y-75911699D01*
X110741200Y-75837974D01*
X110746800Y-75753399D01*
X110750600Y-75652549D01*
X110751868Y-75541566D01*
X110755389Y-75533333D01*
X110763567Y-75530000D01*
X111240433Y-75530000D01*
X111248706Y-75533427D01*
G37*
G04 #@! TD.AperFunction*
G04 #@! TA.AperFunction,Conductor*
G36*
X111260986Y-74482675D02*
G01*
X111279504Y-74488190D01*
X111364501Y-74513501D01*
X111476997Y-74544000D01*
X111589483Y-74571496D01*
X111589488Y-74571497D01*
X111589500Y-74571500D01*
X111702000Y-74596000D01*
X111814500Y-74617500D01*
X111893146Y-74630432D01*
X111926980Y-74635996D01*
X111926990Y-74635997D01*
X111927000Y-74635999D01*
X112039500Y-74651499D01*
X112099498Y-74658165D01*
X112151966Y-74663996D01*
X112151995Y-74663998D01*
X112152000Y-74663999D01*
X112264500Y-74673499D01*
X112365977Y-74679363D01*
X112374037Y-74683261D01*
X112377000Y-74691043D01*
X112377000Y-75168956D01*
X112373573Y-75177229D01*
X112365975Y-75180637D01*
X112264498Y-75186500D01*
X112151966Y-75196002D01*
X112039535Y-75208496D01*
X112039530Y-75208496D01*
X112039500Y-75208500D01*
X111927000Y-75224000D01*
X111926997Y-75224000D01*
X111926986Y-75224002D01*
X111814491Y-75242501D01*
X111702003Y-75263998D01*
X111589483Y-75288502D01*
X111476997Y-75315998D01*
X111364501Y-75346497D01*
X111260988Y-75377323D01*
X111252081Y-75376400D01*
X111247431Y-75371809D01*
X111233314Y-75346499D01*
X111004177Y-74935697D01*
X111003141Y-74926805D01*
X111004175Y-74924306D01*
X111247432Y-74488188D01*
X111254454Y-74482634D01*
X111260986Y-74482675D01*
G37*
G04 #@! TD.AperFunction*
G04 #@! TA.AperFunction,Conductor*
G36*
X141171159Y-106561427D02*
G01*
X141174586Y-106569613D01*
X141176551Y-106833876D01*
X141181755Y-106998117D01*
X141183780Y-107061996D01*
X141191513Y-107167820D01*
X141197793Y-107253756D01*
X141220204Y-107420519D01*
X141252618Y-107573599D01*
X141252624Y-107573620D01*
X141296648Y-107724383D01*
X141353909Y-107884225D01*
X141425990Y-108064422D01*
X141514520Y-108276389D01*
X141616585Y-108520640D01*
X141616613Y-108529595D01*
X141610301Y-108535946D01*
X141610281Y-108535955D01*
X140928991Y-108819133D01*
X140920036Y-108819144D01*
X140920009Y-108819133D01*
X140238718Y-108535955D01*
X140232394Y-108529615D01*
X140232404Y-108520663D01*
X140296419Y-108367466D01*
X140334478Y-108276389D01*
X140362567Y-108209134D01*
X140423008Y-108064425D01*
X140495095Y-107884207D01*
X140552349Y-107724386D01*
X140596379Y-107573606D01*
X140628794Y-107420517D01*
X140651205Y-107253764D01*
X140665219Y-107061996D01*
X140672448Y-106833858D01*
X140674414Y-106569613D01*
X140677903Y-106561366D01*
X140686114Y-106558000D01*
X141162886Y-106558000D01*
X141171159Y-106561427D01*
G37*
G04 #@! TD.AperFunction*
G04 #@! TA.AperFunction,Conductor*
G36*
X117724221Y-83821926D02*
G01*
X117726875Y-83823940D01*
X118443050Y-84549552D01*
X118446423Y-84557848D01*
X118444653Y-84563959D01*
X118352268Y-84712211D01*
X118255030Y-84877626D01*
X118157774Y-85052446D01*
X118060537Y-85236606D01*
X117963253Y-85430233D01*
X117866008Y-85633154D01*
X117768757Y-85845466D01*
X117671526Y-86067106D01*
X117574234Y-86298262D01*
X117479958Y-86531347D01*
X117473679Y-86537732D01*
X117469112Y-86538660D01*
X116988185Y-86538660D01*
X116979912Y-86535233D01*
X116976497Y-86527486D01*
X116964000Y-86249598D01*
X116964000Y-86249597D01*
X116951000Y-85969917D01*
X116951000Y-85969916D01*
X116938000Y-85699633D01*
X116938000Y-85699624D01*
X116925000Y-85438695D01*
X116914558Y-85236638D01*
X116912001Y-85187153D01*
X116899000Y-84944976D01*
X116886002Y-84712211D01*
X116885999Y-84712160D01*
X116872999Y-84488732D01*
X116871903Y-84470685D01*
X116860001Y-84274695D01*
X116847596Y-84079392D01*
X116850491Y-84070918D01*
X116856042Y-84067405D01*
X117715326Y-83820914D01*
X117724221Y-83821926D01*
G37*
G04 #@! TD.AperFunction*
G04 #@! TA.AperFunction,Conductor*
G36*
X168501982Y-66519072D02*
G01*
X168508291Y-66525428D01*
X168508258Y-66534382D01*
X168508176Y-66534574D01*
X168489633Y-66576752D01*
X168489430Y-66577188D01*
X168468198Y-66620551D01*
X168468046Y-66620851D01*
X168448838Y-66657383D01*
X168448817Y-66657423D01*
X168431732Y-66689614D01*
X168416986Y-66719772D01*
X168416980Y-66719786D01*
X168404683Y-66750405D01*
X168404680Y-66750415D01*
X168394919Y-66784051D01*
X168387814Y-66823184D01*
X168387813Y-66823194D01*
X168383470Y-66870350D01*
X168382291Y-66916598D01*
X168378654Y-66924781D01*
X168370595Y-66928000D01*
X168193405Y-66928000D01*
X168185132Y-66924573D01*
X168181709Y-66916599D01*
X168180528Y-66870350D01*
X168180528Y-66870340D01*
X168176186Y-66823195D01*
X168169080Y-66784055D01*
X168159319Y-66750416D01*
X168147010Y-66719769D01*
X168132262Y-66689607D01*
X168115182Y-66657423D01*
X168095948Y-66620843D01*
X168095800Y-66620551D01*
X168074555Y-66577160D01*
X168074377Y-66576778D01*
X168055822Y-66534573D01*
X168055631Y-66525621D01*
X168061825Y-66519154D01*
X168061962Y-66519095D01*
X168277484Y-66428889D01*
X168286437Y-66428857D01*
X168501982Y-66519072D01*
G37*
G04 #@! TD.AperFunction*
G04 #@! TA.AperFunction,Conductor*
G36*
X127129746Y-93825843D02*
G01*
X127515455Y-94166611D01*
X127519386Y-94174656D01*
X127518317Y-94180312D01*
X127492000Y-94236903D01*
X127462002Y-94305907D01*
X127431982Y-94379465D01*
X127402014Y-94457395D01*
X127382015Y-94512399D01*
X127372000Y-94539946D01*
X127342000Y-94626957D01*
X127312000Y-94718467D01*
X127282001Y-94814477D01*
X127281978Y-94814550D01*
X127252019Y-94914923D01*
X127224424Y-95011514D01*
X127218856Y-95018528D01*
X127213174Y-95020000D01*
X127030826Y-95020000D01*
X127022553Y-95016573D01*
X127019576Y-95011514D01*
X126991981Y-94914923D01*
X126962000Y-94814477D01*
X126953662Y-94787795D01*
X126931999Y-94718467D01*
X126902000Y-94626957D01*
X126872000Y-94539946D01*
X126842000Y-94457435D01*
X126841985Y-94457395D01*
X126812010Y-94379449D01*
X126781997Y-94305907D01*
X126780760Y-94303062D01*
X126752000Y-94236903D01*
X126725681Y-94180310D01*
X126725301Y-94171365D01*
X126728541Y-94166613D01*
X127114253Y-93825843D01*
X127122722Y-93822934D01*
X127129746Y-93825843D01*
G37*
G04 #@! TD.AperFunction*
G04 #@! TA.AperFunction,Conductor*
G36*
X164878823Y-101561427D02*
G01*
X164882247Y-101569447D01*
X164888052Y-101838017D01*
X164888052Y-101838025D01*
X164906176Y-102067652D01*
X164906178Y-102067673D01*
X164936305Y-102258850D01*
X164936310Y-102258874D01*
X164978390Y-102423688D01*
X165032368Y-102574144D01*
X165032371Y-102574152D01*
X165098185Y-102722262D01*
X165175758Y-102879999D01*
X165175759Y-102879999D01*
X165265026Y-103059369D01*
X165265125Y-103059573D01*
X165365968Y-103272456D01*
X165366123Y-103272799D01*
X165473862Y-103520551D01*
X165474019Y-103529505D01*
X165467799Y-103535946D01*
X165467624Y-103536021D01*
X164786491Y-103819133D01*
X164777536Y-103819144D01*
X164777509Y-103819133D01*
X164096375Y-103536021D01*
X164090051Y-103529681D01*
X164090062Y-103520726D01*
X164090095Y-103520646D01*
X164197888Y-103272769D01*
X164198019Y-103272480D01*
X164298883Y-103059550D01*
X164298972Y-103059369D01*
X164388240Y-102879999D01*
X164465816Y-102722257D01*
X164531628Y-102574153D01*
X164585605Y-102423695D01*
X164627690Y-102258866D01*
X164657823Y-102067652D01*
X164675946Y-101838035D01*
X164681753Y-101569447D01*
X164685358Y-101561250D01*
X164693450Y-101558000D01*
X164870550Y-101558000D01*
X164878823Y-101561427D01*
G37*
G04 #@! TD.AperFunction*
G04 #@! TA.AperFunction,Conductor*
G36*
X112139088Y-73290585D02*
G01*
X112271909Y-73300538D01*
X112271910Y-73300538D01*
X112353715Y-73306224D01*
X112410148Y-73310147D01*
X112410179Y-73310149D01*
X112410178Y-73310149D01*
X112436240Y-73311818D01*
X112548354Y-73319003D01*
X112648346Y-73324868D01*
X112686591Y-73327112D01*
X112686590Y-73327112D01*
X112766173Y-73331347D01*
X112824766Y-73334467D01*
X112962971Y-73341073D01*
X113101177Y-73346930D01*
X113239383Y-73352036D01*
X113377589Y-73356393D01*
X113503893Y-73359689D01*
X113512074Y-73363330D01*
X113515284Y-73371690D01*
X113515277Y-73371894D01*
X113503117Y-73651273D01*
X113499334Y-73659389D01*
X113493399Y-73662297D01*
X112484816Y-73834635D01*
X112479271Y-73834243D01*
X112411778Y-73812592D01*
X112341613Y-73790834D01*
X112271507Y-73769844D01*
X112271452Y-73769828D01*
X112201271Y-73749565D01*
X112201255Y-73749560D01*
X112201215Y-73749549D01*
X112201215Y-73749548D01*
X112131132Y-73730063D01*
X112060944Y-73711297D01*
X112041559Y-73706321D01*
X111990727Y-73693275D01*
X111990670Y-73693260D01*
X111920576Y-73676019D01*
X111850395Y-73659505D01*
X111812024Y-73650888D01*
X111800922Y-73648394D01*
X111793602Y-73643238D01*
X111792071Y-73634415D01*
X111795212Y-73628708D01*
X112129942Y-73293978D01*
X112138214Y-73290552D01*
X112139088Y-73290585D01*
G37*
G04 #@! TD.AperFunction*
G04 #@! TA.AperFunction,Conductor*
G36*
X124892319Y-73011777D02*
G01*
X125299628Y-73376977D01*
X125303457Y-73384507D01*
X125347315Y-73816603D01*
X125344741Y-73825179D01*
X125336856Y-73829424D01*
X125335219Y-73829475D01*
X125207598Y-73824499D01*
X125066539Y-73822000D01*
X125066529Y-73822000D01*
X125066528Y-73822000D01*
X125020886Y-73822161D01*
X124925431Y-73822500D01*
X124784418Y-73825999D01*
X124784414Y-73825999D01*
X124784381Y-73826000D01*
X124643307Y-73832500D01*
X124502234Y-73841999D01*
X124502203Y-73842001D01*
X124502199Y-73842002D01*
X124361175Y-73854497D01*
X124220099Y-73869997D01*
X124078980Y-73888503D01*
X123951403Y-73907948D01*
X123942708Y-73905807D01*
X123938074Y-73898145D01*
X123937940Y-73896382D01*
X123937940Y-73418843D01*
X123941367Y-73410570D01*
X123946446Y-73407587D01*
X124032750Y-73383115D01*
X124127561Y-73353231D01*
X124222372Y-73320346D01*
X124281701Y-73297890D01*
X124317155Y-73284473D01*
X124317167Y-73284467D01*
X124317183Y-73284462D01*
X124411994Y-73245577D01*
X124506805Y-73203693D01*
X124601616Y-73158808D01*
X124696427Y-73110924D01*
X124791238Y-73060039D01*
X124878727Y-73010315D01*
X124887613Y-73009207D01*
X124892319Y-73011777D01*
G37*
G04 #@! TD.AperFunction*
G04 #@! TA.AperFunction,Conductor*
G36*
X161405284Y-85448427D02*
G01*
X161408566Y-85454866D01*
X161426996Y-85570978D01*
X161427000Y-85571000D01*
X161447000Y-85694000D01*
X161467000Y-85814000D01*
X161487000Y-85931000D01*
X161507000Y-86045000D01*
X161526999Y-86156000D01*
X161527004Y-86156028D01*
X161527003Y-86156028D01*
X161546993Y-86263971D01*
X161566993Y-86368969D01*
X161586992Y-86470967D01*
X161605308Y-86561626D01*
X161603588Y-86570414D01*
X161599539Y-86574161D01*
X161162699Y-86817821D01*
X161153805Y-86818858D01*
X161151301Y-86817821D01*
X160714460Y-86574161D01*
X160708904Y-86567138D01*
X160708691Y-86561628D01*
X160727000Y-86471000D01*
X160727007Y-86470967D01*
X160747006Y-86368969D01*
X160767006Y-86263971D01*
X160786995Y-86156028D01*
X160787985Y-86150530D01*
X160807000Y-86045000D01*
X160826999Y-85931000D01*
X160846999Y-85814000D01*
X160866999Y-85694000D01*
X160886999Y-85571000D01*
X160887003Y-85570978D01*
X160905434Y-85454866D01*
X160910115Y-85447232D01*
X160916989Y-85445000D01*
X161397011Y-85445000D01*
X161405284Y-85448427D01*
G37*
G04 #@! TD.AperFunction*
G04 #@! TA.AperFunction,Conductor*
G36*
X116629746Y-93825843D02*
G01*
X117015455Y-94166611D01*
X117019386Y-94174656D01*
X117018317Y-94180312D01*
X116992000Y-94236903D01*
X116962002Y-94305907D01*
X116931982Y-94379465D01*
X116902014Y-94457395D01*
X116882015Y-94512399D01*
X116872000Y-94539946D01*
X116842000Y-94626957D01*
X116812000Y-94718467D01*
X116782001Y-94814477D01*
X116781978Y-94814550D01*
X116752019Y-94914923D01*
X116724424Y-95011514D01*
X116718856Y-95018528D01*
X116713174Y-95020000D01*
X116530826Y-95020000D01*
X116522553Y-95016573D01*
X116519576Y-95011514D01*
X116491981Y-94914923D01*
X116462000Y-94814477D01*
X116453662Y-94787795D01*
X116431999Y-94718467D01*
X116402000Y-94626957D01*
X116372000Y-94539946D01*
X116342000Y-94457435D01*
X116341985Y-94457395D01*
X116312010Y-94379449D01*
X116281997Y-94305907D01*
X116280760Y-94303062D01*
X116252000Y-94236903D01*
X116225681Y-94180310D01*
X116225301Y-94171365D01*
X116228541Y-94166613D01*
X116614253Y-93825843D01*
X116622722Y-93822934D01*
X116629746Y-93825843D01*
G37*
G04 #@! TD.AperFunction*
G04 #@! TA.AperFunction,Conductor*
G36*
X165748669Y-83820913D02*
G01*
X166607954Y-84067405D01*
X166614961Y-84072979D01*
X166616403Y-84079392D01*
X166603999Y-84274695D01*
X166591000Y-84488717D01*
X166591001Y-84488718D01*
X166578000Y-84712145D01*
X166578000Y-84712160D01*
X166577997Y-84712211D01*
X166564999Y-84944976D01*
X166551999Y-85187153D01*
X166538999Y-85438683D01*
X166538999Y-85438695D01*
X166525999Y-85699624D01*
X166525999Y-85699634D01*
X166525998Y-85699633D01*
X166512998Y-85969916D01*
X166512999Y-85969917D01*
X166499998Y-86249597D01*
X166499999Y-86249598D01*
X166487502Y-86527486D01*
X166483707Y-86535596D01*
X166475814Y-86538660D01*
X165994888Y-86538660D01*
X165986615Y-86535233D01*
X165984042Y-86531347D01*
X165889764Y-86298262D01*
X165889758Y-86298249D01*
X165889746Y-86298218D01*
X165792492Y-86067152D01*
X165695239Y-85845461D01*
X165671063Y-85792683D01*
X165597990Y-85633154D01*
X165500746Y-85430233D01*
X165500743Y-85430228D01*
X165500732Y-85430204D01*
X165403478Y-85236638D01*
X165377344Y-85187142D01*
X165306224Y-85052446D01*
X165208968Y-84877626D01*
X165111730Y-84712211D01*
X165111698Y-84712160D01*
X165019345Y-84563958D01*
X165017879Y-84555125D01*
X165020947Y-84549555D01*
X165737124Y-83823940D01*
X165745372Y-83820460D01*
X165748669Y-83820913D01*
G37*
G04 #@! TD.AperFunction*
G04 #@! TA.AperFunction,Conductor*
G36*
X120218053Y-91040023D02*
G01*
X120222114Y-91045867D01*
X120249459Y-91134824D01*
X120279636Y-91228502D01*
X120309899Y-91317946D01*
X120340104Y-91402717D01*
X120370358Y-91483125D01*
X120400556Y-91558888D01*
X120430810Y-91630286D01*
X120461008Y-91697056D01*
X120491255Y-91759431D01*
X120517240Y-91809147D01*
X120518035Y-91818067D01*
X120514629Y-91823325D01*
X120129867Y-92164137D01*
X120121402Y-92167058D01*
X120114374Y-92164157D01*
X120114351Y-92164137D01*
X119728468Y-91824112D01*
X119724526Y-91816072D01*
X119725915Y-91809762D01*
X119726248Y-91809147D01*
X119751423Y-91762660D01*
X119781367Y-91702866D01*
X119811311Y-91638572D01*
X119841255Y-91569779D01*
X119871200Y-91496485D01*
X119901144Y-91418691D01*
X119931088Y-91336398D01*
X119961032Y-91249604D01*
X119990976Y-91158310D01*
X120018691Y-91069649D01*
X120024430Y-91062776D01*
X120028327Y-91061541D01*
X120209405Y-91037705D01*
X120218053Y-91040023D01*
G37*
G04 #@! TD.AperFunction*
G04 #@! TA.AperFunction,Conductor*
G36*
X129615206Y-87819960D02*
G01*
X129623467Y-87823414D01*
X129626866Y-87831699D01*
X129626865Y-87831794D01*
X129625601Y-87942375D01*
X129625594Y-87942681D01*
X129621805Y-88043258D01*
X129621787Y-88043591D01*
X129616211Y-88127790D01*
X129616188Y-88128091D01*
X129609406Y-88201627D01*
X129609387Y-88201813D01*
X129602000Y-88269999D01*
X129594603Y-88338270D01*
X129587797Y-88412059D01*
X129582201Y-88496573D01*
X129582200Y-88496600D01*
X129578400Y-88597450D01*
X129578400Y-88597470D01*
X129577132Y-88708434D01*
X129573611Y-88716667D01*
X129565433Y-88720000D01*
X129088567Y-88720000D01*
X129080294Y-88716573D01*
X129076868Y-88708434D01*
X129076747Y-88697894D01*
X129075600Y-88597450D01*
X129071800Y-88496600D01*
X129066199Y-88412024D01*
X129059400Y-88338299D01*
X129052000Y-88269999D01*
X129044612Y-88201813D01*
X129044594Y-88201634D01*
X129044593Y-88201627D01*
X129037807Y-88128051D01*
X129037791Y-88127849D01*
X129032208Y-88043532D01*
X129032196Y-88043299D01*
X129028405Y-87942681D01*
X129028398Y-87942375D01*
X129027134Y-87831792D01*
X129030466Y-87823482D01*
X129038698Y-87819961D01*
X129327000Y-87819000D01*
X129615206Y-87819960D01*
G37*
G04 #@! TD.AperFunction*
G04 #@! TA.AperFunction,Conductor*
G36*
X121929482Y-73360850D02*
G01*
X122770678Y-73648931D01*
X122777394Y-73654854D01*
X122777956Y-73663791D01*
X122772033Y-73670507D01*
X122770678Y-73671069D01*
X121929482Y-73959149D01*
X121924393Y-73959708D01*
X121851973Y-73951621D01*
X121776988Y-73943997D01*
X121701993Y-73937123D01*
X121627010Y-73930999D01*
X121564062Y-73926489D01*
X121552000Y-73925625D01*
X121477000Y-73921000D01*
X121476942Y-73920997D01*
X121402053Y-73917127D01*
X121364512Y-73915563D01*
X121327000Y-73914000D01*
X121326979Y-73913999D01*
X121326971Y-73913999D01*
X121251990Y-73911624D01*
X121188446Y-73910247D01*
X121180249Y-73906642D01*
X121177000Y-73898550D01*
X121177000Y-73421448D01*
X121180427Y-73413175D01*
X121188444Y-73409751D01*
X121252000Y-73408374D01*
X121327000Y-73405999D01*
X121401999Y-73402874D01*
X121477000Y-73398999D01*
X121552000Y-73394375D01*
X121627000Y-73389000D01*
X121702000Y-73382875D01*
X121777000Y-73376000D01*
X121852000Y-73368375D01*
X121924393Y-73360291D01*
X121929482Y-73360850D01*
G37*
G04 #@! TD.AperFunction*
G04 #@! TA.AperFunction,Conductor*
G36*
X112629482Y-74630850D02*
G01*
X113470678Y-74918931D01*
X113477394Y-74924854D01*
X113477956Y-74933791D01*
X113472033Y-74940507D01*
X113470678Y-74941069D01*
X112629482Y-75229149D01*
X112624393Y-75229708D01*
X112551973Y-75221621D01*
X112476988Y-75213997D01*
X112401994Y-75207123D01*
X112327010Y-75200999D01*
X112264062Y-75196489D01*
X112252000Y-75195625D01*
X112177000Y-75191000D01*
X112176942Y-75190997D01*
X112102053Y-75187127D01*
X112064512Y-75185563D01*
X112027000Y-75184000D01*
X112026979Y-75183999D01*
X112026971Y-75183999D01*
X111951990Y-75181624D01*
X111888446Y-75180247D01*
X111880249Y-75176642D01*
X111877000Y-75168550D01*
X111877000Y-74691448D01*
X111880427Y-74683175D01*
X111888444Y-74679751D01*
X111952000Y-74678374D01*
X112027000Y-74675999D01*
X112102000Y-74672874D01*
X112177000Y-74668999D01*
X112252000Y-74664375D01*
X112327000Y-74659000D01*
X112402000Y-74652875D01*
X112477000Y-74646000D01*
X112552000Y-74638375D01*
X112624393Y-74630291D01*
X112629482Y-74630850D01*
G37*
G04 #@! TD.AperFunction*
G04 #@! TA.AperFunction,Conductor*
G36*
X129573963Y-88523427D02*
G01*
X129577383Y-88531303D01*
X129578398Y-88561222D01*
X129578399Y-88561236D01*
X129582200Y-88594997D01*
X129582200Y-88594998D01*
X129587797Y-88623113D01*
X129594601Y-88647501D01*
X129602000Y-88670000D01*
X129609311Y-88692232D01*
X129609467Y-88692743D01*
X129616081Y-88716452D01*
X129616286Y-88717311D01*
X129621703Y-88744517D01*
X129621855Y-88745493D01*
X129625549Y-88778307D01*
X129625615Y-88779219D01*
X129626590Y-88807943D01*
X129623446Y-88816328D01*
X129615294Y-88820033D01*
X129614936Y-88820040D01*
X129327039Y-88820999D01*
X129326961Y-88820999D01*
X129039063Y-88820040D01*
X129030801Y-88816586D01*
X129027402Y-88808301D01*
X129027409Y-88807943D01*
X129028384Y-88779219D01*
X129028450Y-88778307D01*
X129032145Y-88745490D01*
X129032297Y-88744515D01*
X129037717Y-88717289D01*
X129037910Y-88716480D01*
X129044540Y-88692714D01*
X129044677Y-88692265D01*
X129052000Y-88670000D01*
X129059400Y-88647497D01*
X129066200Y-88623121D01*
X129071800Y-88594995D01*
X129075600Y-88561246D01*
X129075601Y-88561222D01*
X129076617Y-88531303D01*
X129080322Y-88523151D01*
X129088310Y-88520000D01*
X129565690Y-88520000D01*
X129573963Y-88523427D01*
G37*
G04 #@! TD.AperFunction*
G04 #@! TA.AperFunction,Conductor*
G36*
X158362489Y-64880453D02*
G01*
X158367940Y-64887557D01*
X158368001Y-64887795D01*
X158388684Y-64972031D01*
X158412225Y-65064912D01*
X158435766Y-65154790D01*
X158459325Y-65241735D01*
X158482847Y-65325549D01*
X158506402Y-65406475D01*
X158506405Y-65406485D01*
X158527289Y-65475575D01*
X158529966Y-65484429D01*
X158553467Y-65559182D01*
X158553489Y-65559249D01*
X158569529Y-65608226D01*
X158577042Y-65631164D01*
X158597875Y-65692117D01*
X158597308Y-65701054D01*
X158593988Y-65705136D01*
X158168985Y-66035732D01*
X158160350Y-66038107D01*
X158155214Y-66036167D01*
X157711225Y-65733731D01*
X157706318Y-65726242D01*
X157706614Y-65720676D01*
X157721933Y-65670065D01*
X157739739Y-65608235D01*
X157757545Y-65543405D01*
X157775351Y-65475575D01*
X157793158Y-65404745D01*
X157793172Y-65404690D01*
X157799453Y-65378642D01*
X157810964Y-65330915D01*
X157828770Y-65254085D01*
X157846576Y-65174255D01*
X157864382Y-65091425D01*
X157869874Y-65064956D01*
X157871209Y-65058517D01*
X157880724Y-65012651D01*
X157885760Y-65005249D01*
X157889149Y-65003729D01*
X158353612Y-64879284D01*
X158362489Y-64880453D01*
G37*
G04 #@! TD.AperFunction*
G04 #@! TA.AperFunction,Conductor*
G36*
X168530800Y-80965240D02*
G01*
X168533971Y-80971079D01*
X168592809Y-81247709D01*
X168653642Y-81524335D01*
X168714466Y-81791540D01*
X168775262Y-82049258D01*
X168836080Y-82297690D01*
X168896922Y-82536844D01*
X168957732Y-82766495D01*
X169018546Y-82986790D01*
X169079367Y-83197734D01*
X169137319Y-83389792D01*
X169136428Y-83398703D01*
X169131278Y-83403673D01*
X168287160Y-83818464D01*
X168278224Y-83819037D01*
X168276840Y-83818464D01*
X167432721Y-83403673D01*
X167426807Y-83396948D01*
X167426680Y-83389794D01*
X167484631Y-83197735D01*
X167545450Y-82986799D01*
X167606269Y-82766488D01*
X167667087Y-82536802D01*
X167727906Y-82297742D01*
X167788725Y-82049306D01*
X167788737Y-82049258D01*
X167849532Y-81791540D01*
X167849543Y-81791495D01*
X167910362Y-81524309D01*
X167971181Y-81247748D01*
X167971190Y-81247709D01*
X168030029Y-80971079D01*
X168035102Y-80963700D01*
X168041473Y-80961813D01*
X168522527Y-80961813D01*
X168530800Y-80965240D01*
G37*
G04 #@! TD.AperFunction*
G04 #@! TA.AperFunction,Conductor*
G36*
X164789746Y-93825843D02*
G01*
X165175455Y-94166611D01*
X165179386Y-94174656D01*
X165178317Y-94180312D01*
X165152000Y-94236903D01*
X165122002Y-94305907D01*
X165091989Y-94379449D01*
X165062007Y-94457414D01*
X165031997Y-94539955D01*
X165002003Y-94626947D01*
X164972008Y-94718442D01*
X164941978Y-94814550D01*
X164912019Y-94914923D01*
X164884424Y-95011514D01*
X164878856Y-95018528D01*
X164873174Y-95020000D01*
X164690826Y-95020000D01*
X164682553Y-95016573D01*
X164679576Y-95011514D01*
X164651981Y-94914923D01*
X164622022Y-94814550D01*
X164622000Y-94814478D01*
X164592000Y-94718467D01*
X164562000Y-94626957D01*
X164532000Y-94539946D01*
X164502000Y-94457435D01*
X164501992Y-94457414D01*
X164472010Y-94379449D01*
X164441997Y-94305907D01*
X164440760Y-94303062D01*
X164412000Y-94236903D01*
X164385681Y-94180310D01*
X164385301Y-94171365D01*
X164388541Y-94166613D01*
X164774253Y-93825843D01*
X164782722Y-93822934D01*
X164789746Y-93825843D01*
G37*
G04 #@! TD.AperFunction*
G04 #@! TA.AperFunction,Conductor*
G36*
X123399901Y-82949750D02*
G01*
X123445960Y-82973429D01*
X123594271Y-83049676D01*
X123594288Y-83049684D01*
X123594294Y-83049687D01*
X123797928Y-83144999D01*
X123797937Y-83145002D01*
X123797946Y-83145007D01*
X124001537Y-83230927D01*
X124001561Y-83230937D01*
X124205196Y-83307499D01*
X124408830Y-83374687D01*
X124408836Y-83374688D01*
X124408840Y-83374690D01*
X124612468Y-83432501D01*
X124816097Y-83480937D01*
X124874422Y-83492125D01*
X125019732Y-83520000D01*
X125223366Y-83549687D01*
X125416462Y-83568948D01*
X125424353Y-83573179D01*
X125427000Y-83580590D01*
X125427000Y-84059409D01*
X125423573Y-84067682D01*
X125416461Y-84071051D01*
X125223371Y-84090311D01*
X125019736Y-84119998D01*
X125019698Y-84120005D01*
X124816097Y-84159061D01*
X124612468Y-84207497D01*
X124408840Y-84265308D01*
X124205206Y-84332496D01*
X124001537Y-84409071D01*
X123797946Y-84494991D01*
X123594271Y-84590322D01*
X123399902Y-84690248D01*
X123390978Y-84690983D01*
X123384852Y-84686382D01*
X122805404Y-83826536D01*
X122803623Y-83817763D01*
X122805403Y-83813465D01*
X123384853Y-82953616D01*
X123392316Y-82948672D01*
X123399901Y-82949750D01*
G37*
G04 #@! TD.AperFunction*
G04 #@! TA.AperFunction,Conductor*
G36*
X122804221Y-83821926D02*
G01*
X122806875Y-83823940D01*
X123523050Y-84549552D01*
X123526423Y-84557848D01*
X123524653Y-84563959D01*
X123432268Y-84712211D01*
X123335030Y-84877626D01*
X123237774Y-85052446D01*
X123140537Y-85236606D01*
X123043253Y-85430233D01*
X122946008Y-85633154D01*
X122848757Y-85845466D01*
X122751526Y-86067106D01*
X122654234Y-86298262D01*
X122559958Y-86531347D01*
X122553679Y-86537732D01*
X122549112Y-86538660D01*
X122068185Y-86538660D01*
X122059912Y-86535233D01*
X122056497Y-86527486D01*
X122044000Y-86249598D01*
X122044000Y-86249597D01*
X122031000Y-85969917D01*
X122031000Y-85969916D01*
X122018000Y-85699633D01*
X122018000Y-85699624D01*
X122005000Y-85438695D01*
X121994558Y-85236638D01*
X121992001Y-85187153D01*
X121979000Y-84944976D01*
X121966002Y-84712211D01*
X121965999Y-84712160D01*
X121952999Y-84488732D01*
X121951903Y-84470685D01*
X121940001Y-84274695D01*
X121927596Y-84079392D01*
X121930491Y-84070918D01*
X121936042Y-84067405D01*
X122795326Y-83820914D01*
X122804221Y-83821926D01*
G37*
G04 #@! TD.AperFunction*
G04 #@! TA.AperFunction,Conductor*
G36*
X168145889Y-73711072D02*
G01*
X168147111Y-73711181D01*
X168155852Y-73712439D01*
X168192815Y-73717755D01*
X168193689Y-73717915D01*
X168203880Y-73720181D01*
X168211211Y-73725322D01*
X168212760Y-73734142D01*
X168208856Y-73740568D01*
X168201622Y-73746633D01*
X168200184Y-73747663D01*
X168179878Y-73760000D01*
X168156243Y-73774358D01*
X168153759Y-73775493D01*
X168114342Y-73788204D01*
X168109197Y-73788665D01*
X168080056Y-73784760D01*
X168072757Y-73780814D01*
X168053683Y-73758741D01*
X168050848Y-73751615D01*
X168050147Y-73735971D01*
X168053200Y-73727556D01*
X168054729Y-73726155D01*
X168066849Y-73716909D01*
X168072040Y-73714670D01*
X168102107Y-73709733D01*
X168104410Y-73709586D01*
X168145889Y-73711072D01*
G37*
G04 #@! TD.AperFunction*
G04 #@! TA.AperFunction,Conductor*
G36*
X168296955Y-73564341D02*
G01*
X168307876Y-73567512D01*
X168314865Y-73573110D01*
X168315765Y-73575208D01*
X168320496Y-73590111D01*
X168320423Y-73597412D01*
X168310300Y-73627233D01*
X168308949Y-73629973D01*
X168303428Y-73638234D01*
X168295981Y-73643208D01*
X168287199Y-73641461D01*
X168282225Y-73634014D01*
X168282000Y-73631733D01*
X168282000Y-73575579D01*
X168285427Y-73567306D01*
X168293700Y-73563879D01*
X168296955Y-73564341D01*
G37*
G04 #@! TD.AperFunction*
G04 #@! TA.AperFunction,Conductor*
G36*
X159834257Y-68323776D02*
G01*
X160626845Y-68568822D01*
X160633737Y-68574540D01*
X160634567Y-68583456D01*
X160628849Y-68590348D01*
X160626845Y-68591178D01*
X159733912Y-68867247D01*
X159725503Y-68866669D01*
X159660328Y-68836218D01*
X159591089Y-68806870D01*
X159591087Y-68806869D01*
X159591077Y-68806865D01*
X159521817Y-68780507D01*
X159521799Y-68780500D01*
X159452569Y-68757152D01*
X159383295Y-68736789D01*
X159314030Y-68719429D01*
X159244791Y-68705076D01*
X159175522Y-68693716D01*
X159106248Y-68685356D01*
X159047798Y-68680835D01*
X159039813Y-68676780D01*
X159037000Y-68669170D01*
X159037000Y-68490829D01*
X159040427Y-68482556D01*
X159047796Y-68479164D01*
X159092660Y-68475693D01*
X159106248Y-68474642D01*
X159106251Y-68474641D01*
X159106259Y-68474641D01*
X159175519Y-68466283D01*
X159244779Y-68454925D01*
X159286334Y-68446310D01*
X159314030Y-68440569D01*
X159383295Y-68423210D01*
X159392546Y-68420490D01*
X159452558Y-68402850D01*
X159521817Y-68379492D01*
X159591077Y-68353134D01*
X159660337Y-68323776D01*
X159725504Y-68293329D01*
X159733912Y-68292752D01*
X159834257Y-68323776D01*
G37*
G04 #@! TD.AperFunction*
G04 #@! TA.AperFunction,Conductor*
G36*
X112674257Y-69593776D02*
G01*
X113466845Y-69838822D01*
X113473737Y-69844540D01*
X113474567Y-69853456D01*
X113468849Y-69860348D01*
X113466845Y-69861178D01*
X112573912Y-70137247D01*
X112565503Y-70136669D01*
X112500328Y-70106218D01*
X112431089Y-70076870D01*
X112431087Y-70076869D01*
X112431077Y-70076865D01*
X112361817Y-70050507D01*
X112361799Y-70050500D01*
X112292569Y-70027152D01*
X112223295Y-70006789D01*
X112154030Y-69989429D01*
X112084791Y-69975076D01*
X112015522Y-69963716D01*
X111946248Y-69955356D01*
X111887798Y-69950835D01*
X111879813Y-69946780D01*
X111877000Y-69939170D01*
X111877000Y-69760829D01*
X111880427Y-69752556D01*
X111887796Y-69749164D01*
X111932660Y-69745693D01*
X111946248Y-69744642D01*
X111946251Y-69744641D01*
X111946259Y-69744641D01*
X112015519Y-69736283D01*
X112084779Y-69724925D01*
X112126334Y-69716310D01*
X112154030Y-69710569D01*
X112223295Y-69693210D01*
X112232546Y-69690490D01*
X112292558Y-69672850D01*
X112361817Y-69649492D01*
X112431077Y-69623134D01*
X112500337Y-69593776D01*
X112565504Y-69563329D01*
X112573912Y-69562752D01*
X112674257Y-69593776D01*
G37*
G04 #@! TD.AperFunction*
G04 #@! TA.AperFunction,Conductor*
G36*
X115430800Y-80965240D02*
G01*
X115433971Y-80971079D01*
X115492809Y-81247709D01*
X115553642Y-81524335D01*
X115614466Y-81791540D01*
X115675262Y-82049258D01*
X115736080Y-82297690D01*
X115796922Y-82536844D01*
X115857732Y-82766495D01*
X115918546Y-82986790D01*
X115979367Y-83197734D01*
X116037319Y-83389792D01*
X116036428Y-83398703D01*
X116031278Y-83403673D01*
X115187160Y-83818464D01*
X115178224Y-83819037D01*
X115176840Y-83818464D01*
X114332721Y-83403673D01*
X114326807Y-83396948D01*
X114326680Y-83389794D01*
X114384631Y-83197735D01*
X114445450Y-82986799D01*
X114506269Y-82766488D01*
X114567087Y-82536802D01*
X114627906Y-82297742D01*
X114688725Y-82049306D01*
X114688737Y-82049258D01*
X114749532Y-81791540D01*
X114749543Y-81791495D01*
X114810362Y-81524309D01*
X114871181Y-81247748D01*
X114871190Y-81247709D01*
X114930029Y-80971079D01*
X114935102Y-80963700D01*
X114941473Y-80961813D01*
X115422527Y-80961813D01*
X115430800Y-80965240D01*
G37*
G04 #@! TD.AperFunction*
G04 #@! TA.AperFunction,Conductor*
G36*
X158420986Y-65592675D02*
G01*
X158439504Y-65598190D01*
X158524501Y-65623501D01*
X158636997Y-65654000D01*
X158749483Y-65681496D01*
X158749488Y-65681497D01*
X158749500Y-65681500D01*
X158862000Y-65706000D01*
X158974500Y-65727500D01*
X159053146Y-65740432D01*
X159086980Y-65745996D01*
X159086990Y-65745997D01*
X159087000Y-65745999D01*
X159199500Y-65761499D01*
X159259498Y-65768165D01*
X159311966Y-65773996D01*
X159311995Y-65773998D01*
X159312000Y-65773999D01*
X159424500Y-65783499D01*
X159525977Y-65789363D01*
X159534037Y-65793261D01*
X159537000Y-65801043D01*
X159537000Y-66278956D01*
X159533573Y-66287229D01*
X159525975Y-66290637D01*
X159424498Y-66296500D01*
X159311966Y-66306002D01*
X159199535Y-66318496D01*
X159199530Y-66318496D01*
X159199500Y-66318500D01*
X159087000Y-66334000D01*
X159086997Y-66334000D01*
X159086986Y-66334002D01*
X158974491Y-66352501D01*
X158862003Y-66373998D01*
X158749483Y-66398502D01*
X158636997Y-66425998D01*
X158524501Y-66456497D01*
X158420988Y-66487323D01*
X158412081Y-66486400D01*
X158407431Y-66481809D01*
X158393314Y-66456499D01*
X158164177Y-66045697D01*
X158163141Y-66036805D01*
X158164175Y-66034306D01*
X158407432Y-65598188D01*
X158414454Y-65592634D01*
X158420986Y-65592675D01*
G37*
G04 #@! TD.AperFunction*
G04 #@! TA.AperFunction,Conductor*
G36*
X170912000Y-65748375D02*
G01*
X170987000Y-65756000D01*
X171062000Y-65762875D01*
X171137000Y-65769000D01*
X171212000Y-65774375D01*
X171287000Y-65778999D01*
X171362000Y-65782874D01*
X171437000Y-65785999D01*
X171512000Y-65788374D01*
X171575554Y-65789751D01*
X171583750Y-65793356D01*
X171587000Y-65801448D01*
X171587000Y-66278550D01*
X171583573Y-66286823D01*
X171575554Y-66290247D01*
X171512009Y-66291624D01*
X171437028Y-66293999D01*
X171437016Y-66293999D01*
X171437000Y-66294000D01*
X171406995Y-66295250D01*
X171361946Y-66297127D01*
X171287058Y-66300997D01*
X171287000Y-66301000D01*
X171212000Y-66305625D01*
X171206231Y-66306038D01*
X171136989Y-66310999D01*
X171062005Y-66317123D01*
X170987011Y-66323997D01*
X170912026Y-66331621D01*
X170839606Y-66339708D01*
X170834517Y-66339149D01*
X169993321Y-66051069D01*
X169986605Y-66045146D01*
X169986043Y-66036209D01*
X169991966Y-66029493D01*
X169993321Y-66028931D01*
X170834518Y-65740849D01*
X170839606Y-65740291D01*
X170912000Y-65748375D01*
G37*
G04 #@! TD.AperFunction*
G04 #@! TA.AperFunction,Conductor*
G36*
X168284221Y-83821926D02*
G01*
X168286875Y-83823940D01*
X169003050Y-84549552D01*
X169006423Y-84557848D01*
X169004653Y-84563959D01*
X168912268Y-84712211D01*
X168815030Y-84877626D01*
X168717774Y-85052446D01*
X168620537Y-85236606D01*
X168523253Y-85430233D01*
X168426008Y-85633154D01*
X168328757Y-85845466D01*
X168231526Y-86067106D01*
X168134234Y-86298262D01*
X168039958Y-86531347D01*
X168033679Y-86537732D01*
X168029112Y-86538660D01*
X167548185Y-86538660D01*
X167539912Y-86535233D01*
X167536497Y-86527486D01*
X167524000Y-86249598D01*
X167524000Y-86249597D01*
X167511000Y-85969917D01*
X167511000Y-85969916D01*
X167498000Y-85699633D01*
X167498000Y-85699624D01*
X167485000Y-85438695D01*
X167474558Y-85236638D01*
X167472001Y-85187153D01*
X167459000Y-84944976D01*
X167446002Y-84712211D01*
X167445999Y-84712160D01*
X167432999Y-84488732D01*
X167431903Y-84470685D01*
X167420001Y-84274695D01*
X167407596Y-84079392D01*
X167410491Y-84070918D01*
X167416042Y-84067405D01*
X168275326Y-83820914D01*
X168284221Y-83821926D01*
G37*
G04 #@! TD.AperFunction*
G04 #@! TA.AperFunction,Conductor*
G36*
X157881447Y-90973427D02*
G01*
X157884424Y-90978486D01*
X157912010Y-91075044D01*
X157941978Y-91175449D01*
X157941989Y-91175485D01*
X157942000Y-91175521D01*
X157972000Y-91271531D01*
X158002000Y-91363042D01*
X158032000Y-91450053D01*
X158055389Y-91514380D01*
X158062014Y-91532602D01*
X158091983Y-91610533D01*
X158122002Y-91684090D01*
X158152000Y-91753094D01*
X158178317Y-91809686D01*
X158178698Y-91818633D01*
X158175455Y-91823388D01*
X157789747Y-92164155D01*
X157781278Y-92167065D01*
X157774253Y-92164155D01*
X157552441Y-91968188D01*
X157388543Y-91823387D01*
X157384613Y-91815342D01*
X157385681Y-91809689D01*
X157412000Y-91753095D01*
X157442000Y-91684084D01*
X157472000Y-91610574D01*
X157502000Y-91532563D01*
X157532000Y-91450053D01*
X157562000Y-91363042D01*
X157592000Y-91271531D01*
X157622000Y-91175521D01*
X157622010Y-91175485D01*
X157622022Y-91175449D01*
X157633241Y-91137857D01*
X157652000Y-91075010D01*
X157679576Y-90978486D01*
X157685144Y-90971472D01*
X157690826Y-90970000D01*
X157873174Y-90970000D01*
X157881447Y-90973427D01*
G37*
G04 #@! TD.AperFunction*
G04 #@! TA.AperFunction,Conductor*
G36*
X120361192Y-80965240D02*
G01*
X120364252Y-80970609D01*
X120437818Y-81257873D01*
X120513637Y-81542309D01*
X120557051Y-81698523D01*
X120589463Y-81815147D01*
X120665267Y-82076285D01*
X120741093Y-82325867D01*
X120816912Y-82563802D01*
X120865480Y-82708774D01*
X120892737Y-82790135D01*
X120968539Y-83004771D01*
X121044373Y-83207873D01*
X121116208Y-83389251D01*
X121116068Y-83398205D01*
X121110490Y-83404060D01*
X120267160Y-83818464D01*
X120258224Y-83819037D01*
X120256840Y-83818464D01*
X119413509Y-83404060D01*
X119407595Y-83397335D01*
X119407791Y-83389251D01*
X119479631Y-83207860D01*
X119555450Y-83004799D01*
X119631269Y-82790113D01*
X119707087Y-82563802D01*
X119782906Y-82325867D01*
X119858725Y-82076306D01*
X119934543Y-81815120D01*
X120010362Y-81542309D01*
X120086181Y-81257873D01*
X120159747Y-80970609D01*
X120165119Y-80963446D01*
X120171081Y-80961813D01*
X120352919Y-80961813D01*
X120361192Y-80965240D01*
G37*
G04 #@! TD.AperFunction*
G04 #@! TA.AperFunction,Conductor*
G36*
X157911918Y-67143599D02*
G01*
X157916568Y-67148190D01*
X158159821Y-67584301D01*
X158160858Y-67593195D01*
X158159821Y-67595699D01*
X157916568Y-68031809D01*
X157909545Y-68037365D01*
X157903011Y-68037323D01*
X157799498Y-68006497D01*
X157687002Y-67975998D01*
X157574516Y-67948502D01*
X157461996Y-67923998D01*
X157349508Y-67902501D01*
X157237013Y-67884002D01*
X157237007Y-67884001D01*
X157237000Y-67884000D01*
X157124500Y-67868500D01*
X157124464Y-67868496D01*
X157012033Y-67856002D01*
X156899501Y-67846500D01*
X156798025Y-67840637D01*
X156789963Y-67836738D01*
X156787000Y-67828956D01*
X156787000Y-67351043D01*
X156790427Y-67342770D01*
X156798022Y-67339363D01*
X156899500Y-67333499D01*
X157012000Y-67323999D01*
X157012008Y-67323998D01*
X157012033Y-67323996D01*
X157057005Y-67318998D01*
X157124500Y-67311499D01*
X157237000Y-67295999D01*
X157237014Y-67295996D01*
X157237019Y-67295996D01*
X157251582Y-67293601D01*
X157349500Y-67277500D01*
X157462000Y-67256000D01*
X157574500Y-67231500D01*
X157591821Y-67227265D01*
X157687002Y-67204000D01*
X157799498Y-67173501D01*
X157836583Y-67162457D01*
X157903012Y-67142676D01*
X157911918Y-67143599D01*
G37*
G04 #@! TD.AperFunction*
G04 #@! TA.AperFunction,Conductor*
G36*
X164754088Y-91131537D02*
G01*
X164875893Y-91147571D01*
X164883648Y-91152048D01*
X164885431Y-91155370D01*
X164913017Y-91235684D01*
X164942980Y-91318416D01*
X164972929Y-91396615D01*
X165002883Y-91470324D01*
X165032811Y-91539469D01*
X165032826Y-91539503D01*
X165057717Y-91593273D01*
X165062787Y-91604225D01*
X165092714Y-91664379D01*
X165111556Y-91699419D01*
X165119536Y-91714260D01*
X165122675Y-91720096D01*
X165152623Y-91771291D01*
X165177151Y-91809535D01*
X165178732Y-91818349D01*
X165175036Y-91824630D01*
X164789626Y-92164158D01*
X164781153Y-92167056D01*
X164774133Y-92164136D01*
X164389922Y-91823732D01*
X164386002Y-91815681D01*
X164387709Y-91808856D01*
X164412795Y-91767991D01*
X164443017Y-91714260D01*
X164473239Y-91656029D01*
X164503460Y-91593299D01*
X164533682Y-91526068D01*
X164563904Y-91454337D01*
X164594125Y-91378107D01*
X164624347Y-91297376D01*
X164654569Y-91212145D01*
X164681719Y-91131535D01*
X164687606Y-91124790D01*
X164694332Y-91123671D01*
X164754088Y-91131537D01*
G37*
G04 #@! TD.AperFunction*
G04 #@! TA.AperFunction,Conductor*
G36*
X170898495Y-68293329D02*
G01*
X170931005Y-68308518D01*
X170963670Y-68323780D01*
X171002052Y-68340049D01*
X171032922Y-68353134D01*
X171102182Y-68379492D01*
X171102192Y-68379495D01*
X171102199Y-68379498D01*
X171171429Y-68402846D01*
X171171441Y-68402850D01*
X171208434Y-68413724D01*
X171240703Y-68423210D01*
X171309968Y-68440569D01*
X171354474Y-68449795D01*
X171379220Y-68454925D01*
X171448480Y-68466283D01*
X171517740Y-68474641D01*
X171517744Y-68474641D01*
X171517750Y-68474642D01*
X171535870Y-68476043D01*
X171576203Y-68479164D01*
X171584187Y-68483219D01*
X171587000Y-68490829D01*
X171587000Y-68669170D01*
X171583573Y-68677443D01*
X171576202Y-68680835D01*
X171517750Y-68685356D01*
X171448476Y-68693716D01*
X171379207Y-68705076D01*
X171309968Y-68719429D01*
X171240703Y-68736789D01*
X171171429Y-68757152D01*
X171102199Y-68780500D01*
X171032909Y-68806870D01*
X170963670Y-68836218D01*
X170898496Y-68866669D01*
X170890087Y-68867247D01*
X170215153Y-68658577D01*
X169997153Y-68591177D01*
X169990262Y-68585460D01*
X169989432Y-68576544D01*
X169995150Y-68569652D01*
X169997152Y-68568822D01*
X170890088Y-68292752D01*
X170898495Y-68293329D01*
G37*
G04 #@! TD.AperFunction*
G04 #@! TA.AperFunction,Conductor*
G36*
X123721447Y-90973427D02*
G01*
X123724424Y-90978486D01*
X123752010Y-91075044D01*
X123781978Y-91175450D01*
X123781996Y-91175507D01*
X123782000Y-91175521D01*
X123811999Y-91271531D01*
X123842000Y-91363042D01*
X123872000Y-91450053D01*
X123895389Y-91514380D01*
X123902014Y-91532602D01*
X123931983Y-91610533D01*
X123962002Y-91684090D01*
X123992000Y-91753094D01*
X124018317Y-91809686D01*
X124018698Y-91818633D01*
X124015455Y-91823388D01*
X123629747Y-92164155D01*
X123621278Y-92167065D01*
X123614253Y-92164155D01*
X123392441Y-91968188D01*
X123228543Y-91823387D01*
X123224613Y-91815342D01*
X123225681Y-91809689D01*
X123252000Y-91753095D01*
X123282000Y-91684084D01*
X123311999Y-91610574D01*
X123342000Y-91532563D01*
X123372000Y-91450053D01*
X123402000Y-91363042D01*
X123432000Y-91271531D01*
X123462000Y-91175521D01*
X123462010Y-91175485D01*
X123462022Y-91175449D01*
X123473241Y-91137857D01*
X123492000Y-91075010D01*
X123519576Y-90978486D01*
X123525144Y-90971472D01*
X123530826Y-90970000D01*
X123713174Y-90970000D01*
X123721447Y-90973427D01*
G37*
G04 #@! TD.AperFunction*
G04 #@! TA.AperFunction,Conductor*
G36*
X121005284Y-85448427D02*
G01*
X121008566Y-85454866D01*
X121026996Y-85570978D01*
X121027000Y-85571000D01*
X121047000Y-85694000D01*
X121067000Y-85814000D01*
X121087000Y-85931000D01*
X121107000Y-86045000D01*
X121126999Y-86156000D01*
X121127004Y-86156028D01*
X121127003Y-86156028D01*
X121146993Y-86263971D01*
X121166993Y-86368969D01*
X121186992Y-86470967D01*
X121205308Y-86561626D01*
X121203588Y-86570414D01*
X121199539Y-86574161D01*
X120762699Y-86817821D01*
X120753805Y-86818858D01*
X120751301Y-86817821D01*
X120314460Y-86574161D01*
X120308904Y-86567138D01*
X120308691Y-86561628D01*
X120327000Y-86471000D01*
X120327007Y-86470967D01*
X120347006Y-86368969D01*
X120367006Y-86263971D01*
X120386995Y-86156028D01*
X120387985Y-86150530D01*
X120407000Y-86045000D01*
X120426999Y-85931000D01*
X120446999Y-85814000D01*
X120466999Y-85694000D01*
X120486999Y-85571000D01*
X120487003Y-85570978D01*
X120505434Y-85454866D01*
X120510115Y-85447232D01*
X120516989Y-85445000D01*
X120997011Y-85445000D01*
X121005284Y-85448427D01*
G37*
G04 #@! TD.AperFunction*
G04 #@! TA.AperFunction,Conductor*
G36*
X113748706Y-75533427D02*
G01*
X113752132Y-75541566D01*
X113753400Y-75652549D01*
X113757200Y-75753399D01*
X113757201Y-75753425D01*
X113762796Y-75837938D01*
X113769603Y-75911727D01*
X113777000Y-75979999D01*
X113784386Y-76048178D01*
X113784405Y-76048363D01*
X113791189Y-76121908D01*
X113791212Y-76122210D01*
X113796787Y-76206407D01*
X113796805Y-76206740D01*
X113800594Y-76307317D01*
X113800601Y-76307623D01*
X113801865Y-76418205D01*
X113798533Y-76426517D01*
X113790300Y-76430038D01*
X113790205Y-76430039D01*
X113502039Y-76430999D01*
X113501961Y-76430999D01*
X113213794Y-76430039D01*
X113205532Y-76426585D01*
X113202133Y-76418301D01*
X113203398Y-76307620D01*
X113203405Y-76307317D01*
X113207196Y-76206695D01*
X113207208Y-76206471D01*
X113212792Y-76122141D01*
X113212806Y-76121951D01*
X113219594Y-76048353D01*
X113219613Y-76048178D01*
X113227000Y-75979999D01*
X113234400Y-75911699D01*
X113241200Y-75837974D01*
X113246800Y-75753399D01*
X113250600Y-75652549D01*
X113251868Y-75541566D01*
X113255389Y-75533333D01*
X113263567Y-75530000D01*
X113740433Y-75530000D01*
X113748706Y-75533427D01*
G37*
G04 #@! TD.AperFunction*
G04 #@! TA.AperFunction,Conductor*
G36*
X122810258Y-74937285D02*
G01*
X123098152Y-75226139D01*
X123101565Y-75234417D01*
X123101520Y-75235427D01*
X123098948Y-75264549D01*
X123096999Y-75286625D01*
X123091999Y-75344000D01*
X123086999Y-75402125D01*
X123084258Y-75434391D01*
X123081998Y-75461005D01*
X123076999Y-75520618D01*
X123077000Y-75520619D01*
X123071999Y-75580993D01*
X123072000Y-75580994D01*
X123066999Y-75642118D01*
X123067000Y-75642119D01*
X123062000Y-75703993D01*
X123062000Y-75704000D01*
X123059588Y-75734206D01*
X123057000Y-75766618D01*
X123057000Y-75766625D01*
X123052850Y-75819221D01*
X123048784Y-75827198D01*
X123041187Y-75830000D01*
X122562813Y-75830000D01*
X122554540Y-75826573D01*
X122551149Y-75819220D01*
X122546999Y-75766625D01*
X122541999Y-75704000D01*
X122536999Y-75642125D01*
X122536999Y-75642119D01*
X122536999Y-75642118D01*
X122531999Y-75580993D01*
X122531999Y-75580992D01*
X122527001Y-75520631D01*
X122522001Y-75461006D01*
X122519740Y-75434391D01*
X122517000Y-75402125D01*
X122512000Y-75344000D01*
X122507000Y-75286625D01*
X122502479Y-75235426D01*
X122505165Y-75226885D01*
X122505833Y-75226153D01*
X122793714Y-74937313D01*
X122801981Y-74933873D01*
X122810258Y-74937285D01*
G37*
G04 #@! TD.AperFunction*
G04 #@! TA.AperFunction,Conductor*
G36*
X168035284Y-85448427D02*
G01*
X168038566Y-85454866D01*
X168056996Y-85570978D01*
X168057000Y-85571000D01*
X168077000Y-85694000D01*
X168097000Y-85814000D01*
X168117000Y-85931000D01*
X168137000Y-86045000D01*
X168156999Y-86156000D01*
X168157004Y-86156028D01*
X168157003Y-86156028D01*
X168176993Y-86263971D01*
X168196993Y-86368969D01*
X168216992Y-86470967D01*
X168235308Y-86561626D01*
X168233588Y-86570414D01*
X168229539Y-86574161D01*
X167792699Y-86817821D01*
X167783805Y-86818858D01*
X167781301Y-86817821D01*
X167344460Y-86574161D01*
X167338904Y-86567138D01*
X167338691Y-86561628D01*
X167357000Y-86471000D01*
X167357007Y-86470967D01*
X167377006Y-86368969D01*
X167397006Y-86263971D01*
X167416995Y-86156028D01*
X167417985Y-86150530D01*
X167437000Y-86045000D01*
X167456999Y-85931000D01*
X167476999Y-85814000D01*
X167496999Y-85694000D01*
X167516999Y-85571000D01*
X167517003Y-85570978D01*
X167535434Y-85454866D01*
X167540115Y-85447232D01*
X167546989Y-85445000D01*
X168027011Y-85445000D01*
X168035284Y-85448427D01*
G37*
G04 #@! TD.AperFunction*
G04 #@! TA.AperFunction,Conductor*
G36*
X162955284Y-85448427D02*
G01*
X162958566Y-85454866D01*
X162976996Y-85570978D01*
X162977000Y-85571000D01*
X162997000Y-85694000D01*
X163017000Y-85814000D01*
X163037000Y-85931000D01*
X163057000Y-86045000D01*
X163076999Y-86156000D01*
X163077004Y-86156028D01*
X163077003Y-86156028D01*
X163096993Y-86263971D01*
X163116993Y-86368969D01*
X163136992Y-86470967D01*
X163155308Y-86561626D01*
X163153588Y-86570414D01*
X163149539Y-86574161D01*
X162712699Y-86817821D01*
X162703805Y-86818858D01*
X162701301Y-86817821D01*
X162264460Y-86574161D01*
X162258904Y-86567138D01*
X162258691Y-86561628D01*
X162277000Y-86471000D01*
X162277007Y-86470967D01*
X162297006Y-86368969D01*
X162317006Y-86263971D01*
X162336995Y-86156028D01*
X162337985Y-86150530D01*
X162357000Y-86045000D01*
X162376999Y-85931000D01*
X162396999Y-85814000D01*
X162416999Y-85694000D01*
X162436999Y-85571000D01*
X162437003Y-85570978D01*
X162455434Y-85454866D01*
X162460115Y-85447232D01*
X162466989Y-85445000D01*
X162947011Y-85445000D01*
X162955284Y-85448427D01*
G37*
G04 #@! TD.AperFunction*
G04 #@! TA.AperFunction,Conductor*
G36*
X133773517Y-88523466D02*
G01*
X133777038Y-88531699D01*
X133777039Y-88531794D01*
X133778000Y-88820000D01*
X133778000Y-88820078D01*
X133777039Y-89108205D01*
X133773585Y-89116467D01*
X133765300Y-89119866D01*
X133765205Y-89119865D01*
X133654623Y-89118601D01*
X133654317Y-89118594D01*
X133553740Y-89114805D01*
X133553407Y-89114787D01*
X133469210Y-89109212D01*
X133468908Y-89109189D01*
X133395363Y-89102405D01*
X133395178Y-89102386D01*
X133326999Y-89095000D01*
X133258727Y-89087603D01*
X133258724Y-89087602D01*
X133258699Y-89087600D01*
X133184974Y-89080800D01*
X133184961Y-89080799D01*
X133184938Y-89080797D01*
X133100425Y-89075201D01*
X133100399Y-89075200D01*
X132999549Y-89071400D01*
X132927563Y-89070577D01*
X132888566Y-89070132D01*
X132880333Y-89066611D01*
X132877000Y-89058433D01*
X132877000Y-88581566D01*
X132880427Y-88573293D01*
X132888563Y-88569867D01*
X132999549Y-88568600D01*
X133100399Y-88564800D01*
X133184974Y-88559200D01*
X133258699Y-88552400D01*
X133326999Y-88545000D01*
X133395197Y-88537611D01*
X133395353Y-88537594D01*
X133468951Y-88530806D01*
X133469141Y-88530792D01*
X133553471Y-88525208D01*
X133553695Y-88525196D01*
X133654317Y-88521404D01*
X133654620Y-88521398D01*
X133765206Y-88520134D01*
X133773517Y-88523466D01*
G37*
G04 #@! TD.AperFunction*
G04 #@! TA.AperFunction,Conductor*
G36*
X129339115Y-88520477D02*
G01*
X129450704Y-88524879D01*
X129451724Y-88524966D01*
X129552072Y-88538127D01*
X129553179Y-88538328D01*
X129636435Y-88557686D01*
X129637400Y-88557955D01*
X129709533Y-88581508D01*
X129710090Y-88581706D01*
X129777000Y-88607500D01*
X129844186Y-88633400D01*
X129917076Y-88657200D01*
X130001372Y-88676800D01*
X130102779Y-88690100D01*
X130215762Y-88694556D01*
X130223893Y-88698306D01*
X130227000Y-88706247D01*
X130227000Y-88933752D01*
X130223573Y-88942025D01*
X130215761Y-88945443D01*
X130102778Y-88949900D01*
X130064138Y-88954967D01*
X130001372Y-88963200D01*
X130001369Y-88963200D01*
X130001366Y-88963201D01*
X129917082Y-88982798D01*
X129917062Y-88982804D01*
X129844202Y-89006594D01*
X129844183Y-89006600D01*
X129777000Y-89032500D01*
X129710099Y-89058289D01*
X129709523Y-89058494D01*
X129637408Y-89082041D01*
X129636426Y-89082315D01*
X129553188Y-89101669D01*
X129552060Y-89101874D01*
X129451746Y-89115031D01*
X129450685Y-89115121D01*
X129339120Y-89119521D01*
X129330718Y-89116423D01*
X129326968Y-89108291D01*
X129326959Y-89107900D01*
X129326000Y-88820000D01*
X129326959Y-88532128D01*
X129330413Y-88523868D01*
X129338698Y-88520469D01*
X129339115Y-88520477D01*
G37*
G04 #@! TD.AperFunction*
G04 #@! TA.AperFunction,Conductor*
G36*
X168378868Y-73163427D02*
G01*
X168382291Y-73171402D01*
X168383470Y-73217648D01*
X168387813Y-73264804D01*
X168387814Y-73264814D01*
X168394919Y-73303946D01*
X168404680Y-73337582D01*
X168404683Y-73337592D01*
X168416980Y-73368212D01*
X168416986Y-73368226D01*
X168431732Y-73398384D01*
X168448817Y-73430575D01*
X168448838Y-73430615D01*
X168468046Y-73467146D01*
X168468198Y-73467446D01*
X168489430Y-73510810D01*
X168489633Y-73511246D01*
X168508176Y-73553425D01*
X168508368Y-73562378D01*
X168502174Y-73568845D01*
X168501982Y-73568927D01*
X168286517Y-73659109D01*
X168277563Y-73659142D01*
X168277483Y-73659109D01*
X168062017Y-73568927D01*
X168055708Y-73562571D01*
X168055741Y-73553617D01*
X168055823Y-73553426D01*
X168074377Y-73511219D01*
X168074546Y-73510855D01*
X168095819Y-73467408D01*
X168095934Y-73467180D01*
X168115182Y-73430575D01*
X168132262Y-73398392D01*
X168147010Y-73368230D01*
X168159319Y-73337582D01*
X168169080Y-73303943D01*
X168176186Y-73264804D01*
X168180528Y-73217659D01*
X168181709Y-73171401D01*
X168185346Y-73163218D01*
X168193405Y-73160000D01*
X168370595Y-73160000D01*
X168378868Y-73163427D01*
G37*
G04 #@! TD.AperFunction*
G04 #@! TA.AperFunction,Conductor*
G36*
X160653350Y-67307786D02*
G01*
X160660973Y-67312484D01*
X160663176Y-67318757D01*
X160677041Y-67598159D01*
X160674028Y-67606592D01*
X160665935Y-67610425D01*
X160665781Y-67610431D01*
X160539856Y-67615018D01*
X160539825Y-67615020D01*
X160402022Y-67620791D01*
X160264218Y-67627312D01*
X160126415Y-67634583D01*
X160126382Y-67634584D01*
X160012724Y-67641200D01*
X159988612Y-67642604D01*
X159988581Y-67642606D01*
X159850838Y-67651371D01*
X159850839Y-67651372D01*
X159850808Y-67651374D01*
X159831294Y-67652722D01*
X159713036Y-67660892D01*
X159713005Y-67660895D01*
X159575201Y-67671166D01*
X159506299Y-67676676D01*
X159437429Y-67682184D01*
X159437398Y-67682187D01*
X159382320Y-67686891D01*
X159305015Y-67693494D01*
X159296480Y-67690783D01*
X159295746Y-67690109D01*
X158960923Y-67355286D01*
X158957496Y-67347013D01*
X158960923Y-67338740D01*
X158966532Y-67335621D01*
X159015443Y-67324202D01*
X159084844Y-67307250D01*
X159154246Y-67289547D01*
X159223647Y-67271095D01*
X159293049Y-67251893D01*
X159362450Y-67231940D01*
X159431851Y-67211238D01*
X159501253Y-67189785D01*
X159570654Y-67167583D01*
X159637344Y-67145527D01*
X159642876Y-67145085D01*
X160653350Y-67307786D01*
G37*
G04 #@! TD.AperFunction*
G04 #@! TA.AperFunction,Conductor*
G36*
X172211918Y-65593599D02*
G01*
X172216568Y-65598190D01*
X172459821Y-66034301D01*
X172460858Y-66043195D01*
X172459821Y-66045699D01*
X172216568Y-66481809D01*
X172209545Y-66487365D01*
X172203011Y-66487323D01*
X172099498Y-66456497D01*
X171987002Y-66425998D01*
X171874516Y-66398502D01*
X171761996Y-66373998D01*
X171649508Y-66352501D01*
X171537013Y-66334002D01*
X171537007Y-66334001D01*
X171537000Y-66334000D01*
X171424500Y-66318500D01*
X171424464Y-66318496D01*
X171312033Y-66306002D01*
X171199501Y-66296500D01*
X171098025Y-66290637D01*
X171089963Y-66286738D01*
X171087000Y-66278956D01*
X171087000Y-65801043D01*
X171090427Y-65792770D01*
X171098022Y-65789363D01*
X171199500Y-65783499D01*
X171312000Y-65773999D01*
X171312008Y-65773998D01*
X171312033Y-65773996D01*
X171357005Y-65768998D01*
X171424500Y-65761499D01*
X171537000Y-65745999D01*
X171537014Y-65745996D01*
X171537019Y-65745996D01*
X171551582Y-65743601D01*
X171649500Y-65727500D01*
X171762000Y-65706000D01*
X171874500Y-65681500D01*
X171891821Y-65677265D01*
X171987002Y-65654000D01*
X172099498Y-65623501D01*
X172136583Y-65612457D01*
X172203012Y-65592676D01*
X172211918Y-65593599D01*
G37*
G04 #@! TD.AperFunction*
G04 #@! TA.AperFunction,Conductor*
G36*
X111624376Y-67011398D02*
G01*
X111624681Y-67011405D01*
X111628385Y-67011544D01*
X111725299Y-67015196D01*
X111725532Y-67015208D01*
X111809849Y-67020790D01*
X111810051Y-67020806D01*
X111883634Y-67027594D01*
X111883818Y-67027612D01*
X111951999Y-67035000D01*
X112020299Y-67042400D01*
X112094024Y-67049199D01*
X112178600Y-67054800D01*
X112279450Y-67058600D01*
X112390436Y-67059867D01*
X112398667Y-67063388D01*
X112402000Y-67071566D01*
X112402000Y-67548433D01*
X112398573Y-67556706D01*
X112390434Y-67560132D01*
X112350405Y-67560589D01*
X112279450Y-67561400D01*
X112180843Y-67565115D01*
X112178573Y-67565201D01*
X112094059Y-67570796D01*
X112094032Y-67570798D01*
X112094024Y-67570799D01*
X112020299Y-67577600D01*
X112020278Y-67577602D01*
X112020270Y-67577603D01*
X111951999Y-67585000D01*
X111883819Y-67592386D01*
X111883634Y-67592405D01*
X111810089Y-67599189D01*
X111809787Y-67599212D01*
X111725591Y-67604787D01*
X111725258Y-67604805D01*
X111624681Y-67608594D01*
X111624375Y-67608601D01*
X111513794Y-67609865D01*
X111505482Y-67606533D01*
X111501961Y-67598300D01*
X111501000Y-67310000D01*
X111501960Y-67021792D01*
X111505414Y-67013532D01*
X111513697Y-67010133D01*
X111624376Y-67011398D01*
G37*
G04 #@! TD.AperFunction*
G04 #@! TA.AperFunction,Conductor*
G36*
X120510800Y-80965240D02*
G01*
X120513971Y-80971079D01*
X120572809Y-81247709D01*
X120633642Y-81524335D01*
X120694466Y-81791540D01*
X120755262Y-82049258D01*
X120816080Y-82297690D01*
X120876922Y-82536844D01*
X120937732Y-82766495D01*
X120998546Y-82986790D01*
X121059367Y-83197734D01*
X121117319Y-83389792D01*
X121116428Y-83398703D01*
X121111278Y-83403673D01*
X120267160Y-83818464D01*
X120258224Y-83819037D01*
X120256840Y-83818464D01*
X119412721Y-83403673D01*
X119406807Y-83396948D01*
X119406680Y-83389794D01*
X119464631Y-83197735D01*
X119525450Y-82986799D01*
X119586269Y-82766488D01*
X119647087Y-82536802D01*
X119707906Y-82297742D01*
X119768725Y-82049306D01*
X119768737Y-82049258D01*
X119829532Y-81791540D01*
X119829543Y-81791495D01*
X119890362Y-81524309D01*
X119951181Y-81247748D01*
X119951190Y-81247709D01*
X120010029Y-80971079D01*
X120015102Y-80963700D01*
X120021473Y-80961813D01*
X120502527Y-80961813D01*
X120510800Y-80965240D01*
G37*
G04 #@! TD.AperFunction*
G04 #@! TA.AperFunction,Conductor*
G36*
X129981207Y-83045506D02*
G01*
X129981229Y-83045558D01*
X130301134Y-83815511D01*
X130301143Y-83824466D01*
X130301134Y-83824489D01*
X129981229Y-84594441D01*
X129974890Y-84600766D01*
X129965935Y-84600757D01*
X129965883Y-84600735D01*
X129688462Y-84483916D01*
X129688397Y-84483888D01*
X129449293Y-84381501D01*
X129345871Y-84338246D01*
X129246271Y-84296590D01*
X129066489Y-84227730D01*
X128897017Y-84173462D01*
X128897011Y-84173460D01*
X128897000Y-84173457D01*
X128724946Y-84132331D01*
X128724911Y-84132324D01*
X128537323Y-84102875D01*
X128537308Y-84102873D01*
X128363854Y-84087433D01*
X128321233Y-84083639D01*
X128321230Y-84083638D01*
X128321209Y-84083637D01*
X128063767Y-84073165D01*
X127763581Y-84070117D01*
X127755343Y-84066607D01*
X127752000Y-84058418D01*
X127752000Y-83581581D01*
X127755427Y-83573308D01*
X127763580Y-83569882D01*
X128063770Y-83566833D01*
X128279289Y-83558066D01*
X128321209Y-83556361D01*
X128321209Y-83556360D01*
X128321233Y-83556360D01*
X128537313Y-83537125D01*
X128619963Y-83524149D01*
X128724911Y-83507674D01*
X128724923Y-83507671D01*
X128724933Y-83507670D01*
X128897017Y-83466537D01*
X129066489Y-83412269D01*
X129246271Y-83343409D01*
X129449287Y-83258499D01*
X129688462Y-83156083D01*
X129965885Y-83039263D01*
X129974838Y-83039212D01*
X129981207Y-83045506D01*
G37*
G04 #@! TD.AperFunction*
G04 #@! TA.AperFunction,Conductor*
G36*
X129449376Y-88521398D02*
G01*
X129449681Y-88521405D01*
X129453385Y-88521544D01*
X129550299Y-88525196D01*
X129550532Y-88525208D01*
X129634849Y-88530791D01*
X129635051Y-88530807D01*
X129708634Y-88537594D01*
X129708818Y-88537612D01*
X129776999Y-88545000D01*
X129845299Y-88552400D01*
X129919024Y-88559200D01*
X130003600Y-88564800D01*
X130104450Y-88568600D01*
X130215436Y-88569867D01*
X130223667Y-88573388D01*
X130227000Y-88581566D01*
X130227000Y-89058433D01*
X130223573Y-89066706D01*
X130215434Y-89070132D01*
X130175405Y-89070589D01*
X130104450Y-89071400D01*
X130005843Y-89075115D01*
X130003573Y-89075201D01*
X129919059Y-89080797D01*
X129919032Y-89080799D01*
X129919024Y-89080800D01*
X129845299Y-89087600D01*
X129845278Y-89087602D01*
X129845270Y-89087603D01*
X129776999Y-89095000D01*
X129708819Y-89102386D01*
X129708634Y-89102405D01*
X129635089Y-89109189D01*
X129634787Y-89109212D01*
X129550591Y-89114787D01*
X129550258Y-89114805D01*
X129449681Y-89118594D01*
X129449375Y-89118601D01*
X129338794Y-89119865D01*
X129330482Y-89116533D01*
X129326961Y-89108300D01*
X129326000Y-88820000D01*
X129326960Y-88531792D01*
X129330414Y-88523532D01*
X129338697Y-88520133D01*
X129449376Y-88521398D01*
G37*
G04 #@! TD.AperFunction*
M02*
