G04 #@! TF.GenerationSoftware,KiCad,Pcbnew,8.0.8*
G04 #@! TF.CreationDate,2025-02-11T18:02:45+01:00*
G04 #@! TF.ProjectId,PCB,5043422e-6b69-4636-9164-5f7063625858,rev?*
G04 #@! TF.SameCoordinates,Original*
G04 #@! TF.FileFunction,Soldermask,Bot*
G04 #@! TF.FilePolarity,Negative*
%FSLAX46Y46*%
G04 Gerber Fmt 4.6, Leading zero omitted, Abs format (unit mm)*
G04 Created by KiCad (PCBNEW 8.0.8) date 2025-02-11 18:02:45*
%MOMM*%
%LPD*%
G01*
G04 APERTURE LIST*
%ADD10O,1.750000X2.250000*%
%ADD11C,4.300000*%
%ADD12C,1.700000*%
%ADD13O,1.700000X1.700000*%
%ADD14C,1.712000*%
G04 APERTURE END LIST*
D10*
X160662000Y-83820000D03*
X163202000Y-83820000D03*
X165742000Y-83820000D03*
X168282000Y-83820000D03*
D11*
X108502000Y-61040000D03*
X174962000Y-61040000D03*
D12*
X132842000Y-66040000D03*
D13*
X130302000Y-66040000D03*
X132842000Y-68580000D03*
X130302000Y-68580000D03*
X132842000Y-71120000D03*
X130302000Y-71120000D03*
X132842000Y-73660000D03*
X130302000Y-73660000D03*
X132842000Y-76200000D03*
X130302000Y-76200000D03*
X132842000Y-78740000D03*
X130302000Y-78740000D03*
X132842000Y-81280000D03*
X130302000Y-81280000D03*
X132842000Y-83820000D03*
X130302000Y-83820000D03*
D14*
X116622000Y-103820000D03*
X120122000Y-108820000D03*
X123622000Y-103820000D03*
X127122000Y-108820000D03*
X137424500Y-103820000D03*
X140924500Y-108820000D03*
X144424500Y-103820000D03*
X147924500Y-108820000D03*
D11*
X174962000Y-116040000D03*
X108502000Y-116040000D03*
D10*
X115182000Y-83820000D03*
X117722000Y-83820000D03*
X120262000Y-83820000D03*
X122802000Y-83820000D03*
D12*
X153162000Y-66040000D03*
D13*
X150622000Y-66040000D03*
X153162000Y-68580000D03*
X150622000Y-68580000D03*
X153162000Y-71120000D03*
X150622000Y-71120000D03*
X153162000Y-73660000D03*
X150622000Y-73660000D03*
X153162000Y-76200000D03*
X150622000Y-76200000D03*
X153162000Y-78740000D03*
X150622000Y-78740000D03*
X153162000Y-81280000D03*
X150622000Y-81280000D03*
X153162000Y-83820000D03*
X150622000Y-83820000D03*
D14*
X157782000Y-103820000D03*
X161282000Y-108820000D03*
X164782000Y-103820000D03*
X168282000Y-108820000D03*
M02*
