%TF.GenerationSoftware,KiCad,Pcbnew,8.0.8*%
%TF.CreationDate,2025-02-11T18:03:02+01:00*%
%TF.ProjectId,PCB,5043422e-6b69-4636-9164-5f7063625858,rev?*%
%TF.SameCoordinates,Original*%
%TF.FileFunction,Drillmap*%
%TF.FilePolarity,Positive*%
%FSLAX45Y45*%
G04 Gerber Fmt 4.5, Leading zero omitted, Abs format (unit mm)*
G04 Created by KiCad (PCBNEW 8.0.8) date 2025-02-11 18:03:02*
%MOMM*%
%LPD*%
G01*
G04 APERTURE LIST*
%ADD10C,0.050000*%
%ADD11C,0.200000*%
%ADD12C,0.100000*%
%ADD13C,0.107500*%
G04 APERTURE END LIST*
D10*
X17996200Y-11604000D02*
G75*
G02*
X17496200Y-12104000I-500000J0D01*
G01*
X17996200Y-6104000D02*
X17996200Y-11604000D01*
X10850200Y-12104000D02*
G75*
G02*
X10350200Y-11604000I0J500000D01*
G01*
X10850200Y-5604000D02*
X17496200Y-5604000D01*
X10350200Y-6104000D02*
X10350200Y-11604000D01*
X10850200Y-12104000D02*
X17496200Y-12104000D01*
X10350200Y-6104000D02*
G75*
G02*
X10850200Y-5604000I500000J0D01*
G01*
X17496200Y-5604000D02*
G75*
G02*
X17996200Y-6104000I0J-500000D01*
G01*
D11*
D12*
X11085200Y-7628000D02*
X11115200Y-7658000D01*
X11115200Y-7628000D02*
X11085200Y-7658000D01*
X11135200Y-6716000D02*
X11165200Y-6746000D01*
X11165200Y-6716000D02*
X11135200Y-6746000D01*
X11335200Y-7628000D02*
X11365200Y-7658000D01*
X11365200Y-7628000D02*
X11335200Y-7658000D01*
X12917700Y-8767000D02*
X12947700Y-8797000D01*
X12947700Y-8767000D02*
X12917700Y-8797000D01*
X12917700Y-8867000D02*
X12947700Y-8897000D01*
X12947700Y-8867000D02*
X12917700Y-8897000D01*
X12917700Y-8967000D02*
X12947700Y-8997000D01*
X12947700Y-8967000D02*
X12917700Y-8997000D01*
X13362700Y-8767000D02*
X13392700Y-8797000D01*
X13392700Y-8767000D02*
X13362700Y-8797000D01*
X13362700Y-8867000D02*
X13392700Y-8897000D01*
X13392700Y-8867000D02*
X13362700Y-8897000D01*
X13362700Y-8967000D02*
X13392700Y-8997000D01*
X13392700Y-8967000D02*
X13362700Y-8997000D01*
X15601200Y-6744000D02*
X15631200Y-6774000D01*
X15631200Y-6744000D02*
X15601200Y-6774000D01*
X15851200Y-7478000D02*
X15881200Y-7508000D01*
X15881200Y-7478000D02*
X15851200Y-7508000D01*
X17162000Y-7478000D02*
X17192000Y-7508000D01*
X17192000Y-7478000D02*
X17162000Y-7508000D01*
X17358000Y-6744000D02*
X17388000Y-6774000D01*
X17388000Y-6744000D02*
X17358000Y-6774000D01*
X11712200Y-10382000D02*
G75*
G02*
X11612200Y-10382000I-50000J0D01*
G01*
X11612200Y-10382000D02*
G75*
G02*
X11712200Y-10382000I50000J0D01*
G01*
X12062200Y-10882000D02*
G75*
G02*
X11962200Y-10882000I-50000J0D01*
G01*
X11962200Y-10882000D02*
G75*
G02*
X12062200Y-10882000I50000J0D01*
G01*
X12412200Y-10382000D02*
G75*
G02*
X12312200Y-10382000I-50000J0D01*
G01*
X12312200Y-10382000D02*
G75*
G02*
X12412200Y-10382000I50000J0D01*
G01*
X12762200Y-10882000D02*
G75*
G02*
X12662200Y-10882000I-50000J0D01*
G01*
X12662200Y-10882000D02*
G75*
G02*
X12762200Y-10882000I50000J0D01*
G01*
X13080200Y-6604000D02*
G75*
G02*
X12980200Y-6604000I-50000J0D01*
G01*
X12980200Y-6604000D02*
G75*
G02*
X13080200Y-6604000I50000J0D01*
G01*
X13080200Y-6858000D02*
G75*
G02*
X12980200Y-6858000I-50000J0D01*
G01*
X12980200Y-6858000D02*
G75*
G02*
X13080200Y-6858000I50000J0D01*
G01*
X13080200Y-7112000D02*
G75*
G02*
X12980200Y-7112000I-50000J0D01*
G01*
X12980200Y-7112000D02*
G75*
G02*
X13080200Y-7112000I50000J0D01*
G01*
X13080200Y-7366000D02*
G75*
G02*
X12980200Y-7366000I-50000J0D01*
G01*
X12980200Y-7366000D02*
G75*
G02*
X13080200Y-7366000I50000J0D01*
G01*
X13080200Y-7620000D02*
G75*
G02*
X12980200Y-7620000I-50000J0D01*
G01*
X12980200Y-7620000D02*
G75*
G02*
X13080200Y-7620000I50000J0D01*
G01*
X13080200Y-7874000D02*
G75*
G02*
X12980200Y-7874000I-50000J0D01*
G01*
X12980200Y-7874000D02*
G75*
G02*
X13080200Y-7874000I50000J0D01*
G01*
X13080200Y-8128000D02*
G75*
G02*
X12980200Y-8128000I-50000J0D01*
G01*
X12980200Y-8128000D02*
G75*
G02*
X13080200Y-8128000I50000J0D01*
G01*
X13080200Y-8382000D02*
G75*
G02*
X12980200Y-8382000I-50000J0D01*
G01*
X12980200Y-8382000D02*
G75*
G02*
X13080200Y-8382000I50000J0D01*
G01*
X13334200Y-6604000D02*
G75*
G02*
X13234200Y-6604000I-50000J0D01*
G01*
X13234200Y-6604000D02*
G75*
G02*
X13334200Y-6604000I50000J0D01*
G01*
X13334200Y-6858000D02*
G75*
G02*
X13234200Y-6858000I-50000J0D01*
G01*
X13234200Y-6858000D02*
G75*
G02*
X13334200Y-6858000I50000J0D01*
G01*
X13334200Y-7112000D02*
G75*
G02*
X13234200Y-7112000I-50000J0D01*
G01*
X13234200Y-7112000D02*
G75*
G02*
X13334200Y-7112000I50000J0D01*
G01*
X13334200Y-7366000D02*
G75*
G02*
X13234200Y-7366000I-50000J0D01*
G01*
X13234200Y-7366000D02*
G75*
G02*
X13334200Y-7366000I50000J0D01*
G01*
X13334200Y-7620000D02*
G75*
G02*
X13234200Y-7620000I-50000J0D01*
G01*
X13234200Y-7620000D02*
G75*
G02*
X13334200Y-7620000I50000J0D01*
G01*
X13334200Y-7874000D02*
G75*
G02*
X13234200Y-7874000I-50000J0D01*
G01*
X13234200Y-7874000D02*
G75*
G02*
X13334200Y-7874000I50000J0D01*
G01*
X13334200Y-8128000D02*
G75*
G02*
X13234200Y-8128000I-50000J0D01*
G01*
X13234200Y-8128000D02*
G75*
G02*
X13334200Y-8128000I50000J0D01*
G01*
X13334200Y-8382000D02*
G75*
G02*
X13234200Y-8382000I-50000J0D01*
G01*
X13234200Y-8382000D02*
G75*
G02*
X13334200Y-8382000I50000J0D01*
G01*
X13792450Y-10382000D02*
G75*
G02*
X13692450Y-10382000I-50000J0D01*
G01*
X13692450Y-10382000D02*
G75*
G02*
X13792450Y-10382000I50000J0D01*
G01*
X14142450Y-10882000D02*
G75*
G02*
X14042450Y-10882000I-50000J0D01*
G01*
X14042450Y-10882000D02*
G75*
G02*
X14142450Y-10882000I50000J0D01*
G01*
X14492450Y-10382000D02*
G75*
G02*
X14392450Y-10382000I-50000J0D01*
G01*
X14392450Y-10382000D02*
G75*
G02*
X14492450Y-10382000I50000J0D01*
G01*
X14842450Y-10882000D02*
G75*
G02*
X14742450Y-10882000I-50000J0D01*
G01*
X14742450Y-10882000D02*
G75*
G02*
X14842450Y-10882000I50000J0D01*
G01*
X15112200Y-6604000D02*
G75*
G02*
X15012200Y-6604000I-50000J0D01*
G01*
X15012200Y-6604000D02*
G75*
G02*
X15112200Y-6604000I50000J0D01*
G01*
X15112200Y-6858000D02*
G75*
G02*
X15012200Y-6858000I-50000J0D01*
G01*
X15012200Y-6858000D02*
G75*
G02*
X15112200Y-6858000I50000J0D01*
G01*
X15112200Y-7112000D02*
G75*
G02*
X15012200Y-7112000I-50000J0D01*
G01*
X15012200Y-7112000D02*
G75*
G02*
X15112200Y-7112000I50000J0D01*
G01*
X15112200Y-7366000D02*
G75*
G02*
X15012200Y-7366000I-50000J0D01*
G01*
X15012200Y-7366000D02*
G75*
G02*
X15112200Y-7366000I50000J0D01*
G01*
X15112200Y-7620000D02*
G75*
G02*
X15012200Y-7620000I-50000J0D01*
G01*
X15012200Y-7620000D02*
G75*
G02*
X15112200Y-7620000I50000J0D01*
G01*
X15112200Y-7874000D02*
G75*
G02*
X15012200Y-7874000I-50000J0D01*
G01*
X15012200Y-7874000D02*
G75*
G02*
X15112200Y-7874000I50000J0D01*
G01*
X15112200Y-8128000D02*
G75*
G02*
X15012200Y-8128000I-50000J0D01*
G01*
X15012200Y-8128000D02*
G75*
G02*
X15112200Y-8128000I50000J0D01*
G01*
X15112200Y-8382000D02*
G75*
G02*
X15012200Y-8382000I-50000J0D01*
G01*
X15012200Y-8382000D02*
G75*
G02*
X15112200Y-8382000I50000J0D01*
G01*
X15366200Y-6604000D02*
G75*
G02*
X15266200Y-6604000I-50000J0D01*
G01*
X15266200Y-6604000D02*
G75*
G02*
X15366200Y-6604000I50000J0D01*
G01*
X15366200Y-6858000D02*
G75*
G02*
X15266200Y-6858000I-50000J0D01*
G01*
X15266200Y-6858000D02*
G75*
G02*
X15366200Y-6858000I50000J0D01*
G01*
X15366200Y-7112000D02*
G75*
G02*
X15266200Y-7112000I-50000J0D01*
G01*
X15266200Y-7112000D02*
G75*
G02*
X15366200Y-7112000I50000J0D01*
G01*
X15366200Y-7366000D02*
G75*
G02*
X15266200Y-7366000I-50000J0D01*
G01*
X15266200Y-7366000D02*
G75*
G02*
X15366200Y-7366000I50000J0D01*
G01*
X15366200Y-7620000D02*
G75*
G02*
X15266200Y-7620000I-50000J0D01*
G01*
X15266200Y-7620000D02*
G75*
G02*
X15366200Y-7620000I50000J0D01*
G01*
X15366200Y-7874000D02*
G75*
G02*
X15266200Y-7874000I-50000J0D01*
G01*
X15266200Y-7874000D02*
G75*
G02*
X15366200Y-7874000I50000J0D01*
G01*
X15366200Y-8128000D02*
G75*
G02*
X15266200Y-8128000I-50000J0D01*
G01*
X15266200Y-8128000D02*
G75*
G02*
X15366200Y-8128000I50000J0D01*
G01*
X15366200Y-8382000D02*
G75*
G02*
X15266200Y-8382000I-50000J0D01*
G01*
X15266200Y-8382000D02*
G75*
G02*
X15366200Y-8382000I50000J0D01*
G01*
X15828200Y-10382000D02*
G75*
G02*
X15728200Y-10382000I-50000J0D01*
G01*
X15728200Y-10382000D02*
G75*
G02*
X15828200Y-10382000I50000J0D01*
G01*
X16178200Y-10882000D02*
G75*
G02*
X16078200Y-10882000I-50000J0D01*
G01*
X16078200Y-10882000D02*
G75*
G02*
X16178200Y-10882000I50000J0D01*
G01*
X16528200Y-10382000D02*
G75*
G02*
X16428200Y-10382000I-50000J0D01*
G01*
X16428200Y-10382000D02*
G75*
G02*
X16528200Y-10382000I50000J0D01*
G01*
X16878200Y-10882000D02*
G75*
G02*
X16778200Y-10882000I-50000J0D01*
G01*
X16778200Y-10882000D02*
G75*
G02*
X16878200Y-10882000I50000J0D01*
G01*
D13*
X11518200Y-8328250D02*
X11518200Y-8435750D01*
X11464450Y-8382000D02*
X11571950Y-8382000D01*
X11772200Y-8328250D02*
X11772200Y-8435750D01*
X11718450Y-8382000D02*
X11825950Y-8382000D01*
X12026200Y-8328250D02*
X12026200Y-8435750D01*
X11972450Y-8382000D02*
X12079950Y-8382000D01*
X12280200Y-8328250D02*
X12280200Y-8435750D01*
X12226450Y-8382000D02*
X12333950Y-8382000D01*
X16066200Y-8328250D02*
X16066200Y-8435750D01*
X16012450Y-8382000D02*
X16119950Y-8382000D01*
X16320200Y-8328250D02*
X16320200Y-8435750D01*
X16266450Y-8382000D02*
X16373950Y-8382000D01*
X16574200Y-8328250D02*
X16574200Y-8435750D01*
X16520450Y-8382000D02*
X16627950Y-8382000D01*
X16828200Y-8328250D02*
X16828200Y-8435750D01*
X16774450Y-8382000D02*
X16881950Y-8382000D01*
D11*
X10608477Y-12417984D02*
X10608477Y-12217984D01*
X10608477Y-12217984D02*
X10656096Y-12217984D01*
X10656096Y-12217984D02*
X10684667Y-12227508D01*
X10684667Y-12227508D02*
X10703715Y-12246555D01*
X10703715Y-12246555D02*
X10713239Y-12265603D01*
X10713239Y-12265603D02*
X10722763Y-12303698D01*
X10722763Y-12303698D02*
X10722763Y-12332269D01*
X10722763Y-12332269D02*
X10713239Y-12370365D01*
X10713239Y-12370365D02*
X10703715Y-12389412D01*
X10703715Y-12389412D02*
X10684667Y-12408460D01*
X10684667Y-12408460D02*
X10656096Y-12417984D01*
X10656096Y-12417984D02*
X10608477Y-12417984D01*
X10808477Y-12417984D02*
X10808477Y-12284650D01*
X10808477Y-12322746D02*
X10818001Y-12303698D01*
X10818001Y-12303698D02*
X10827524Y-12294174D01*
X10827524Y-12294174D02*
X10846572Y-12284650D01*
X10846572Y-12284650D02*
X10865620Y-12284650D01*
X10932286Y-12417984D02*
X10932286Y-12284650D01*
X10932286Y-12217984D02*
X10922763Y-12227508D01*
X10922763Y-12227508D02*
X10932286Y-12237031D01*
X10932286Y-12237031D02*
X10941810Y-12227508D01*
X10941810Y-12227508D02*
X10932286Y-12217984D01*
X10932286Y-12217984D02*
X10932286Y-12237031D01*
X11056096Y-12417984D02*
X11037048Y-12408460D01*
X11037048Y-12408460D02*
X11027524Y-12389412D01*
X11027524Y-12389412D02*
X11027524Y-12217984D01*
X11160858Y-12417984D02*
X11141810Y-12408460D01*
X11141810Y-12408460D02*
X11132286Y-12389412D01*
X11132286Y-12389412D02*
X11132286Y-12217984D01*
X11389429Y-12417984D02*
X11389429Y-12217984D01*
X11389429Y-12217984D02*
X11456096Y-12360841D01*
X11456096Y-12360841D02*
X11522762Y-12217984D01*
X11522762Y-12217984D02*
X11522762Y-12417984D01*
X11703715Y-12417984D02*
X11703715Y-12313222D01*
X11703715Y-12313222D02*
X11694191Y-12294174D01*
X11694191Y-12294174D02*
X11675143Y-12284650D01*
X11675143Y-12284650D02*
X11637048Y-12284650D01*
X11637048Y-12284650D02*
X11618001Y-12294174D01*
X11703715Y-12408460D02*
X11684667Y-12417984D01*
X11684667Y-12417984D02*
X11637048Y-12417984D01*
X11637048Y-12417984D02*
X11618001Y-12408460D01*
X11618001Y-12408460D02*
X11608477Y-12389412D01*
X11608477Y-12389412D02*
X11608477Y-12370365D01*
X11608477Y-12370365D02*
X11618001Y-12351317D01*
X11618001Y-12351317D02*
X11637048Y-12341793D01*
X11637048Y-12341793D02*
X11684667Y-12341793D01*
X11684667Y-12341793D02*
X11703715Y-12332269D01*
X11798953Y-12284650D02*
X11798953Y-12484650D01*
X11798953Y-12294174D02*
X11818001Y-12284650D01*
X11818001Y-12284650D02*
X11856096Y-12284650D01*
X11856096Y-12284650D02*
X11875143Y-12294174D01*
X11875143Y-12294174D02*
X11884667Y-12303698D01*
X11884667Y-12303698D02*
X11894191Y-12322746D01*
X11894191Y-12322746D02*
X11894191Y-12379888D01*
X11894191Y-12379888D02*
X11884667Y-12398936D01*
X11884667Y-12398936D02*
X11875143Y-12408460D01*
X11875143Y-12408460D02*
X11856096Y-12417984D01*
X11856096Y-12417984D02*
X11818001Y-12417984D01*
X11818001Y-12417984D02*
X11798953Y-12408460D01*
X11979905Y-12398936D02*
X11989429Y-12408460D01*
X11989429Y-12408460D02*
X11979905Y-12417984D01*
X11979905Y-12417984D02*
X11970382Y-12408460D01*
X11970382Y-12408460D02*
X11979905Y-12398936D01*
X11979905Y-12398936D02*
X11979905Y-12417984D01*
X11979905Y-12294174D02*
X11989429Y-12303698D01*
X11989429Y-12303698D02*
X11979905Y-12313222D01*
X11979905Y-12313222D02*
X11970382Y-12303698D01*
X11970382Y-12303698D02*
X11979905Y-12294174D01*
X11979905Y-12294174D02*
X11979905Y-12313222D01*
D12*
X10317700Y-12731500D02*
X10347700Y-12761500D01*
X10347700Y-12731500D02*
X10317700Y-12761500D01*
D11*
X10646572Y-12637984D02*
X10665620Y-12637984D01*
X10665620Y-12637984D02*
X10684667Y-12647508D01*
X10684667Y-12647508D02*
X10694191Y-12657031D01*
X10694191Y-12657031D02*
X10703715Y-12676079D01*
X10703715Y-12676079D02*
X10713239Y-12714174D01*
X10713239Y-12714174D02*
X10713239Y-12761793D01*
X10713239Y-12761793D02*
X10703715Y-12799888D01*
X10703715Y-12799888D02*
X10694191Y-12818936D01*
X10694191Y-12818936D02*
X10684667Y-12828460D01*
X10684667Y-12828460D02*
X10665620Y-12837984D01*
X10665620Y-12837984D02*
X10646572Y-12837984D01*
X10646572Y-12837984D02*
X10627524Y-12828460D01*
X10627524Y-12828460D02*
X10618001Y-12818936D01*
X10618001Y-12818936D02*
X10608477Y-12799888D01*
X10608477Y-12799888D02*
X10598953Y-12761793D01*
X10598953Y-12761793D02*
X10598953Y-12714174D01*
X10598953Y-12714174D02*
X10608477Y-12676079D01*
X10608477Y-12676079D02*
X10618001Y-12657031D01*
X10618001Y-12657031D02*
X10627524Y-12647508D01*
X10627524Y-12647508D02*
X10646572Y-12637984D01*
X10798953Y-12818936D02*
X10808477Y-12828460D01*
X10808477Y-12828460D02*
X10798953Y-12837984D01*
X10798953Y-12837984D02*
X10789429Y-12828460D01*
X10789429Y-12828460D02*
X10798953Y-12818936D01*
X10798953Y-12818936D02*
X10798953Y-12837984D01*
X10875144Y-12637984D02*
X10998953Y-12637984D01*
X10998953Y-12637984D02*
X10932286Y-12714174D01*
X10932286Y-12714174D02*
X10960858Y-12714174D01*
X10960858Y-12714174D02*
X10979905Y-12723698D01*
X10979905Y-12723698D02*
X10989429Y-12733222D01*
X10989429Y-12733222D02*
X10998953Y-12752269D01*
X10998953Y-12752269D02*
X10998953Y-12799888D01*
X10998953Y-12799888D02*
X10989429Y-12818936D01*
X10989429Y-12818936D02*
X10979905Y-12828460D01*
X10979905Y-12828460D02*
X10960858Y-12837984D01*
X10960858Y-12837984D02*
X10903715Y-12837984D01*
X10903715Y-12837984D02*
X10884667Y-12828460D01*
X10884667Y-12828460D02*
X10875144Y-12818936D01*
X11122763Y-12637984D02*
X11141810Y-12637984D01*
X11141810Y-12637984D02*
X11160858Y-12647508D01*
X11160858Y-12647508D02*
X11170382Y-12657031D01*
X11170382Y-12657031D02*
X11179905Y-12676079D01*
X11179905Y-12676079D02*
X11189429Y-12714174D01*
X11189429Y-12714174D02*
X11189429Y-12761793D01*
X11189429Y-12761793D02*
X11179905Y-12799888D01*
X11179905Y-12799888D02*
X11170382Y-12818936D01*
X11170382Y-12818936D02*
X11160858Y-12828460D01*
X11160858Y-12828460D02*
X11141810Y-12837984D01*
X11141810Y-12837984D02*
X11122763Y-12837984D01*
X11122763Y-12837984D02*
X11103715Y-12828460D01*
X11103715Y-12828460D02*
X11094191Y-12818936D01*
X11094191Y-12818936D02*
X11084667Y-12799888D01*
X11084667Y-12799888D02*
X11075144Y-12761793D01*
X11075144Y-12761793D02*
X11075144Y-12714174D01*
X11075144Y-12714174D02*
X11084667Y-12676079D01*
X11084667Y-12676079D02*
X11094191Y-12657031D01*
X11094191Y-12657031D02*
X11103715Y-12647508D01*
X11103715Y-12647508D02*
X11122763Y-12637984D01*
X11313239Y-12637984D02*
X11332286Y-12637984D01*
X11332286Y-12637984D02*
X11351334Y-12647508D01*
X11351334Y-12647508D02*
X11360858Y-12657031D01*
X11360858Y-12657031D02*
X11370382Y-12676079D01*
X11370382Y-12676079D02*
X11379905Y-12714174D01*
X11379905Y-12714174D02*
X11379905Y-12761793D01*
X11379905Y-12761793D02*
X11370382Y-12799888D01*
X11370382Y-12799888D02*
X11360858Y-12818936D01*
X11360858Y-12818936D02*
X11351334Y-12828460D01*
X11351334Y-12828460D02*
X11332286Y-12837984D01*
X11332286Y-12837984D02*
X11313239Y-12837984D01*
X11313239Y-12837984D02*
X11294191Y-12828460D01*
X11294191Y-12828460D02*
X11284667Y-12818936D01*
X11284667Y-12818936D02*
X11275143Y-12799888D01*
X11275143Y-12799888D02*
X11265620Y-12761793D01*
X11265620Y-12761793D02*
X11265620Y-12714174D01*
X11265620Y-12714174D02*
X11275143Y-12676079D01*
X11275143Y-12676079D02*
X11284667Y-12657031D01*
X11284667Y-12657031D02*
X11294191Y-12647508D01*
X11294191Y-12647508D02*
X11313239Y-12637984D01*
X11465620Y-12837984D02*
X11465620Y-12704650D01*
X11465620Y-12723698D02*
X11475143Y-12714174D01*
X11475143Y-12714174D02*
X11494191Y-12704650D01*
X11494191Y-12704650D02*
X11522763Y-12704650D01*
X11522763Y-12704650D02*
X11541810Y-12714174D01*
X11541810Y-12714174D02*
X11551334Y-12733222D01*
X11551334Y-12733222D02*
X11551334Y-12837984D01*
X11551334Y-12733222D02*
X11560858Y-12714174D01*
X11560858Y-12714174D02*
X11579905Y-12704650D01*
X11579905Y-12704650D02*
X11608477Y-12704650D01*
X11608477Y-12704650D02*
X11627524Y-12714174D01*
X11627524Y-12714174D02*
X11637048Y-12733222D01*
X11637048Y-12733222D02*
X11637048Y-12837984D01*
X11732286Y-12837984D02*
X11732286Y-12704650D01*
X11732286Y-12723698D02*
X11741810Y-12714174D01*
X11741810Y-12714174D02*
X11760858Y-12704650D01*
X11760858Y-12704650D02*
X11789429Y-12704650D01*
X11789429Y-12704650D02*
X11808477Y-12714174D01*
X11808477Y-12714174D02*
X11818001Y-12733222D01*
X11818001Y-12733222D02*
X11818001Y-12837984D01*
X11818001Y-12733222D02*
X11827524Y-12714174D01*
X11827524Y-12714174D02*
X11846572Y-12704650D01*
X11846572Y-12704650D02*
X11875143Y-12704650D01*
X11875143Y-12704650D02*
X11894191Y-12714174D01*
X11894191Y-12714174D02*
X11903715Y-12733222D01*
X11903715Y-12733222D02*
X11903715Y-12837984D01*
X12294191Y-12628460D02*
X12122763Y-12885603D01*
X12551334Y-12637984D02*
X12570382Y-12637984D01*
X12570382Y-12637984D02*
X12589429Y-12647508D01*
X12589429Y-12647508D02*
X12598953Y-12657031D01*
X12598953Y-12657031D02*
X12608477Y-12676079D01*
X12608477Y-12676079D02*
X12618001Y-12714174D01*
X12618001Y-12714174D02*
X12618001Y-12761793D01*
X12618001Y-12761793D02*
X12608477Y-12799888D01*
X12608477Y-12799888D02*
X12598953Y-12818936D01*
X12598953Y-12818936D02*
X12589429Y-12828460D01*
X12589429Y-12828460D02*
X12570382Y-12837984D01*
X12570382Y-12837984D02*
X12551334Y-12837984D01*
X12551334Y-12837984D02*
X12532286Y-12828460D01*
X12532286Y-12828460D02*
X12522763Y-12818936D01*
X12522763Y-12818936D02*
X12513239Y-12799888D01*
X12513239Y-12799888D02*
X12503715Y-12761793D01*
X12503715Y-12761793D02*
X12503715Y-12714174D01*
X12503715Y-12714174D02*
X12513239Y-12676079D01*
X12513239Y-12676079D02*
X12522763Y-12657031D01*
X12522763Y-12657031D02*
X12532286Y-12647508D01*
X12532286Y-12647508D02*
X12551334Y-12637984D01*
X12703715Y-12818936D02*
X12713239Y-12828460D01*
X12713239Y-12828460D02*
X12703715Y-12837984D01*
X12703715Y-12837984D02*
X12694191Y-12828460D01*
X12694191Y-12828460D02*
X12703715Y-12818936D01*
X12703715Y-12818936D02*
X12703715Y-12837984D01*
X12837048Y-12637984D02*
X12856096Y-12637984D01*
X12856096Y-12637984D02*
X12875144Y-12647508D01*
X12875144Y-12647508D02*
X12884667Y-12657031D01*
X12884667Y-12657031D02*
X12894191Y-12676079D01*
X12894191Y-12676079D02*
X12903715Y-12714174D01*
X12903715Y-12714174D02*
X12903715Y-12761793D01*
X12903715Y-12761793D02*
X12894191Y-12799888D01*
X12894191Y-12799888D02*
X12884667Y-12818936D01*
X12884667Y-12818936D02*
X12875144Y-12828460D01*
X12875144Y-12828460D02*
X12856096Y-12837984D01*
X12856096Y-12837984D02*
X12837048Y-12837984D01*
X12837048Y-12837984D02*
X12818001Y-12828460D01*
X12818001Y-12828460D02*
X12808477Y-12818936D01*
X12808477Y-12818936D02*
X12798953Y-12799888D01*
X12798953Y-12799888D02*
X12789429Y-12761793D01*
X12789429Y-12761793D02*
X12789429Y-12714174D01*
X12789429Y-12714174D02*
X12798953Y-12676079D01*
X12798953Y-12676079D02*
X12808477Y-12657031D01*
X12808477Y-12657031D02*
X12818001Y-12647508D01*
X12818001Y-12647508D02*
X12837048Y-12637984D01*
X13094191Y-12837984D02*
X12979906Y-12837984D01*
X13037048Y-12837984D02*
X13037048Y-12637984D01*
X13037048Y-12637984D02*
X13018001Y-12666555D01*
X13018001Y-12666555D02*
X12998953Y-12685603D01*
X12998953Y-12685603D02*
X12979906Y-12695127D01*
X13284667Y-12837984D02*
X13170382Y-12837984D01*
X13227525Y-12837984D02*
X13227525Y-12637984D01*
X13227525Y-12637984D02*
X13208477Y-12666555D01*
X13208477Y-12666555D02*
X13189429Y-12685603D01*
X13189429Y-12685603D02*
X13170382Y-12695127D01*
X13398953Y-12723698D02*
X13379906Y-12714174D01*
X13379906Y-12714174D02*
X13370382Y-12704650D01*
X13370382Y-12704650D02*
X13360858Y-12685603D01*
X13360858Y-12685603D02*
X13360858Y-12676079D01*
X13360858Y-12676079D02*
X13370382Y-12657031D01*
X13370382Y-12657031D02*
X13379906Y-12647508D01*
X13379906Y-12647508D02*
X13398953Y-12637984D01*
X13398953Y-12637984D02*
X13437048Y-12637984D01*
X13437048Y-12637984D02*
X13456096Y-12647508D01*
X13456096Y-12647508D02*
X13465620Y-12657031D01*
X13465620Y-12657031D02*
X13475144Y-12676079D01*
X13475144Y-12676079D02*
X13475144Y-12685603D01*
X13475144Y-12685603D02*
X13465620Y-12704650D01*
X13465620Y-12704650D02*
X13456096Y-12714174D01*
X13456096Y-12714174D02*
X13437048Y-12723698D01*
X13437048Y-12723698D02*
X13398953Y-12723698D01*
X13398953Y-12723698D02*
X13379906Y-12733222D01*
X13379906Y-12733222D02*
X13370382Y-12742746D01*
X13370382Y-12742746D02*
X13360858Y-12761793D01*
X13360858Y-12761793D02*
X13360858Y-12799888D01*
X13360858Y-12799888D02*
X13370382Y-12818936D01*
X13370382Y-12818936D02*
X13379906Y-12828460D01*
X13379906Y-12828460D02*
X13398953Y-12837984D01*
X13398953Y-12837984D02*
X13437048Y-12837984D01*
X13437048Y-12837984D02*
X13456096Y-12828460D01*
X13456096Y-12828460D02*
X13465620Y-12818936D01*
X13465620Y-12818936D02*
X13475144Y-12799888D01*
X13475144Y-12799888D02*
X13475144Y-12761793D01*
X13475144Y-12761793D02*
X13465620Y-12742746D01*
X13465620Y-12742746D02*
X13456096Y-12733222D01*
X13456096Y-12733222D02*
X13437048Y-12723698D01*
X13551334Y-12637984D02*
X13551334Y-12676079D01*
X13627525Y-12637984D02*
X13627525Y-12676079D01*
X13922763Y-12914174D02*
X13913239Y-12904650D01*
X13913239Y-12904650D02*
X13894191Y-12876079D01*
X13894191Y-12876079D02*
X13884668Y-12857031D01*
X13884668Y-12857031D02*
X13875144Y-12828460D01*
X13875144Y-12828460D02*
X13865620Y-12780841D01*
X13865620Y-12780841D02*
X13865620Y-12742746D01*
X13865620Y-12742746D02*
X13875144Y-12695127D01*
X13875144Y-12695127D02*
X13884668Y-12666555D01*
X13884668Y-12666555D02*
X13894191Y-12647508D01*
X13894191Y-12647508D02*
X13913239Y-12618936D01*
X13913239Y-12618936D02*
X13922763Y-12609412D01*
X14103715Y-12837984D02*
X13989429Y-12837984D01*
X14046572Y-12837984D02*
X14046572Y-12637984D01*
X14046572Y-12637984D02*
X14027525Y-12666555D01*
X14027525Y-12666555D02*
X14008477Y-12685603D01*
X14008477Y-12685603D02*
X13989429Y-12695127D01*
X14170382Y-12637984D02*
X14294191Y-12637984D01*
X14294191Y-12637984D02*
X14227525Y-12714174D01*
X14227525Y-12714174D02*
X14256096Y-12714174D01*
X14256096Y-12714174D02*
X14275144Y-12723698D01*
X14275144Y-12723698D02*
X14284668Y-12733222D01*
X14284668Y-12733222D02*
X14294191Y-12752269D01*
X14294191Y-12752269D02*
X14294191Y-12799888D01*
X14294191Y-12799888D02*
X14284668Y-12818936D01*
X14284668Y-12818936D02*
X14275144Y-12828460D01*
X14275144Y-12828460D02*
X14256096Y-12837984D01*
X14256096Y-12837984D02*
X14198953Y-12837984D01*
X14198953Y-12837984D02*
X14179906Y-12828460D01*
X14179906Y-12828460D02*
X14170382Y-12818936D01*
X14532287Y-12837984D02*
X14532287Y-12637984D01*
X14618001Y-12837984D02*
X14618001Y-12733222D01*
X14618001Y-12733222D02*
X14608477Y-12714174D01*
X14608477Y-12714174D02*
X14589430Y-12704650D01*
X14589430Y-12704650D02*
X14560858Y-12704650D01*
X14560858Y-12704650D02*
X14541810Y-12714174D01*
X14541810Y-12714174D02*
X14532287Y-12723698D01*
X14741810Y-12837984D02*
X14722763Y-12828460D01*
X14722763Y-12828460D02*
X14713239Y-12818936D01*
X14713239Y-12818936D02*
X14703715Y-12799888D01*
X14703715Y-12799888D02*
X14703715Y-12742746D01*
X14703715Y-12742746D02*
X14713239Y-12723698D01*
X14713239Y-12723698D02*
X14722763Y-12714174D01*
X14722763Y-12714174D02*
X14741810Y-12704650D01*
X14741810Y-12704650D02*
X14770382Y-12704650D01*
X14770382Y-12704650D02*
X14789430Y-12714174D01*
X14789430Y-12714174D02*
X14798953Y-12723698D01*
X14798953Y-12723698D02*
X14808477Y-12742746D01*
X14808477Y-12742746D02*
X14808477Y-12799888D01*
X14808477Y-12799888D02*
X14798953Y-12818936D01*
X14798953Y-12818936D02*
X14789430Y-12828460D01*
X14789430Y-12828460D02*
X14770382Y-12837984D01*
X14770382Y-12837984D02*
X14741810Y-12837984D01*
X14922763Y-12837984D02*
X14903715Y-12828460D01*
X14903715Y-12828460D02*
X14894191Y-12809412D01*
X14894191Y-12809412D02*
X14894191Y-12637984D01*
X15075144Y-12828460D02*
X15056096Y-12837984D01*
X15056096Y-12837984D02*
X15018001Y-12837984D01*
X15018001Y-12837984D02*
X14998953Y-12828460D01*
X14998953Y-12828460D02*
X14989430Y-12809412D01*
X14989430Y-12809412D02*
X14989430Y-12733222D01*
X14989430Y-12733222D02*
X14998953Y-12714174D01*
X14998953Y-12714174D02*
X15018001Y-12704650D01*
X15018001Y-12704650D02*
X15056096Y-12704650D01*
X15056096Y-12704650D02*
X15075144Y-12714174D01*
X15075144Y-12714174D02*
X15084668Y-12733222D01*
X15084668Y-12733222D02*
X15084668Y-12752269D01*
X15084668Y-12752269D02*
X14989430Y-12771317D01*
X15160858Y-12828460D02*
X15179906Y-12837984D01*
X15179906Y-12837984D02*
X15218001Y-12837984D01*
X15218001Y-12837984D02*
X15237049Y-12828460D01*
X15237049Y-12828460D02*
X15246572Y-12809412D01*
X15246572Y-12809412D02*
X15246572Y-12799888D01*
X15246572Y-12799888D02*
X15237049Y-12780841D01*
X15237049Y-12780841D02*
X15218001Y-12771317D01*
X15218001Y-12771317D02*
X15189430Y-12771317D01*
X15189430Y-12771317D02*
X15170382Y-12761793D01*
X15170382Y-12761793D02*
X15160858Y-12742746D01*
X15160858Y-12742746D02*
X15160858Y-12733222D01*
X15160858Y-12733222D02*
X15170382Y-12714174D01*
X15170382Y-12714174D02*
X15189430Y-12704650D01*
X15189430Y-12704650D02*
X15218001Y-12704650D01*
X15218001Y-12704650D02*
X15237049Y-12714174D01*
X15313239Y-12914174D02*
X15322763Y-12904650D01*
X15322763Y-12904650D02*
X15341811Y-12876079D01*
X15341811Y-12876079D02*
X15351334Y-12857031D01*
X15351334Y-12857031D02*
X15360858Y-12828460D01*
X15360858Y-12828460D02*
X15370382Y-12780841D01*
X15370382Y-12780841D02*
X15370382Y-12742746D01*
X15370382Y-12742746D02*
X15360858Y-12695127D01*
X15360858Y-12695127D02*
X15351334Y-12666555D01*
X15351334Y-12666555D02*
X15341811Y-12647508D01*
X15341811Y-12647508D02*
X15322763Y-12618936D01*
X15322763Y-12618936D02*
X15313239Y-12609412D01*
D12*
X10347700Y-13010500D02*
G75*
G02*
X10247700Y-13010500I-50000J0D01*
G01*
X10247700Y-13010500D02*
G75*
G02*
X10347700Y-13010500I50000J0D01*
G01*
D11*
X10713239Y-13101984D02*
X10598953Y-13101984D01*
X10656096Y-13101984D02*
X10656096Y-12901984D01*
X10656096Y-12901984D02*
X10637048Y-12930555D01*
X10637048Y-12930555D02*
X10618001Y-12949603D01*
X10618001Y-12949603D02*
X10598953Y-12959127D01*
X10798953Y-13082936D02*
X10808477Y-13092460D01*
X10808477Y-13092460D02*
X10798953Y-13101984D01*
X10798953Y-13101984D02*
X10789429Y-13092460D01*
X10789429Y-13092460D02*
X10798953Y-13082936D01*
X10798953Y-13082936D02*
X10798953Y-13101984D01*
X10932286Y-12901984D02*
X10951334Y-12901984D01*
X10951334Y-12901984D02*
X10970382Y-12911508D01*
X10970382Y-12911508D02*
X10979905Y-12921031D01*
X10979905Y-12921031D02*
X10989429Y-12940079D01*
X10989429Y-12940079D02*
X10998953Y-12978174D01*
X10998953Y-12978174D02*
X10998953Y-13025793D01*
X10998953Y-13025793D02*
X10989429Y-13063888D01*
X10989429Y-13063888D02*
X10979905Y-13082936D01*
X10979905Y-13082936D02*
X10970382Y-13092460D01*
X10970382Y-13092460D02*
X10951334Y-13101984D01*
X10951334Y-13101984D02*
X10932286Y-13101984D01*
X10932286Y-13101984D02*
X10913239Y-13092460D01*
X10913239Y-13092460D02*
X10903715Y-13082936D01*
X10903715Y-13082936D02*
X10894191Y-13063888D01*
X10894191Y-13063888D02*
X10884667Y-13025793D01*
X10884667Y-13025793D02*
X10884667Y-12978174D01*
X10884667Y-12978174D02*
X10894191Y-12940079D01*
X10894191Y-12940079D02*
X10903715Y-12921031D01*
X10903715Y-12921031D02*
X10913239Y-12911508D01*
X10913239Y-12911508D02*
X10932286Y-12901984D01*
X11122763Y-12901984D02*
X11141810Y-12901984D01*
X11141810Y-12901984D02*
X11160858Y-12911508D01*
X11160858Y-12911508D02*
X11170382Y-12921031D01*
X11170382Y-12921031D02*
X11179905Y-12940079D01*
X11179905Y-12940079D02*
X11189429Y-12978174D01*
X11189429Y-12978174D02*
X11189429Y-13025793D01*
X11189429Y-13025793D02*
X11179905Y-13063888D01*
X11179905Y-13063888D02*
X11170382Y-13082936D01*
X11170382Y-13082936D02*
X11160858Y-13092460D01*
X11160858Y-13092460D02*
X11141810Y-13101984D01*
X11141810Y-13101984D02*
X11122763Y-13101984D01*
X11122763Y-13101984D02*
X11103715Y-13092460D01*
X11103715Y-13092460D02*
X11094191Y-13082936D01*
X11094191Y-13082936D02*
X11084667Y-13063888D01*
X11084667Y-13063888D02*
X11075144Y-13025793D01*
X11075144Y-13025793D02*
X11075144Y-12978174D01*
X11075144Y-12978174D02*
X11084667Y-12940079D01*
X11084667Y-12940079D02*
X11094191Y-12921031D01*
X11094191Y-12921031D02*
X11103715Y-12911508D01*
X11103715Y-12911508D02*
X11122763Y-12901984D01*
X11313239Y-12901984D02*
X11332286Y-12901984D01*
X11332286Y-12901984D02*
X11351334Y-12911508D01*
X11351334Y-12911508D02*
X11360858Y-12921031D01*
X11360858Y-12921031D02*
X11370382Y-12940079D01*
X11370382Y-12940079D02*
X11379905Y-12978174D01*
X11379905Y-12978174D02*
X11379905Y-13025793D01*
X11379905Y-13025793D02*
X11370382Y-13063888D01*
X11370382Y-13063888D02*
X11360858Y-13082936D01*
X11360858Y-13082936D02*
X11351334Y-13092460D01*
X11351334Y-13092460D02*
X11332286Y-13101984D01*
X11332286Y-13101984D02*
X11313239Y-13101984D01*
X11313239Y-13101984D02*
X11294191Y-13092460D01*
X11294191Y-13092460D02*
X11284667Y-13082936D01*
X11284667Y-13082936D02*
X11275143Y-13063888D01*
X11275143Y-13063888D02*
X11265620Y-13025793D01*
X11265620Y-13025793D02*
X11265620Y-12978174D01*
X11265620Y-12978174D02*
X11275143Y-12940079D01*
X11275143Y-12940079D02*
X11284667Y-12921031D01*
X11284667Y-12921031D02*
X11294191Y-12911508D01*
X11294191Y-12911508D02*
X11313239Y-12901984D01*
X11465620Y-13101984D02*
X11465620Y-12968650D01*
X11465620Y-12987698D02*
X11475143Y-12978174D01*
X11475143Y-12978174D02*
X11494191Y-12968650D01*
X11494191Y-12968650D02*
X11522763Y-12968650D01*
X11522763Y-12968650D02*
X11541810Y-12978174D01*
X11541810Y-12978174D02*
X11551334Y-12997222D01*
X11551334Y-12997222D02*
X11551334Y-13101984D01*
X11551334Y-12997222D02*
X11560858Y-12978174D01*
X11560858Y-12978174D02*
X11579905Y-12968650D01*
X11579905Y-12968650D02*
X11608477Y-12968650D01*
X11608477Y-12968650D02*
X11627524Y-12978174D01*
X11627524Y-12978174D02*
X11637048Y-12997222D01*
X11637048Y-12997222D02*
X11637048Y-13101984D01*
X11732286Y-13101984D02*
X11732286Y-12968650D01*
X11732286Y-12987698D02*
X11741810Y-12978174D01*
X11741810Y-12978174D02*
X11760858Y-12968650D01*
X11760858Y-12968650D02*
X11789429Y-12968650D01*
X11789429Y-12968650D02*
X11808477Y-12978174D01*
X11808477Y-12978174D02*
X11818001Y-12997222D01*
X11818001Y-12997222D02*
X11818001Y-13101984D01*
X11818001Y-12997222D02*
X11827524Y-12978174D01*
X11827524Y-12978174D02*
X11846572Y-12968650D01*
X11846572Y-12968650D02*
X11875143Y-12968650D01*
X11875143Y-12968650D02*
X11894191Y-12978174D01*
X11894191Y-12978174D02*
X11903715Y-12997222D01*
X11903715Y-12997222D02*
X11903715Y-13101984D01*
X12294191Y-12892460D02*
X12122763Y-13149603D01*
X12551334Y-12901984D02*
X12570382Y-12901984D01*
X12570382Y-12901984D02*
X12589429Y-12911508D01*
X12589429Y-12911508D02*
X12598953Y-12921031D01*
X12598953Y-12921031D02*
X12608477Y-12940079D01*
X12608477Y-12940079D02*
X12618001Y-12978174D01*
X12618001Y-12978174D02*
X12618001Y-13025793D01*
X12618001Y-13025793D02*
X12608477Y-13063888D01*
X12608477Y-13063888D02*
X12598953Y-13082936D01*
X12598953Y-13082936D02*
X12589429Y-13092460D01*
X12589429Y-13092460D02*
X12570382Y-13101984D01*
X12570382Y-13101984D02*
X12551334Y-13101984D01*
X12551334Y-13101984D02*
X12532286Y-13092460D01*
X12532286Y-13092460D02*
X12522763Y-13082936D01*
X12522763Y-13082936D02*
X12513239Y-13063888D01*
X12513239Y-13063888D02*
X12503715Y-13025793D01*
X12503715Y-13025793D02*
X12503715Y-12978174D01*
X12503715Y-12978174D02*
X12513239Y-12940079D01*
X12513239Y-12940079D02*
X12522763Y-12921031D01*
X12522763Y-12921031D02*
X12532286Y-12911508D01*
X12532286Y-12911508D02*
X12551334Y-12901984D01*
X12703715Y-13082936D02*
X12713239Y-13092460D01*
X12713239Y-13092460D02*
X12703715Y-13101984D01*
X12703715Y-13101984D02*
X12694191Y-13092460D01*
X12694191Y-13092460D02*
X12703715Y-13082936D01*
X12703715Y-13082936D02*
X12703715Y-13101984D01*
X12837048Y-12901984D02*
X12856096Y-12901984D01*
X12856096Y-12901984D02*
X12875144Y-12911508D01*
X12875144Y-12911508D02*
X12884667Y-12921031D01*
X12884667Y-12921031D02*
X12894191Y-12940079D01*
X12894191Y-12940079D02*
X12903715Y-12978174D01*
X12903715Y-12978174D02*
X12903715Y-13025793D01*
X12903715Y-13025793D02*
X12894191Y-13063888D01*
X12894191Y-13063888D02*
X12884667Y-13082936D01*
X12884667Y-13082936D02*
X12875144Y-13092460D01*
X12875144Y-13092460D02*
X12856096Y-13101984D01*
X12856096Y-13101984D02*
X12837048Y-13101984D01*
X12837048Y-13101984D02*
X12818001Y-13092460D01*
X12818001Y-13092460D02*
X12808477Y-13082936D01*
X12808477Y-13082936D02*
X12798953Y-13063888D01*
X12798953Y-13063888D02*
X12789429Y-13025793D01*
X12789429Y-13025793D02*
X12789429Y-12978174D01*
X12789429Y-12978174D02*
X12798953Y-12940079D01*
X12798953Y-12940079D02*
X12808477Y-12921031D01*
X12808477Y-12921031D02*
X12818001Y-12911508D01*
X12818001Y-12911508D02*
X12837048Y-12901984D01*
X12970382Y-12901984D02*
X13094191Y-12901984D01*
X13094191Y-12901984D02*
X13027525Y-12978174D01*
X13027525Y-12978174D02*
X13056096Y-12978174D01*
X13056096Y-12978174D02*
X13075144Y-12987698D01*
X13075144Y-12987698D02*
X13084667Y-12997222D01*
X13084667Y-12997222D02*
X13094191Y-13016269D01*
X13094191Y-13016269D02*
X13094191Y-13063888D01*
X13094191Y-13063888D02*
X13084667Y-13082936D01*
X13084667Y-13082936D02*
X13075144Y-13092460D01*
X13075144Y-13092460D02*
X13056096Y-13101984D01*
X13056096Y-13101984D02*
X12998953Y-13101984D01*
X12998953Y-13101984D02*
X12979906Y-13092460D01*
X12979906Y-13092460D02*
X12970382Y-13082936D01*
X13189429Y-13101984D02*
X13227525Y-13101984D01*
X13227525Y-13101984D02*
X13246572Y-13092460D01*
X13246572Y-13092460D02*
X13256096Y-13082936D01*
X13256096Y-13082936D02*
X13275144Y-13054365D01*
X13275144Y-13054365D02*
X13284667Y-13016269D01*
X13284667Y-13016269D02*
X13284667Y-12940079D01*
X13284667Y-12940079D02*
X13275144Y-12921031D01*
X13275144Y-12921031D02*
X13265620Y-12911508D01*
X13265620Y-12911508D02*
X13246572Y-12901984D01*
X13246572Y-12901984D02*
X13208477Y-12901984D01*
X13208477Y-12901984D02*
X13189429Y-12911508D01*
X13189429Y-12911508D02*
X13179906Y-12921031D01*
X13179906Y-12921031D02*
X13170382Y-12940079D01*
X13170382Y-12940079D02*
X13170382Y-12987698D01*
X13170382Y-12987698D02*
X13179906Y-13006746D01*
X13179906Y-13006746D02*
X13189429Y-13016269D01*
X13189429Y-13016269D02*
X13208477Y-13025793D01*
X13208477Y-13025793D02*
X13246572Y-13025793D01*
X13246572Y-13025793D02*
X13265620Y-13016269D01*
X13265620Y-13016269D02*
X13275144Y-13006746D01*
X13275144Y-13006746D02*
X13284667Y-12987698D01*
X13456096Y-12968650D02*
X13456096Y-13101984D01*
X13408477Y-12892460D02*
X13360858Y-13035317D01*
X13360858Y-13035317D02*
X13484667Y-13035317D01*
X13551334Y-12901984D02*
X13551334Y-12940079D01*
X13627525Y-12901984D02*
X13627525Y-12940079D01*
X13922763Y-13178174D02*
X13913239Y-13168650D01*
X13913239Y-13168650D02*
X13894191Y-13140079D01*
X13894191Y-13140079D02*
X13884668Y-13121031D01*
X13884668Y-13121031D02*
X13875144Y-13092460D01*
X13875144Y-13092460D02*
X13865620Y-13044841D01*
X13865620Y-13044841D02*
X13865620Y-13006746D01*
X13865620Y-13006746D02*
X13875144Y-12959127D01*
X13875144Y-12959127D02*
X13884668Y-12930555D01*
X13884668Y-12930555D02*
X13894191Y-12911508D01*
X13894191Y-12911508D02*
X13913239Y-12882936D01*
X13913239Y-12882936D02*
X13922763Y-12873412D01*
X14084668Y-12968650D02*
X14084668Y-13101984D01*
X14037048Y-12892460D02*
X13989429Y-13035317D01*
X13989429Y-13035317D02*
X14113239Y-13035317D01*
X14275144Y-12968650D02*
X14275144Y-13101984D01*
X14227525Y-12892460D02*
X14179906Y-13035317D01*
X14179906Y-13035317D02*
X14303715Y-13035317D01*
X14532287Y-13101984D02*
X14532287Y-12901984D01*
X14618001Y-13101984D02*
X14618001Y-12997222D01*
X14618001Y-12997222D02*
X14608477Y-12978174D01*
X14608477Y-12978174D02*
X14589430Y-12968650D01*
X14589430Y-12968650D02*
X14560858Y-12968650D01*
X14560858Y-12968650D02*
X14541810Y-12978174D01*
X14541810Y-12978174D02*
X14532287Y-12987698D01*
X14741810Y-13101984D02*
X14722763Y-13092460D01*
X14722763Y-13092460D02*
X14713239Y-13082936D01*
X14713239Y-13082936D02*
X14703715Y-13063888D01*
X14703715Y-13063888D02*
X14703715Y-13006746D01*
X14703715Y-13006746D02*
X14713239Y-12987698D01*
X14713239Y-12987698D02*
X14722763Y-12978174D01*
X14722763Y-12978174D02*
X14741810Y-12968650D01*
X14741810Y-12968650D02*
X14770382Y-12968650D01*
X14770382Y-12968650D02*
X14789430Y-12978174D01*
X14789430Y-12978174D02*
X14798953Y-12987698D01*
X14798953Y-12987698D02*
X14808477Y-13006746D01*
X14808477Y-13006746D02*
X14808477Y-13063888D01*
X14808477Y-13063888D02*
X14798953Y-13082936D01*
X14798953Y-13082936D02*
X14789430Y-13092460D01*
X14789430Y-13092460D02*
X14770382Y-13101984D01*
X14770382Y-13101984D02*
X14741810Y-13101984D01*
X14922763Y-13101984D02*
X14903715Y-13092460D01*
X14903715Y-13092460D02*
X14894191Y-13073412D01*
X14894191Y-13073412D02*
X14894191Y-12901984D01*
X15075144Y-13092460D02*
X15056096Y-13101984D01*
X15056096Y-13101984D02*
X15018001Y-13101984D01*
X15018001Y-13101984D02*
X14998953Y-13092460D01*
X14998953Y-13092460D02*
X14989430Y-13073412D01*
X14989430Y-13073412D02*
X14989430Y-12997222D01*
X14989430Y-12997222D02*
X14998953Y-12978174D01*
X14998953Y-12978174D02*
X15018001Y-12968650D01*
X15018001Y-12968650D02*
X15056096Y-12968650D01*
X15056096Y-12968650D02*
X15075144Y-12978174D01*
X15075144Y-12978174D02*
X15084668Y-12997222D01*
X15084668Y-12997222D02*
X15084668Y-13016269D01*
X15084668Y-13016269D02*
X14989430Y-13035317D01*
X15160858Y-13092460D02*
X15179906Y-13101984D01*
X15179906Y-13101984D02*
X15218001Y-13101984D01*
X15218001Y-13101984D02*
X15237049Y-13092460D01*
X15237049Y-13092460D02*
X15246572Y-13073412D01*
X15246572Y-13073412D02*
X15246572Y-13063888D01*
X15246572Y-13063888D02*
X15237049Y-13044841D01*
X15237049Y-13044841D02*
X15218001Y-13035317D01*
X15218001Y-13035317D02*
X15189430Y-13035317D01*
X15189430Y-13035317D02*
X15170382Y-13025793D01*
X15170382Y-13025793D02*
X15160858Y-13006746D01*
X15160858Y-13006746D02*
X15160858Y-12997222D01*
X15160858Y-12997222D02*
X15170382Y-12978174D01*
X15170382Y-12978174D02*
X15189430Y-12968650D01*
X15189430Y-12968650D02*
X15218001Y-12968650D01*
X15218001Y-12968650D02*
X15237049Y-12978174D01*
X15313239Y-13178174D02*
X15322763Y-13168650D01*
X15322763Y-13168650D02*
X15341811Y-13140079D01*
X15341811Y-13140079D02*
X15351334Y-13121031D01*
X15351334Y-13121031D02*
X15360858Y-13092460D01*
X15360858Y-13092460D02*
X15370382Y-13044841D01*
X15370382Y-13044841D02*
X15370382Y-13006746D01*
X15370382Y-13006746D02*
X15360858Y-12959127D01*
X15360858Y-12959127D02*
X15351334Y-12930555D01*
X15351334Y-12930555D02*
X15341811Y-12911508D01*
X15341811Y-12911508D02*
X15322763Y-12882936D01*
X15322763Y-12882936D02*
X15313239Y-12873412D01*
D13*
X10293950Y-13220750D02*
X10293950Y-13328250D01*
X10240200Y-13274500D02*
X10347700Y-13274500D01*
D11*
X10713239Y-13365984D02*
X10598953Y-13365984D01*
X10656096Y-13365984D02*
X10656096Y-13165984D01*
X10656096Y-13165984D02*
X10637048Y-13194555D01*
X10637048Y-13194555D02*
X10618001Y-13213603D01*
X10618001Y-13213603D02*
X10598953Y-13223127D01*
X10798953Y-13346936D02*
X10808477Y-13356460D01*
X10808477Y-13356460D02*
X10798953Y-13365984D01*
X10798953Y-13365984D02*
X10789429Y-13356460D01*
X10789429Y-13356460D02*
X10798953Y-13346936D01*
X10798953Y-13346936D02*
X10798953Y-13365984D01*
X10932286Y-13165984D02*
X10951334Y-13165984D01*
X10951334Y-13165984D02*
X10970382Y-13175508D01*
X10970382Y-13175508D02*
X10979905Y-13185031D01*
X10979905Y-13185031D02*
X10989429Y-13204079D01*
X10989429Y-13204079D02*
X10998953Y-13242174D01*
X10998953Y-13242174D02*
X10998953Y-13289793D01*
X10998953Y-13289793D02*
X10989429Y-13327888D01*
X10989429Y-13327888D02*
X10979905Y-13346936D01*
X10979905Y-13346936D02*
X10970382Y-13356460D01*
X10970382Y-13356460D02*
X10951334Y-13365984D01*
X10951334Y-13365984D02*
X10932286Y-13365984D01*
X10932286Y-13365984D02*
X10913239Y-13356460D01*
X10913239Y-13356460D02*
X10903715Y-13346936D01*
X10903715Y-13346936D02*
X10894191Y-13327888D01*
X10894191Y-13327888D02*
X10884667Y-13289793D01*
X10884667Y-13289793D02*
X10884667Y-13242174D01*
X10884667Y-13242174D02*
X10894191Y-13204079D01*
X10894191Y-13204079D02*
X10903715Y-13185031D01*
X10903715Y-13185031D02*
X10913239Y-13175508D01*
X10913239Y-13175508D02*
X10932286Y-13165984D01*
X11065620Y-13165984D02*
X11198953Y-13165984D01*
X11198953Y-13165984D02*
X11113239Y-13365984D01*
X11370382Y-13165984D02*
X11275143Y-13165984D01*
X11275143Y-13165984D02*
X11265620Y-13261222D01*
X11265620Y-13261222D02*
X11275143Y-13251698D01*
X11275143Y-13251698D02*
X11294191Y-13242174D01*
X11294191Y-13242174D02*
X11341810Y-13242174D01*
X11341810Y-13242174D02*
X11360858Y-13251698D01*
X11360858Y-13251698D02*
X11370382Y-13261222D01*
X11370382Y-13261222D02*
X11379905Y-13280269D01*
X11379905Y-13280269D02*
X11379905Y-13327888D01*
X11379905Y-13327888D02*
X11370382Y-13346936D01*
X11370382Y-13346936D02*
X11360858Y-13356460D01*
X11360858Y-13356460D02*
X11341810Y-13365984D01*
X11341810Y-13365984D02*
X11294191Y-13365984D01*
X11294191Y-13365984D02*
X11275143Y-13356460D01*
X11275143Y-13356460D02*
X11265620Y-13346936D01*
X11465620Y-13365984D02*
X11465620Y-13232650D01*
X11465620Y-13251698D02*
X11475143Y-13242174D01*
X11475143Y-13242174D02*
X11494191Y-13232650D01*
X11494191Y-13232650D02*
X11522763Y-13232650D01*
X11522763Y-13232650D02*
X11541810Y-13242174D01*
X11541810Y-13242174D02*
X11551334Y-13261222D01*
X11551334Y-13261222D02*
X11551334Y-13365984D01*
X11551334Y-13261222D02*
X11560858Y-13242174D01*
X11560858Y-13242174D02*
X11579905Y-13232650D01*
X11579905Y-13232650D02*
X11608477Y-13232650D01*
X11608477Y-13232650D02*
X11627524Y-13242174D01*
X11627524Y-13242174D02*
X11637048Y-13261222D01*
X11637048Y-13261222D02*
X11637048Y-13365984D01*
X11732286Y-13365984D02*
X11732286Y-13232650D01*
X11732286Y-13251698D02*
X11741810Y-13242174D01*
X11741810Y-13242174D02*
X11760858Y-13232650D01*
X11760858Y-13232650D02*
X11789429Y-13232650D01*
X11789429Y-13232650D02*
X11808477Y-13242174D01*
X11808477Y-13242174D02*
X11818001Y-13261222D01*
X11818001Y-13261222D02*
X11818001Y-13365984D01*
X11818001Y-13261222D02*
X11827524Y-13242174D01*
X11827524Y-13242174D02*
X11846572Y-13232650D01*
X11846572Y-13232650D02*
X11875143Y-13232650D01*
X11875143Y-13232650D02*
X11894191Y-13242174D01*
X11894191Y-13242174D02*
X11903715Y-13261222D01*
X11903715Y-13261222D02*
X11903715Y-13365984D01*
X12294191Y-13156460D02*
X12122763Y-13413603D01*
X12551334Y-13165984D02*
X12570382Y-13165984D01*
X12570382Y-13165984D02*
X12589429Y-13175508D01*
X12589429Y-13175508D02*
X12598953Y-13185031D01*
X12598953Y-13185031D02*
X12608477Y-13204079D01*
X12608477Y-13204079D02*
X12618001Y-13242174D01*
X12618001Y-13242174D02*
X12618001Y-13289793D01*
X12618001Y-13289793D02*
X12608477Y-13327888D01*
X12608477Y-13327888D02*
X12598953Y-13346936D01*
X12598953Y-13346936D02*
X12589429Y-13356460D01*
X12589429Y-13356460D02*
X12570382Y-13365984D01*
X12570382Y-13365984D02*
X12551334Y-13365984D01*
X12551334Y-13365984D02*
X12532286Y-13356460D01*
X12532286Y-13356460D02*
X12522763Y-13346936D01*
X12522763Y-13346936D02*
X12513239Y-13327888D01*
X12513239Y-13327888D02*
X12503715Y-13289793D01*
X12503715Y-13289793D02*
X12503715Y-13242174D01*
X12503715Y-13242174D02*
X12513239Y-13204079D01*
X12513239Y-13204079D02*
X12522763Y-13185031D01*
X12522763Y-13185031D02*
X12532286Y-13175508D01*
X12532286Y-13175508D02*
X12551334Y-13165984D01*
X12703715Y-13346936D02*
X12713239Y-13356460D01*
X12713239Y-13356460D02*
X12703715Y-13365984D01*
X12703715Y-13365984D02*
X12694191Y-13356460D01*
X12694191Y-13356460D02*
X12703715Y-13346936D01*
X12703715Y-13346936D02*
X12703715Y-13365984D01*
X12837048Y-13165984D02*
X12856096Y-13165984D01*
X12856096Y-13165984D02*
X12875144Y-13175508D01*
X12875144Y-13175508D02*
X12884667Y-13185031D01*
X12884667Y-13185031D02*
X12894191Y-13204079D01*
X12894191Y-13204079D02*
X12903715Y-13242174D01*
X12903715Y-13242174D02*
X12903715Y-13289793D01*
X12903715Y-13289793D02*
X12894191Y-13327888D01*
X12894191Y-13327888D02*
X12884667Y-13346936D01*
X12884667Y-13346936D02*
X12875144Y-13356460D01*
X12875144Y-13356460D02*
X12856096Y-13365984D01*
X12856096Y-13365984D02*
X12837048Y-13365984D01*
X12837048Y-13365984D02*
X12818001Y-13356460D01*
X12818001Y-13356460D02*
X12808477Y-13346936D01*
X12808477Y-13346936D02*
X12798953Y-13327888D01*
X12798953Y-13327888D02*
X12789429Y-13289793D01*
X12789429Y-13289793D02*
X12789429Y-13242174D01*
X12789429Y-13242174D02*
X12798953Y-13204079D01*
X12798953Y-13204079D02*
X12808477Y-13185031D01*
X12808477Y-13185031D02*
X12818001Y-13175508D01*
X12818001Y-13175508D02*
X12837048Y-13165984D01*
X13075144Y-13232650D02*
X13075144Y-13365984D01*
X13027525Y-13156460D02*
X12979906Y-13299317D01*
X12979906Y-13299317D02*
X13103715Y-13299317D01*
X13170382Y-13185031D02*
X13179906Y-13175508D01*
X13179906Y-13175508D02*
X13198953Y-13165984D01*
X13198953Y-13165984D02*
X13246572Y-13165984D01*
X13246572Y-13165984D02*
X13265620Y-13175508D01*
X13265620Y-13175508D02*
X13275144Y-13185031D01*
X13275144Y-13185031D02*
X13284667Y-13204079D01*
X13284667Y-13204079D02*
X13284667Y-13223127D01*
X13284667Y-13223127D02*
X13275144Y-13251698D01*
X13275144Y-13251698D02*
X13160858Y-13365984D01*
X13160858Y-13365984D02*
X13284667Y-13365984D01*
X13351334Y-13165984D02*
X13475144Y-13165984D01*
X13475144Y-13165984D02*
X13408477Y-13242174D01*
X13408477Y-13242174D02*
X13437048Y-13242174D01*
X13437048Y-13242174D02*
X13456096Y-13251698D01*
X13456096Y-13251698D02*
X13465620Y-13261222D01*
X13465620Y-13261222D02*
X13475144Y-13280269D01*
X13475144Y-13280269D02*
X13475144Y-13327888D01*
X13475144Y-13327888D02*
X13465620Y-13346936D01*
X13465620Y-13346936D02*
X13456096Y-13356460D01*
X13456096Y-13356460D02*
X13437048Y-13365984D01*
X13437048Y-13365984D02*
X13379906Y-13365984D01*
X13379906Y-13365984D02*
X13360858Y-13356460D01*
X13360858Y-13356460D02*
X13351334Y-13346936D01*
X13551334Y-13165984D02*
X13551334Y-13204079D01*
X13627525Y-13165984D02*
X13627525Y-13204079D01*
X13922763Y-13442174D02*
X13913239Y-13432650D01*
X13913239Y-13432650D02*
X13894191Y-13404079D01*
X13894191Y-13404079D02*
X13884668Y-13385031D01*
X13884668Y-13385031D02*
X13875144Y-13356460D01*
X13875144Y-13356460D02*
X13865620Y-13308841D01*
X13865620Y-13308841D02*
X13865620Y-13270746D01*
X13865620Y-13270746D02*
X13875144Y-13223127D01*
X13875144Y-13223127D02*
X13884668Y-13194555D01*
X13884668Y-13194555D02*
X13894191Y-13175508D01*
X13894191Y-13175508D02*
X13913239Y-13146936D01*
X13913239Y-13146936D02*
X13922763Y-13137412D01*
X14027525Y-13251698D02*
X14008477Y-13242174D01*
X14008477Y-13242174D02*
X13998953Y-13232650D01*
X13998953Y-13232650D02*
X13989429Y-13213603D01*
X13989429Y-13213603D02*
X13989429Y-13204079D01*
X13989429Y-13204079D02*
X13998953Y-13185031D01*
X13998953Y-13185031D02*
X14008477Y-13175508D01*
X14008477Y-13175508D02*
X14027525Y-13165984D01*
X14027525Y-13165984D02*
X14065620Y-13165984D01*
X14065620Y-13165984D02*
X14084668Y-13175508D01*
X14084668Y-13175508D02*
X14094191Y-13185031D01*
X14094191Y-13185031D02*
X14103715Y-13204079D01*
X14103715Y-13204079D02*
X14103715Y-13213603D01*
X14103715Y-13213603D02*
X14094191Y-13232650D01*
X14094191Y-13232650D02*
X14084668Y-13242174D01*
X14084668Y-13242174D02*
X14065620Y-13251698D01*
X14065620Y-13251698D02*
X14027525Y-13251698D01*
X14027525Y-13251698D02*
X14008477Y-13261222D01*
X14008477Y-13261222D02*
X13998953Y-13270746D01*
X13998953Y-13270746D02*
X13989429Y-13289793D01*
X13989429Y-13289793D02*
X13989429Y-13327888D01*
X13989429Y-13327888D02*
X13998953Y-13346936D01*
X13998953Y-13346936D02*
X14008477Y-13356460D01*
X14008477Y-13356460D02*
X14027525Y-13365984D01*
X14027525Y-13365984D02*
X14065620Y-13365984D01*
X14065620Y-13365984D02*
X14084668Y-13356460D01*
X14084668Y-13356460D02*
X14094191Y-13346936D01*
X14094191Y-13346936D02*
X14103715Y-13327888D01*
X14103715Y-13327888D02*
X14103715Y-13289793D01*
X14103715Y-13289793D02*
X14094191Y-13270746D01*
X14094191Y-13270746D02*
X14084668Y-13261222D01*
X14084668Y-13261222D02*
X14065620Y-13251698D01*
X14341810Y-13365984D02*
X14341810Y-13165984D01*
X14427525Y-13365984D02*
X14427525Y-13261222D01*
X14427525Y-13261222D02*
X14418001Y-13242174D01*
X14418001Y-13242174D02*
X14398953Y-13232650D01*
X14398953Y-13232650D02*
X14370382Y-13232650D01*
X14370382Y-13232650D02*
X14351334Y-13242174D01*
X14351334Y-13242174D02*
X14341810Y-13251698D01*
X14551334Y-13365984D02*
X14532287Y-13356460D01*
X14532287Y-13356460D02*
X14522763Y-13346936D01*
X14522763Y-13346936D02*
X14513239Y-13327888D01*
X14513239Y-13327888D02*
X14513239Y-13270746D01*
X14513239Y-13270746D02*
X14522763Y-13251698D01*
X14522763Y-13251698D02*
X14532287Y-13242174D01*
X14532287Y-13242174D02*
X14551334Y-13232650D01*
X14551334Y-13232650D02*
X14579906Y-13232650D01*
X14579906Y-13232650D02*
X14598953Y-13242174D01*
X14598953Y-13242174D02*
X14608477Y-13251698D01*
X14608477Y-13251698D02*
X14618001Y-13270746D01*
X14618001Y-13270746D02*
X14618001Y-13327888D01*
X14618001Y-13327888D02*
X14608477Y-13346936D01*
X14608477Y-13346936D02*
X14598953Y-13356460D01*
X14598953Y-13356460D02*
X14579906Y-13365984D01*
X14579906Y-13365984D02*
X14551334Y-13365984D01*
X14732287Y-13365984D02*
X14713239Y-13356460D01*
X14713239Y-13356460D02*
X14703715Y-13337412D01*
X14703715Y-13337412D02*
X14703715Y-13165984D01*
X14884668Y-13356460D02*
X14865620Y-13365984D01*
X14865620Y-13365984D02*
X14827525Y-13365984D01*
X14827525Y-13365984D02*
X14808477Y-13356460D01*
X14808477Y-13356460D02*
X14798953Y-13337412D01*
X14798953Y-13337412D02*
X14798953Y-13261222D01*
X14798953Y-13261222D02*
X14808477Y-13242174D01*
X14808477Y-13242174D02*
X14827525Y-13232650D01*
X14827525Y-13232650D02*
X14865620Y-13232650D01*
X14865620Y-13232650D02*
X14884668Y-13242174D01*
X14884668Y-13242174D02*
X14894191Y-13261222D01*
X14894191Y-13261222D02*
X14894191Y-13280269D01*
X14894191Y-13280269D02*
X14798953Y-13299317D01*
X14970382Y-13356460D02*
X14989430Y-13365984D01*
X14989430Y-13365984D02*
X15027525Y-13365984D01*
X15027525Y-13365984D02*
X15046572Y-13356460D01*
X15046572Y-13356460D02*
X15056096Y-13337412D01*
X15056096Y-13337412D02*
X15056096Y-13327888D01*
X15056096Y-13327888D02*
X15046572Y-13308841D01*
X15046572Y-13308841D02*
X15027525Y-13299317D01*
X15027525Y-13299317D02*
X14998953Y-13299317D01*
X14998953Y-13299317D02*
X14979906Y-13289793D01*
X14979906Y-13289793D02*
X14970382Y-13270746D01*
X14970382Y-13270746D02*
X14970382Y-13261222D01*
X14970382Y-13261222D02*
X14979906Y-13242174D01*
X14979906Y-13242174D02*
X14998953Y-13232650D01*
X14998953Y-13232650D02*
X15027525Y-13232650D01*
X15027525Y-13232650D02*
X15046572Y-13242174D01*
X15122763Y-13442174D02*
X15132287Y-13432650D01*
X15132287Y-13432650D02*
X15151334Y-13404079D01*
X15151334Y-13404079D02*
X15160858Y-13385031D01*
X15160858Y-13385031D02*
X15170382Y-13356460D01*
X15170382Y-13356460D02*
X15179906Y-13308841D01*
X15179906Y-13308841D02*
X15179906Y-13270746D01*
X15179906Y-13270746D02*
X15170382Y-13223127D01*
X15170382Y-13223127D02*
X15160858Y-13194555D01*
X15160858Y-13194555D02*
X15151334Y-13175508D01*
X15151334Y-13175508D02*
X15132287Y-13146936D01*
X15132287Y-13146936D02*
X15122763Y-13137412D01*
M02*
